<?xml version="1.0" encoding="UTF-8"?>
<!DOCTYPE svg PUBLIC "-//W3C//DTD SVG 1.0//EN" "http://www.w3.org/TR/2001/REC-SVG-20010904/DTD/svg10.dtd">
<!-- Creator: CorelDRAW 2019 (64-Bit) -->
<svg xmlns="http://www.w3.org/2000/svg" xml:space="preserve" width="64px" height="64px" version="1.0" shape-rendering="geometricPrecision" text-rendering="geometricPrecision" image-rendering="optimizeQuality" fill-rule="evenodd" clip-rule="evenodd"
viewBox="0 0 64 64"
 xmlns:xlink="http://www.w3.org/1999/xlink"
 xmlns:xodm="http://www.corel.com/coreldraw/odm/2003">
 <g id="Слой_x0020_1">
  <metadata id="CorelCorpID_0Corel-Layer"/>
  <rect fill="#ED1C24" width="64" height="64"/>
  <g id="_2301989863008">
   <path fill="white" fill-rule="nonzero" d="M22.176 48.388c0.253,0.095 0.473,0.253 0.646,0.462l0.706 0.855c0.08,0.096 0.192,0.155 0.315,0.168 0.125,0.011 0.245,-0.026 0.341,-0.105 0.199,-0.164 0.227,-0.458 0.063,-0.656l-0.706 -0.856c-0.334,-0.404 -0.777,-0.686 -1.284,-0.82l-2.844 -0.747c-0.548,-0.149 -0.976,-0.58 -1.111,-1.13l-0.703 -2.854c-0.126,-0.509 -0.403,-0.957 -0.802,-1.297l-2.237 -1.907c-0.432,-0.368 -0.628,-0.943 -0.511,-1.499l0.605 -2.877c0.107,-0.512 0.053,-1.036 -0.159,-1.515l-1.189 -2.69c-0.229,-0.52 -0.157,-1.123 0.19,-1.573l1.793 -2.329c0.32,-0.415 0.498,-0.911 0.515,-1.434l0.095 -2.939c0.019,-0.568 0.346,-1.08 0.854,-1.335l2.627 -1.321c0.468,-0.235 0.843,-0.605 1.085,-1.069l1.362 -2.606c0.263,-0.503 0.779,-0.822 1.348,-0.832l2.939 -0.051c0.524,-0.009 1.022,-0.179 1.442,-0.492l2.357 -1.757c0.454,-0.338 1.053,-0.403 1.575,-0.165l2.672 1.23c0.477,0.219 1,0.282 1.512,0.182l1.925 -0.373c0.122,-0.024 0.228,-0.094 0.297,-0.197 0.07,-0.103 0.095,-0.228 0.072,-0.35 -0.049,-0.252 -0.294,-0.418 -0.547,-0.369l-1.924 0.374c-0.318,0.061 -0.645,0.022 -0.944,-0.113l-2.671 -1.231c-0.827,-0.385 -1.793,-0.28 -2.524,0.265l-2.357 1.757c-0.262,0.195 -0.574,0.302 -0.901,0.307l-2.939 0.05c-0.91,0.016 -1.737,0.527 -2.159,1.334l-1.362 2.606c-0.151,0.29 -0.385,0.52 -0.677,0.667l-2.627 1.321c-0.813,0.409 -1.337,1.228 -1.366,2.138l-0.096 2.939c-0.011,0.326 -0.122,0.636 -0.322,0.895l-1.793 2.33c-0.555,0.721 -0.671,1.686 -0.303,2.518l1.188 2.689c0.132,0.299 0.167,0.626 0.099,0.947l-0.605 2.877c-0.187,0.891 0.127,1.811 0.82,2.401l2.237 1.907c0.249,0.212 0.422,0.492 0.5,0.81l0.703 2.854c0.219,0.887 0.899,1.581 1.78,1.808l2.844 0.748c0.053,0.013 0.105,0.03 0.156,0.05z"/>
   <path fill="white" fill-rule="nonzero" d="M39.937 11.109c-11.519,-4.377 -24.452,1.434 -28.829,12.954 -4.376,11.519 1.435,24.452 12.955,28.828 11.519,4.377 24.452,-1.434 28.828,-12.953 4.377,-11.52 -1.434,-24.453 -12.954,-28.829zm-16.438 43.265c-12.337,-4.687 -18.561,-18.538 -13.873,-30.875 4.687,-12.337 18.538,-18.561 30.875,-13.873 12.337,4.687 18.561,18.538 13.873,30.875 -4.687,12.338 -18.537,18.561 -30.875,13.873z"/>
   <path fill="white" fill-rule="nonzero" d="M45.466 22.45c0.086,-0.047 0.173,-0.093 0.258,-0.138 0.345,-0.184 0.443,-0.614 0.204,-0.934 -0.797,-1.065 -1.709,-2.062 -2.728,-2.971 -0.247,-0.221 -0.617,-0.253 -0.886,-0.085 -1.844,1.151 -3.87,2.313 -6.196,3.32 -0.159,0.069 -0.283,0.193 -0.342,0.349l-1.552 4.085c-0.198,0.521 0.358,1.058 0.922,0.894 4.112,-1.194 7.395,-2.952 10.32,-4.52z"/>
   <path fill="white" fill-rule="nonzero" d="M48.587 38.252c0.049,-0.129 0.096,-0.258 0.14,-0.386 0.113,-0.324 -0.25,-0.638 -0.585,-0.509 -4.848,1.885 -10.886,3.603 -18.975,2.878 -0.184,-0.017 -0.353,0.08 -0.414,0.239l-1.327 3.493c-0.085,0.225 0.071,0.482 0.326,0.539 6.45,1.427 11.777,1.241 16.145,0.37 0.075,-0.015 0.144,-0.049 0.199,-0.098 1.954,-1.755 3.513,-3.952 4.491,-6.526z"/>
   <path fill="white" fill-rule="nonzero" d="M47.729 28.831c0.335,-0.153 0.661,-0.301 0.984,-0.446 0.269,-0.121 0.41,-0.404 0.333,-0.685 -0.402,-1.462 -0.99,-2.88 -1.749,-4.224 -0.181,-0.322 -0.613,-0.443 -0.935,-0.271 -0.099,0.053 -0.2,0.107 -0.302,0.162 -3.426,1.836 -7.332,3.927 -12.455,5.116 -0.202,0.046 -0.365,0.181 -0.434,0.364l-1.431 3.766c-0.167,0.44 0.242,0.908 0.743,0.859 6.402,-0.622 11.143,-2.775 15.246,-4.641z"/>
   <path fill="white" fill-rule="nonzero" d="M41.303 16.905c-0.767,-0.54 -1.579,-1.036 -2.434,-1.479 -0.266,-0.137 -0.589,-0.026 -0.687,0.231l-1.335 3.515c-0.153,0.402 0.327,0.789 0.726,0.589 1.338,-0.673 2.572,-1.387 3.732,-2.102 0.276,-0.17 0.277,-0.558 -0.002,-0.754z"/>
   <path fill="white" fill-rule="nonzero" d="M49.38 35.448c0.344,-1.803 0.38,-3.626 0.14,-5.413 -0.051,-0.376 -0.494,-0.604 -0.848,-0.444 -0.135,0.062 -0.272,0.124 -0.41,0.187 -4.476,2.036 -9.691,4.407 -16.938,4.852 -0.217,0.013 -0.404,0.14 -0.476,0.33l-1.345 3.539c-0.129,0.341 0.144,0.725 0.536,0.752 8.218,0.566 14.23,-1.459 19.024,-3.424 0.167,-0.068 0.285,-0.209 0.317,-0.379z"/>
   <path fill="white" fill-rule="nonzero" d="M26.797 45.624l-1.043 2.744c-0.071,0.187 0.052,0.404 0.263,0.46 5.311,1.392 10.712,0.621 15.017,-1.839 0.322,-0.185 0.117,-0.666 -0.265,-0.627 -3.885,0.392 -8.393,0.231 -13.565,-0.936 -0.175,-0.039 -0.349,0.044 -0.407,0.198z"/>
   <path fill="white" fill-rule="nonzero" d="M30.327 19.729c-0.471,1.241 -1.859,1.865 -3.1,1.393 -1.241,-0.471 -1.864,-1.859 -1.393,-3.1 0.471,-1.241 1.859,-1.864 3.1,-1.393 1.241,0.472 1.865,1.859 1.393,3.1z"/>
   <path fill="white" fill-rule="nonzero" d="M24.433 40.889c-0.471,1.24 -1.859,1.864 -3.1,1.393 -1.241,-0.472 -1.864,-1.86 -1.393,-3.101 0.471,-1.24 1.859,-1.864 3.1,-1.393 1.241,0.472 1.865,1.86 1.393,3.101z"/>
   <path fill="white" fill-rule="nonzero" d="M21.936 29.485c-0.472,1.241 -1.86,1.864 -3.101,1.393 -1.24,-0.472 -1.864,-1.859 -1.393,-3.1 0.472,-1.241 1.86,-1.865 3.101,-1.393 1.241,0.471 1.864,1.859 1.393,3.1z"/>
   <path fill="white" fill-rule="nonzero" d="M18.129 38.724c-0.112,0.294 -0.44,0.441 -0.734,0.33 -0.294,-0.112 -0.442,-0.44 -0.33,-0.734 0.112,-0.294 0.44,-0.442 0.734,-0.33 0.294,0.111 0.442,0.44 0.33,0.734z"/>
   <path fill="white" fill-rule="nonzero" d="M36.325 17.569c-0.112,0.294 -0.44,0.442 -0.734,0.33 -0.294,-0.112 -0.442,-0.44 -0.33,-0.734 0.112,-0.294 0.44,-0.442 0.734,-0.33 0.294,0.111 0.442,0.44 0.33,0.734z"/>
   <path fill="white" fill-rule="nonzero" d="M24.644 45.14c-0.112,0.294 -0.44,0.442 -0.734,0.33 -0.294,-0.111 -0.441,-0.44 -0.33,-0.734 0.112,-0.294 0.441,-0.441 0.734,-0.33 0.294,0.112 0.442,0.441 0.33,0.734z"/>
   <path fill="white" fill-rule="nonzero" d="M33.161 23.986c-0.111,0.294 -0.44,0.441 -0.734,0.33 -0.293,-0.112 -0.441,-0.441 -0.33,-0.734 0.112,-0.294 0.441,-0.442 0.734,-0.33 0.294,0.111 0.442,0.44 0.33,0.734z"/>
   <path fill="white" fill-rule="nonzero" d="M19.732 23.354c-0.112,0.294 -0.44,0.441 -0.734,0.33 -0.294,-0.112 -0.441,-0.441 -0.33,-0.734 0.112,-0.294 0.441,-0.442 0.734,-0.33 0.294,0.111 0.442,0.44 0.33,0.734z"/>
   <path fill="white" fill-rule="nonzero" d="M29.273 33.63c-0.112,0.294 -0.441,0.441 -0.734,0.33 -0.294,-0.112 -0.442,-0.441 -0.33,-0.734 0.111,-0.294 0.44,-0.442 0.734,-0.33 0.293,0.111 0.441,0.44 0.33,0.734z"/>
   <path fill="white" fill-rule="nonzero" d="M24.395 33.898c-0.112,0.294 -0.44,0.442 -0.734,0.33 -0.294,-0.111 -0.442,-0.44 -0.33,-0.734 0.112,-0.294 0.44,-0.442 0.734,-0.33 0.294,0.111 0.441,0.44 0.33,0.734z"/>
   <path fill="white" fill-rule="nonzero" d="M31.524 15.136c-0.112,0.294 -0.441,0.442 -0.734,0.33 -0.294,-0.112 -0.442,-0.44 -0.33,-0.734 0.111,-0.294 0.44,-0.442 0.734,-0.33 0.294,0.111 0.441,0.44 0.33,0.734z"/>
   <path fill="white" fill-rule="nonzero" d="M17.427 33.686c-0.112,0.293 -0.44,0.441 -0.734,0.33 -0.294,-0.112 -0.442,-0.441 -0.33,-0.734 0.112,-0.294 0.44,-0.442 0.734,-0.33 0.294,0.111 0.442,0.44 0.33,0.734z"/>
   <path fill="white" fill-rule="nonzero" d="M27.748 39.246c-0.112,0.294 -0.441,0.441 -0.734,0.329 -0.294,-0.111 -0.442,-0.44 -0.33,-0.734 0.111,-0.294 0.44,-0.441 0.734,-0.329 0.293,0.111 0.441,0.44 0.33,0.734z"/>
   <path fill="white" fill-rule="nonzero" d="M25.062 24.77c-0.112,0.294 -0.441,0.442 -0.734,0.33 -0.294,-0.112 -0.442,-0.44 -0.33,-0.734 0.111,-0.294 0.44,-0.442 0.734,-0.33 0.293,0.112 0.441,0.44 0.33,0.734z"/>
   <path fill="white" fill-rule="nonzero" d="M23.969 18.969c-0.112,0.294 -0.44,0.442 -0.734,0.33 -0.294,-0.111 -0.442,-0.44 -0.33,-0.734 0.112,-0.294 0.44,-0.441 0.734,-0.33 0.294,0.112 0.442,0.441 0.33,0.734z"/>
   <path fill="white" fill-rule="nonzero" d="M31.25 28.339c-0.471,1.24 -1.859,1.864 -3.1,1.393 -1.241,-0.472 -1.864,-1.86 -1.393,-3.1 0.471,-1.241 1.859,-1.865 3.1,-1.394 1.241,0.472 1.865,1.86 1.393,3.101z"/>
   <path fill="white" fill-rule="nonzero" d="M39.003 13.569c-0.426,-0.162 -0.854,-0.304 -1.284,-0.433 -0.161,-0.048 -0.333,0.038 -0.393,0.195l-0.233 0.613c0.527,0.149 1.051,0.317 1.572,0.515 9.672,3.675 14.551,14.533 10.876,24.206 -3.675,9.672 -14.534,14.551 -24.206,10.877 -0.52,-0.198 -1.024,-0.421 -1.516,-0.659l-0.245 0.643c-0.053,0.14 0.01,0.299 0.147,0.363 0.416,0.194 0.84,0.377 1.276,0.542 10.163,3.862 21.573,-1.265 25.434,-11.428 3.861,-10.163 -1.265,-21.573 -11.428,-25.434z"/>
  </g>
 </g>
</svg>
