<?xml version="1.0" encoding="UTF-8"?>
<!DOCTYPE svg PUBLIC "-//W3C//DTD SVG 1.1//EN" "http://www.w3.org/Graphics/SVG/1.1/DTD/svg11.dtd">
<!-- Creator: CorelDRAW 2019 (64-Bit) -->
<svg xmlns="http://www.w3.org/2000/svg" xml:space="preserve" width="502px" height="138px" version="1.1" style="shape-rendering:geometricPrecision; text-rendering:geometricPrecision; image-rendering:optimizeQuality; fill-rule:evenodd; clip-rule:evenodd"
viewBox="0 0 502 138.12"
 xmlns:xlink="http://www.w3.org/1999/xlink">
 <defs>
  <style type="text/css">
   <![CDATA[
    .fil0 {fill:#231F20;fill-rule:nonzero}
   ]]>
  </style>
 </defs>
 <g id="Слой_x0020_1">
  <metadata id="CorelCorpID_0Corel-Layer"/>
  <g id="_2663992792528">
   <path class="fil0" d="M131.81 116c0.72,0.27 1.34,0.72 1.84,1.32l2.01 2.44c0.23,0.27 0.55,0.44 0.9,0.48 0.35,0.03 0.7,-0.08 0.97,-0.3 0.57,-0.47 0.65,-1.31 0.18,-1.87l-2.01 -2.44c-0.95,-1.16 -2.22,-1.96 -3.66,-2.34l-8.11 -2.13c-1.57,-0.43 -2.79,-1.66 -3.17,-3.23l-2.01 -8.14c-0.36,-1.45 -1.15,-2.73 -2.28,-3.7l-6.38 -5.43c-1.24,-1.05 -1.8,-2.69 -1.46,-4.28l1.72 -8.2c0.31,-1.46 0.15,-2.96 -0.45,-4.33l-3.39 -7.67c-0.66,-1.48 -0.45,-3.2 0.54,-4.48l5.11 -6.65c0.92,-1.18 1.42,-2.59 1.47,-4.09l0.27 -8.38c0.06,-1.62 0.99,-3.08 2.44,-3.81l7.49 -3.76c1.33,-0.67 2.41,-1.73 3.1,-3.05l3.88 -7.43c0.75,-1.44 2.22,-2.35 3.84,-2.38l8.39 -0.14c1.49,-0.03 2.91,-0.51 4.11,-1.4l6.72 -5.01c1.29,-0.97 3,-1.16 4.49,-0.48l7.62 3.51c1.37,0.63 2.86,0.81 4.32,0.52l5.49 -1.06c0.34,-0.07 0.64,-0.27 0.84,-0.57 0.2,-0.29 0.27,-0.64 0.21,-0.99 -0.14,-0.72 -0.84,-1.2 -1.56,-1.05l-5.49 1.06c-0.91,0.18 -1.84,0.06 -2.69,-0.32l-7.62 -3.51c-2.36,-1.1 -5.11,-0.8 -7.2,0.75l-6.72 5.01c-0.75,0.56 -1.64,0.86 -2.57,0.88l-8.38 0.14c-2.6,0.05 -4.96,1.51 -6.16,3.81l-3.88 7.43c-0.43,0.83 -1.1,1.48 -1.93,1.9l-7.5 3.77c-2.31,1.17 -3.81,3.5 -3.89,6.1l-0.28 8.38c-0.03,0.93 -0.34,1.81 -0.91,2.55l-5.12 6.65c-1.58,2.05 -1.91,4.8 -0.86,7.18l3.39 7.67c0.37,0.85 0.47,1.78 0.28,2.7l-1.73 8.2c-0.53,2.54 0.37,5.17 2.34,6.85l6.38 5.44c0.71,0.6 1.21,1.4 1.43,2.31l2 8.14c0.63,2.53 2.57,4.51 5.08,5.16l8.11 2.13c0.15,0.04 0.3,0.09 0.45,0.14z"/>
   <path class="fil0" d="M182.46 9.68c-32.85,-12.48 -69.74,4.09 -82.22,36.95 -12.48,32.85 4.09,69.73 36.95,82.21 32.85,12.49 69.73,-4.09 82.22,-36.94 12.48,-32.85 -4.1,-69.74 -36.95,-82.22zm-46.88 123.39c-35.19,-13.36 -52.94,-52.87 -39.57,-88.05 13.37,-35.19 52.87,-52.94 88.06,-39.57 35.18,13.37 52.93,52.87 39.56,88.06 -13.36,35.18 -52.86,52.93 -88.05,39.56z"/>
   <path class="fil0" d="M198.23 42.03c0.24,-0.14 0.49,-0.27 0.73,-0.4 0.99,-0.52 1.27,-1.75 0.58,-2.66 -2.27,-3.04 -4.87,-5.88 -7.77,-8.47 -0.71,-0.63 -1.76,-0.73 -2.53,-0.25 -5.26,3.29 -11.04,6.6 -17.67,9.47 -0.46,0.2 -0.81,0.55 -0.98,1l-4.42 11.65c-0.57,1.48 1.02,3.02 2.62,2.55 11.73,-3.41 21.1,-8.42 29.44,-12.89z"/>
   <path class="fil0" d="M207.13 87.09c0.14,-0.36 0.27,-0.73 0.4,-1.1 0.32,-0.92 -0.72,-1.82 -1.67,-1.45 -13.83,5.38 -31.05,10.28 -54.12,8.21 -0.52,-0.05 -1,0.23 -1.18,0.68l-3.78 9.96c-0.24,0.64 0.2,1.38 0.93,1.54 18.39,4.07 33.59,3.54 46.04,1.06 0.22,-0.05 0.41,-0.14 0.57,-0.28 5.57,-5.01 10.02,-11.27 12.81,-18.62z"/>
   <path class="fil0" d="M204.68 60.22c0.96,-0.43 1.89,-0.85 2.81,-1.27 0.77,-0.34 1.17,-1.15 0.95,-1.95 -1.15,-4.17 -2.83,-8.21 -4.99,-12.05 -0.52,-0.92 -1.75,-1.26 -2.67,-0.77 -0.28,0.15 -0.57,0.31 -0.86,0.46 -9.77,5.24 -20.91,11.2 -35.52,14.59 -0.57,0.13 -1.04,0.52 -1.24,1.04l-4.08 10.74c-0.47,1.26 0.69,2.59 2.12,2.45 18.26,-1.77 31.78,-7.91 43.48,-13.24z"/>
   <path class="fil0" d="M186.36 26.21c-2.19,-1.54 -4.51,-2.95 -6.95,-4.21 -0.76,-0.4 -1.68,-0.08 -1.95,0.65l-3.81 10.03c-0.44,1.14 0.93,2.25 2.07,1.68 3.81,-1.92 7.33,-3.96 10.64,-6 0.79,-0.48 0.79,-1.59 0,-2.15z"/>
   <path class="fil0" d="M209.39 79.1c0.98,-5.15 1.08,-10.35 0.4,-15.44 -0.14,-1.07 -1.41,-1.72 -2.42,-1.27 -0.38,0.18 -0.77,0.36 -1.17,0.53 -12.76,5.81 -27.64,12.58 -48.3,13.84 -0.62,0.04 -1.16,0.4 -1.36,0.95l-3.84 10.09c-0.37,0.97 0.41,2.07 1.53,2.14 23.44,1.62 40.58,-4.16 54.26,-9.76 0.47,-0.2 0.81,-0.6 0.9,-1.08z"/>
   <path class="fil0" d="M144.98 108.12l-2.97 7.82c-0.2,0.54 0.15,1.16 0.75,1.32 15.15,3.97 30.55,1.77 42.83,-5.25 0.92,-0.52 0.33,-1.9 -0.76,-1.79 -11.08,1.12 -23.94,0.66 -38.68,-2.67 -0.5,-0.11 -1,0.13 -1.17,0.57z"/>
   <path class="fil0" d="M155.05 34.27c-1.34,3.54 -5.3,5.31 -8.84,3.97 -3.54,-1.34 -5.32,-5.3 -3.97,-8.84 1.34,-3.54 5.3,-5.32 8.84,-3.98 3.54,1.35 5.32,5.31 3.97,8.85z"/>
   <path class="fil0" d="M138.24 94.61c-1.34,3.54 -5.3,5.32 -8.84,3.98 -3.54,-1.35 -5.32,-5.31 -3.97,-8.85 1.34,-3.53 5.3,-5.31 8.84,-3.97 3.54,1.35 5.32,5.3 3.97,8.84z"/>
   <path class="fil0" d="M131.12 62.09c-1.34,3.54 -5.3,5.32 -8.84,3.97 -3.54,-1.34 -5.32,-5.3 -3.97,-8.84 1.34,-3.54 5.3,-5.32 8.84,-3.97 3.54,1.34 5.32,5.3 3.97,8.84z"/>
   <path class="fil0" d="M120.26 88.44c-0.31,0.84 -1.25,1.26 -2.09,0.94 -0.84,-0.32 -1.26,-1.26 -0.94,-2.09 0.32,-0.84 1.26,-1.26 2.09,-0.94 0.84,0.31 1.26,1.25 0.94,2.09z"/>
   <path class="fil0" d="M172.16 28.11c-0.32,0.83 -1.26,1.26 -2.09,0.94 -0.84,-0.32 -1.26,-1.26 -0.95,-2.1 0.32,-0.83 1.26,-1.26 2.1,-0.94 0.84,0.32 1.26,1.26 0.94,2.1z"/>
   <path class="fil0" d="M138.84 106.74c-0.31,0.84 -1.25,1.26 -2.09,0.94 -0.84,-0.32 -1.26,-1.26 -0.94,-2.09 0.32,-0.84 1.26,-1.26 2.09,-0.94 0.84,0.31 1.26,1.25 0.94,2.09z"/>
   <path class="fil0" d="M163.14 46.41c-0.32,0.83 -1.26,1.26 -2.1,0.94 -0.84,-0.32 -1.26,-1.26 -0.94,-2.1 0.32,-0.83 1.26,-1.25 2.09,-0.94 0.84,0.32 1.26,1.26 0.95,2.1z"/>
   <path class="fil0" d="M124.84 44.6c-0.32,0.84 -1.26,1.26 -2.1,0.94 -0.84,-0.31 -1.26,-1.25 -0.94,-2.09 0.32,-0.84 1.26,-1.26 2.09,-0.94 0.84,0.32 1.26,1.26 0.95,2.09z"/>
   <path class="fil0" d="M152.04 73.91c-0.31,0.84 -1.25,1.26 -2.09,0.94 -0.84,-0.32 -1.26,-1.25 -0.94,-2.09 0.32,-0.84 1.26,-1.26 2.09,-0.94 0.84,0.32 1.26,1.25 0.94,2.09z"/>
   <path class="fil0" d="M138.13 74.68c-0.31,0.83 -1.25,1.26 -2.09,0.94 -0.84,-0.32 -1.26,-1.26 -0.94,-2.1 0.32,-0.83 1.26,-1.26 2.09,-0.94 0.84,0.32 1.26,1.26 0.94,2.1z"/>
   <path class="fil0" d="M158.46 21.17c-0.31,0.84 -1.25,1.26 -2.09,0.94 -0.84,-0.32 -1.26,-1.26 -0.94,-2.09 0.32,-0.84 1.26,-1.26 2.09,-0.95 0.84,0.32 1.26,1.26 0.94,2.1z"/>
   <path class="fil0" d="M118.26 74.07c-0.32,0.84 -1.25,1.26 -2.09,0.94 -0.84,-0.32 -1.26,-1.25 -0.94,-2.09 0.32,-0.84 1.25,-1.26 2.09,-0.94 0.84,0.31 1.26,1.25 0.94,2.09z"/>
   <path class="fil0" d="M147.7 89.93c-0.32,0.84 -1.26,1.26 -2.1,0.94 -0.84,-0.32 -1.26,-1.26 -0.94,-2.1 0.32,-0.83 1.26,-1.25 2.09,-0.94 0.84,0.32 1.26,1.26 0.95,2.1z"/>
   <path class="fil0" d="M140.04 48.64c-0.32,0.84 -1.26,1.26 -2.1,0.94 -0.84,-0.31 -1.26,-1.25 -0.94,-2.09 0.32,-0.84 1.26,-1.26 2.09,-0.94 0.84,0.32 1.26,1.26 0.95,2.09z"/>
   <path class="fil0" d="M136.92 32.1c-0.32,0.84 -1.26,1.26 -2.09,0.94 -0.84,-0.32 -1.26,-1.25 -0.95,-2.09 0.32,-0.84 1.26,-1.26 2.1,-0.94 0.84,0.31 1.26,1.25 0.94,2.09z"/>
   <path class="fil0" d="M157.69 58.82c-1.35,3.54 -5.31,5.32 -8.85,3.97 -3.54,-1.34 -5.31,-5.3 -3.97,-8.84 1.34,-3.54 5.3,-5.31 8.84,-3.97 3.54,1.34 5.32,5.3 3.98,8.84z"/>
   <path class="fil0" d="M179.8 16.7c-1.22,-0.46 -2.44,-0.87 -3.67,-1.24 -0.46,-0.13 -0.95,0.11 -1.12,0.56l-0.66 1.75c1.5,0.42 3,0.9 4.48,1.47 27.59,10.48 41.5,41.45 31.02,69.03 -10.48,27.59 -41.45,41.5 -69.03,31.02 -1.49,-0.56 -2.93,-1.2 -4.33,-1.88l-0.7 1.84c-0.15,0.4 0.03,0.85 0.42,1.03 1.19,0.56 2.4,1.08 3.64,1.55 28.99,11.01 61.53,-3.61 72.54,-32.59 11.01,-28.99 -3.61,-61.53 -32.59,-72.54z"/>
   <path class="fil0" d="M241.09 116.94c-0.13,0.54 -0.29,1.01 -0.49,1.42l4.51 0 1.88 -8.09 -4.36 0 -1.54 6.67zm6.65 5.16c-0.04,0.15 -0.1,0.28 -0.18,0.41 -0.09,0.12 -0.19,0.23 -0.32,0.33 -0.12,0.09 -0.25,0.17 -0.4,0.22 -0.14,0.06 -0.29,0.08 -0.44,0.08 -0.15,0 -0.29,-0.02 -0.41,-0.08 -0.12,-0.05 -0.21,-0.13 -0.29,-0.22 -0.07,-0.1 -0.12,-0.21 -0.15,-0.33 -0.03,-0.13 -0.03,-0.26 0.01,-0.41l0.38 -1.66 -7.79 0 -0.39 1.66c-0.03,0.15 -0.09,0.28 -0.18,0.41 -0.08,0.12 -0.18,0.23 -0.3,0.33 -0.11,0.09 -0.24,0.17 -0.39,0.22 -0.15,0.06 -0.29,0.08 -0.44,0.08 -0.15,0 -0.29,-0.02 -0.41,-0.08 -0.12,-0.05 -0.22,-0.13 -0.3,-0.22 -0.07,-0.1 -0.13,-0.21 -0.16,-0.33 -0.02,-0.13 -0.02,-0.26 0.01,-0.41l0.64 -2.74c0.04,-0.19 0.13,-0.36 0.26,-0.51 0.13,-0.15 0.29,-0.27 0.47,-0.36 0.2,-0.1 0.41,-0.15 0.62,-0.15l0.06 0c0.15,0 0.29,-0.04 0.43,-0.14 0.14,-0.09 0.26,-0.21 0.38,-0.35 0.12,-0.14 0.22,-0.29 0.3,-0.46 0.08,-0.16 0.14,-0.32 0.17,-0.47l1.77 -7.66c0.06,-0.26 0.2,-0.48 0.42,-0.67 0.21,-0.2 0.45,-0.32 0.71,-0.37 0.01,0 0.02,0 0.02,0 0.01,-0.01 0.01,-0.01 0.02,-0.01 0.03,0 0.06,-0.01 0.09,-0.01 0.02,0 0.04,-0.01 0.07,-0.01l6.54 0c0.14,0 0.28,0.03 0.4,0.08 0.12,0.06 0.22,0.13 0.3,0.23 0.07,0.1 0.13,0.21 0.15,0.33 0.03,0.12 0.03,0.26 -0.01,0.41l-2.11 9.12c0.04,-0.01 0.07,-0.01 0.11,-0.01 0.04,-0.01 0.08,-0.01 0.12,-0.01 0.14,0 0.28,0.03 0.4,0.08 0.12,0.06 0.22,0.13 0.29,0.23 0.08,0.09 0.13,0.2 0.16,0.33 0.03,0.13 0.03,0.26 -0.01,0.4l-0.62 2.72z"/>
   <path class="fil0" d="M258.51 110.18c-0.6,0 -1.19,0.11 -1.76,0.33 -0.58,0.22 -1.11,0.51 -1.59,0.89 -0.47,0.37 -0.88,0.81 -1.23,1.32 -0.34,0.5 -0.58,1.04 -0.71,1.61 -0.13,0.58 -0.15,1.13 -0.04,1.63 0.11,0.5 0.32,0.94 0.62,1.31 0.31,0.38 0.7,0.67 1.18,0.88 0.47,0.22 1.01,0.32 1.61,0.32 0.6,0 1.19,-0.1 1.76,-0.32 0.58,-0.21 1.1,-0.5 1.58,-0.88 0.48,-0.37 0.9,-0.81 1.24,-1.31 0.34,-0.5 0.58,-1.05 0.72,-1.63 0.13,-0.57 0.14,-1.11 0.03,-1.61 -0.11,-0.51 -0.32,-0.95 -0.62,-1.32 -0.31,-0.38 -0.7,-0.67 -1.18,-0.89 -0.47,-0.22 -1.01,-0.33 -1.61,-0.33zm0.47 -2.07c0.6,0 1.16,0.07 1.68,0.22 0.51,0.15 0.98,0.36 1.4,0.63 0.43,0.27 0.79,0.59 1.1,0.97 0.31,0.38 0.55,0.8 0.73,1.26 0.17,0.46 0.28,0.96 0.31,1.49 0.03,0.53 -0.01,1.08 -0.15,1.65 -0.2,0.87 -0.55,1.67 -1.07,2.42 -0.52,0.76 -1.14,1.41 -1.86,1.98 -0.72,0.56 -1.51,1.01 -2.37,1.33 -0.87,0.33 -1.75,0.49 -2.65,0.49 -0.6,0 -1.16,-0.07 -1.68,-0.22 -0.53,-0.15 -1,-0.35 -1.41,-0.63 -0.42,-0.27 -0.78,-0.59 -1.09,-0.97 -0.3,-0.38 -0.54,-0.8 -0.71,-1.26 -0.18,-0.46 -0.28,-0.95 -0.31,-1.48 -0.03,-0.53 0.02,-1.08 0.15,-1.66 0.14,-0.57 0.34,-1.12 0.61,-1.65 0.28,-0.53 0.61,-1.03 1,-1.49 0.39,-0.46 0.82,-0.88 1.3,-1.26 0.48,-0.38 0.99,-0.7 1.53,-0.97 0.55,-0.27 1.11,-0.48 1.7,-0.63 0.59,-0.15 1.19,-0.22 1.79,-0.22z"/>
   <path class="fil0" d="M277.96 109.94c0.17,0.21 0.22,0.45 0.15,0.73 -0.06,0.27 -0.22,0.51 -0.47,0.72 -0.13,0.1 -0.27,0.18 -0.42,0.23 -0.14,0.05 -0.29,0.07 -0.42,0.07 -0.15,0 -0.27,-0.02 -0.4,-0.07 -0.12,-0.04 -0.22,-0.12 -0.3,-0.21 -0.34,-0.42 -0.75,-0.72 -1.24,-0.93 -0.48,-0.2 -1.01,-0.3 -1.57,-0.3 -0.59,0 -1.17,0.11 -1.73,0.32 -0.57,0.22 -1.1,0.51 -1.58,0.88 -0.48,0.38 -0.89,0.81 -1.24,1.32 -0.34,0.5 -0.58,1.04 -0.72,1.62 -0.13,0.56 -0.14,1.09 -0.04,1.59 0.1,0.5 0.3,0.94 0.59,1.32 0.3,0.38 0.68,0.68 1.15,0.91 0.47,0.22 1,0.34 1.62,0.34 0.57,0.01 1.13,-0.08 1.69,-0.28 0.57,-0.19 1.13,-0.5 1.68,-0.93 0.13,-0.1 0.26,-0.17 0.4,-0.22 0.15,-0.04 0.29,-0.07 0.43,-0.07 0.14,0 0.27,0.03 0.4,0.07 0.12,0.05 0.22,0.12 0.3,0.21 0.08,0.1 0.13,0.22 0.16,0.35 0.02,0.12 0.02,0.25 -0.01,0.39 -0.04,0.13 -0.09,0.26 -0.17,0.39 -0.08,0.13 -0.18,0.24 -0.3,0.33 -0.8,0.62 -1.63,1.08 -2.5,1.39 -0.86,0.3 -1.72,0.45 -2.57,0.45 -0.59,0 -1.14,-0.07 -1.66,-0.22 -0.51,-0.15 -0.98,-0.36 -1.39,-0.63 -0.41,-0.27 -0.77,-0.59 -1.08,-0.97 -0.31,-0.38 -0.54,-0.8 -0.72,-1.26 -0.17,-0.47 -0.27,-0.96 -0.3,-1.49 -0.03,-0.52 0.02,-1.07 0.15,-1.65 0.12,-0.54 0.32,-1.07 0.59,-1.59 0.27,-0.53 0.59,-1.02 0.96,-1.48 0.38,-0.46 0.81,-0.88 1.28,-1.27 0.48,-0.39 0.99,-0.72 1.53,-1 0.55,-0.28 1.12,-0.5 1.73,-0.66 0.6,-0.15 1.21,-0.23 1.84,-0.23 0.84,0 1.62,0.15 2.34,0.46 0.73,0.3 1.34,0.76 1.84,1.37z"/>
   <path class="fil0" d="M285.63 110.27l-2.12 9.14c-0.03,0.15 -0.09,0.28 -0.18,0.41 -0.08,0.12 -0.19,0.23 -0.31,0.32 -0.12,0.09 -0.25,0.16 -0.4,0.21 -0.14,0.06 -0.29,0.09 -0.43,0.09 -0.16,0 -0.29,-0.03 -0.41,-0.09 -0.12,-0.05 -0.21,-0.12 -0.29,-0.21 -0.08,-0.09 -0.13,-0.2 -0.16,-0.32 -0.02,-0.13 -0.02,-0.26 0.01,-0.41l2.12 -9.14 -2.99 0c-0.15,0 -0.29,-0.03 -0.41,-0.08 -0.11,-0.06 -0.21,-0.13 -0.28,-0.23 -0.08,-0.09 -0.13,-0.2 -0.15,-0.33 -0.03,-0.12 -0.03,-0.26 0,-0.4 0.04,-0.14 0.1,-0.28 0.18,-0.4 0.09,-0.13 0.19,-0.24 0.31,-0.33 0.12,-0.1 0.25,-0.17 0.39,-0.22 0.14,-0.06 0.29,-0.09 0.44,-0.09l8.15 0c0.14,0 0.28,0.03 0.4,0.09 0.12,0.05 0.22,0.12 0.29,0.22 0.08,0.1 0.13,0.21 0.16,0.33 0.03,0.13 0.03,0.27 -0.01,0.41 -0.03,0.14 -0.09,0.28 -0.18,0.4 -0.08,0.13 -0.18,0.24 -0.31,0.33 -0.12,0.09 -0.25,0.16 -0.4,0.22 -0.14,0.05 -0.29,0.08 -0.43,0.08l-2.99 0z"/>
   <path class="fil0" d="M291.48 116.02l3.94 0 -0.92 -4.51 -3.02 4.51zm4.36 2.07l-5.72 0 -1.15 1.72c-0.09,0.14 -0.2,0.25 -0.32,0.35 -0.13,0.09 -0.27,0.16 -0.41,0.21 -0.14,0.04 -0.28,0.06 -0.43,0.06 -0.15,0 -0.29,-0.03 -0.42,-0.09 -0.13,-0.06 -0.23,-0.14 -0.3,-0.23 -0.07,-0.1 -0.11,-0.21 -0.13,-0.33 -0.01,-0.13 0,-0.26 0.04,-0.4 0.04,-0.14 0.11,-0.27 0.2,-0.41l6.93 -10.14c0.14,-0.21 0.3,-0.37 0.5,-0.47 0.19,-0.11 0.41,-0.17 0.63,-0.17 0.22,0 0.4,0.06 0.54,0.17 0.15,0.1 0.25,0.26 0.3,0.46l2.24 10.15c0.06,0.27 0.02,0.53 -0.13,0.8 -0.14,0.26 -0.36,0.45 -0.66,0.57 -0.16,0.06 -0.31,0.09 -0.45,0.09 -0.15,0 -0.29,-0.02 -0.41,-0.07 -0.12,-0.04 -0.22,-0.11 -0.31,-0.21 -0.08,-0.09 -0.15,-0.2 -0.18,-0.34l-0.36 -1.72z"/>
   <path class="fil0" d="M304.58 110.27l-0.64 2.79 3.42 0c0.2,0 0.39,-0.05 0.58,-0.13 0.2,-0.08 0.37,-0.18 0.53,-0.31 0.16,-0.13 0.3,-0.27 0.41,-0.44 0.12,-0.16 0.2,-0.34 0.24,-0.52 0.04,-0.2 0.05,-0.37 0,-0.54 -0.04,-0.16 -0.11,-0.31 -0.22,-0.44 -0.11,-0.13 -0.24,-0.23 -0.4,-0.3 -0.17,-0.07 -0.35,-0.11 -0.55,-0.11l-3.37 0zm-1.12 4.87l-0.75 3.22 3.56 0c0.24,0 0.48,-0.05 0.72,-0.14 0.23,-0.09 0.45,-0.22 0.65,-0.38 0.2,-0.16 0.38,-0.34 0.52,-0.54 0.14,-0.2 0.24,-0.42 0.29,-0.64 0.06,-0.23 0.06,-0.44 0,-0.63 -0.05,-0.19 -0.14,-0.35 -0.28,-0.48 -0.13,-0.13 -0.3,-0.23 -0.5,-0.3 -0.2,-0.08 -0.42,-0.11 -0.66,-0.11l-3.55 0zm-2.32 5.3c-0.15,0 -0.29,-0.03 -0.4,-0.09 -0.12,-0.05 -0.22,-0.12 -0.29,-0.21 -0.08,-0.09 -0.13,-0.2 -0.16,-0.32 -0.03,-0.13 -0.02,-0.26 0.01,-0.41l2.36 -10.19c0.03,-0.15 0.09,-0.28 0.18,-0.41 0.08,-0.12 0.19,-0.23 0.3,-0.32 0.12,-0.1 0.25,-0.17 0.39,-0.22 0.15,-0.05 0.29,-0.08 0.45,-0.08l4.58 0c0.5,0 0.94,0.09 1.32,0.27 0.39,0.18 0.71,0.42 0.96,0.73 0.25,0.3 0.42,0.67 0.51,1.08 0.08,0.41 0.07,0.85 -0.04,1.32 -0.1,0.44 -0.28,0.86 -0.53,1.26 -0.26,0.4 -0.57,0.77 -0.93,1.09 0.34,0.35 0.59,0.78 0.73,1.27 0.13,0.49 0.14,1.03 0,1.6 -0.11,0.51 -0.32,0.99 -0.63,1.43 -0.31,0.44 -0.67,0.82 -1.09,1.14 -0.43,0.33 -0.9,0.59 -1.42,0.77 -0.51,0.19 -1.04,0.29 -1.58,0.29l-4.72 0z"/>
   <path class="fil0" d="M322.94 112l-8.86 8.03c-0.14,0.13 -0.27,0.23 -0.41,0.3 -0.13,0.06 -0.27,0.1 -0.43,0.11l-0.02 0c-0.27,0 -0.49,-0.07 -0.65,-0.22 -0.1,-0.09 -0.17,-0.21 -0.21,-0.35 -0.04,-0.14 -0.04,-0.29 0,-0.46l2.36 -10.19c0.03,-0.14 0.09,-0.28 0.17,-0.4 0.09,-0.13 0.19,-0.24 0.3,-0.33 0.12,-0.09 0.25,-0.16 0.39,-0.21 0.15,-0.06 0.29,-0.09 0.45,-0.09 0.14,0 0.28,0.03 0.4,0.09 0.12,0.05 0.22,0.12 0.3,0.21 0.08,0.09 0.13,0.2 0.16,0.33 0.03,0.12 0.03,0.26 0,0.4l-1.69 7.31 8.75 -7.94c0.14,-0.13 0.3,-0.23 0.46,-0.3 0.17,-0.06 0.33,-0.1 0.49,-0.1 0.18,0 0.33,0.04 0.44,0.1 0.12,0.06 0.21,0.15 0.27,0.26 0.07,0.09 0.12,0.19 0.15,0.31 0.02,0.12 0.02,0.25 -0.01,0.39l-2.36 10.16c-0.03,0.15 -0.09,0.28 -0.18,0.41 -0.08,0.12 -0.18,0.23 -0.31,0.32 -0.11,0.09 -0.25,0.16 -0.39,0.21 -0.15,0.06 -0.3,0.09 -0.44,0.09 -0.16,0 -0.29,-0.03 -0.41,-0.09 -0.12,-0.05 -0.21,-0.12 -0.29,-0.21 -0.07,-0.09 -0.13,-0.2 -0.15,-0.32 -0.03,-0.13 -0.03,-0.26 0.01,-0.41l1.71 -7.41z"/>
   <path class="fil0" d="M338.89 119.41c-0.03,0.15 -0.09,0.28 -0.18,0.41 -0.08,0.12 -0.19,0.23 -0.31,0.32 -0.12,0.09 -0.25,0.16 -0.4,0.21 -0.14,0.06 -0.29,0.09 -0.43,0.09 -0.15,0 -0.28,-0.03 -0.4,-0.09 -0.12,-0.05 -0.22,-0.12 -0.29,-0.21 -0.08,-0.09 -0.14,-0.2 -0.17,-0.32 -0.02,-0.13 -0.02,-0.26 0.01,-0.41l1.68 -7.22 -4.02 3.92c-0.07,0.09 -0.16,0.17 -0.25,0.24 -0.15,0.12 -0.31,0.21 -0.46,0.26 -0.4,0.13 -0.72,0.04 -0.95,-0.25 -0.07,-0.09 -0.12,-0.18 -0.14,-0.27l-2.21 -3.9 -1.67 7.22c-0.03,0.15 -0.09,0.28 -0.18,0.41 -0.09,0.12 -0.19,0.23 -0.31,0.32 -0.12,0.09 -0.25,0.16 -0.4,0.21 -0.14,0.06 -0.29,0.09 -0.44,0.09 -0.15,0 -0.29,-0.03 -0.4,-0.09 -0.12,-0.05 -0.22,-0.12 -0.29,-0.21 -0.08,-0.09 -0.13,-0.2 -0.16,-0.32 -0.03,-0.13 -0.02,-0.26 0.01,-0.41l2.36 -10.19c0.06,-0.27 0.2,-0.5 0.42,-0.69 0.22,-0.18 0.47,-0.29 0.76,-0.33 0.18,-0.03 0.36,-0.02 0.52,0.04 0.16,0.05 0.28,0.15 0.36,0.29l3.04 5.42 5.51 -5.39c0.1,-0.11 0.22,-0.19 0.36,-0.25 0.13,-0.06 0.27,-0.09 0.41,-0.11 0.02,0 0.04,0 0.06,0 0.03,0 0.05,-0.01 0.07,-0.01 0.15,0 0.29,0.03 0.41,0.09 0.12,0.05 0.22,0.12 0.3,0.21 0.07,0.09 0.12,0.2 0.15,0.33 0.03,0.12 0.02,0.26 -0.01,0.4l-2.36 10.19z"/>
   <path class="fil0" d="M355.05 110.27l-0.65 2.79 3.42 0c0.2,0 0.4,-0.05 0.59,-0.13 0.19,-0.08 0.37,-0.18 0.52,-0.31 0.16,-0.13 0.3,-0.27 0.42,-0.44 0.11,-0.16 0.19,-0.34 0.23,-0.52 0.05,-0.2 0.05,-0.37 0.01,-0.54 -0.04,-0.16 -0.12,-0.31 -0.23,-0.44 -0.1,-0.13 -0.24,-0.23 -0.4,-0.3 -0.16,-0.07 -0.35,-0.11 -0.55,-0.11l-3.36 0zm-1.13 4.87l-0.75 3.22 3.56 0c0.24,0 0.48,-0.05 0.72,-0.14 0.24,-0.09 0.45,-0.22 0.66,-0.38 0.2,-0.16 0.37,-0.34 0.51,-0.54 0.14,-0.2 0.24,-0.42 0.29,-0.64 0.06,-0.23 0.06,-0.44 0,-0.63 -0.05,-0.19 -0.14,-0.35 -0.28,-0.48 -0.13,-0.13 -0.3,-0.23 -0.5,-0.3 -0.2,-0.08 -0.42,-0.11 -0.66,-0.11l-3.55 0zm-2.32 5.3c-0.15,0 -0.28,-0.03 -0.4,-0.09 -0.12,-0.05 -0.22,-0.12 -0.29,-0.21 -0.08,-0.09 -0.13,-0.2 -0.16,-0.32 -0.02,-0.13 -0.02,-0.26 0.01,-0.41l2.36 -10.19c0.04,-0.15 0.09,-0.28 0.18,-0.41 0.09,-0.12 0.19,-0.23 0.31,-0.32 0.11,-0.1 0.25,-0.17 0.39,-0.22 0.14,-0.05 0.29,-0.08 0.44,-0.08l4.58 0c0.5,0 0.94,0.09 1.33,0.27 0.38,0.18 0.7,0.42 0.95,0.73 0.25,0.3 0.42,0.67 0.51,1.08 0.08,0.41 0.07,0.85 -0.03,1.32 -0.11,0.44 -0.28,0.86 -0.54,1.26 -0.26,0.4 -0.57,0.77 -0.93,1.09 0.35,0.35 0.59,0.78 0.73,1.27 0.14,0.49 0.14,1.03 0.01,1.6 -0.12,0.51 -0.33,0.99 -0.64,1.43 -0.3,0.44 -0.67,0.82 -1.09,1.14 -0.43,0.33 -0.9,0.59 -1.41,0.77 -0.52,0.19 -1.05,0.29 -1.59,0.29l-4.72 0z"/>
   <path class="fil0" d="M366.51 112.85l0.71 0 4.78 -4.37c0.16,-0.11 0.31,-0.18 0.46,-0.23 0.12,-0.04 0.24,-0.06 0.38,-0.06l1.06 0c0.16,0 0.3,0.03 0.42,0.09 0.12,0.05 0.22,0.12 0.3,0.22 0.08,0.09 0.14,0.2 0.16,0.33 0.03,0.12 0.03,0.26 -0.01,0.41 -0.07,0.3 -0.23,0.54 -0.49,0.74 -0.26,0.19 -0.54,0.29 -0.86,0.29l-0.64 0 -4.32 3.95 3.4 4.42c0.08,0.11 0.13,0.23 0.16,0.36 0.02,0.13 0.02,0.26 -0.01,0.4 -0.04,0.14 -0.1,0.27 -0.19,0.4 -0.08,0.13 -0.2,0.25 -0.33,0.35 -0.26,0.2 -0.53,0.29 -0.79,0.27 -0.27,-0.02 -0.48,-0.13 -0.65,-0.34l-3.97 -5.15 -0.05 0 -1.03 4.43c-0.07,0.3 -0.22,0.56 -0.47,0.77 -0.24,0.2 -0.52,0.31 -0.83,0.31 -0.16,0 -0.29,-0.03 -0.41,-0.09 -0.13,-0.05 -0.23,-0.12 -0.3,-0.22 -0.08,-0.1 -0.13,-0.21 -0.17,-0.34 -0.03,-0.12 -0.02,-0.26 0.01,-0.41l2.35 -10.13c0.03,-0.15 0.09,-0.29 0.18,-0.42 0.09,-0.12 0.2,-0.23 0.32,-0.33 0.12,-0.1 0.26,-0.17 0.4,-0.22 0.15,-0.06 0.3,-0.09 0.45,-0.09 0.31,0 0.54,0.1 0.7,0.3 0.15,0.2 0.19,0.45 0.12,0.75l-0.84 3.61z"/>
   <path class="fil0" d="M380.35 114.18l3.7 -5.35c0.09,-0.13 0.2,-0.24 0.33,-0.34 0.13,-0.09 0.26,-0.17 0.4,-0.22 0.15,-0.05 0.29,-0.08 0.43,-0.08 0.15,0 0.28,0.02 0.41,0.08 0.13,0.06 0.22,0.14 0.3,0.24 0.07,0.1 0.12,0.21 0.14,0.34 0.03,0.12 0.03,0.25 0,0.39 -0.03,0.14 -0.09,0.27 -0.18,0.41l-4.88 6.85 -0.36 0.53c-0.44,0.63 -0.85,1.16 -1.23,1.6 -0.37,0.44 -0.75,0.8 -1.12,1.09 -0.38,0.29 -0.77,0.5 -1.18,0.63 -0.41,0.14 -0.87,0.22 -1.38,0.23 -0.01,0 -0.03,0 -0.05,0 -0.02,0.01 -0.03,0.01 -0.05,0.01 -0.3,0 -0.54,-0.08 -0.72,-0.25 -0.17,-0.17 -0.23,-0.39 -0.16,-0.68 0.03,-0.15 0.09,-0.29 0.18,-0.42 0.09,-0.13 0.19,-0.25 0.32,-0.34 0.12,-0.1 0.25,-0.17 0.4,-0.23 0.14,-0.05 0.29,-0.08 0.44,-0.08 0.31,0.01 0.57,-0.02 0.78,-0.09 0.22,-0.06 0.41,-0.16 0.59,-0.3 0.17,-0.13 0.34,-0.31 0.5,-0.51 0.16,-0.21 0.35,-0.45 0.55,-0.74l0.15 -0.23 -1.75 -7.07c-0.02,-0.14 -0.02,-0.27 0.01,-0.41 0.04,-0.14 0.1,-0.27 0.18,-0.39 0.08,-0.13 0.19,-0.24 0.31,-0.34 0.13,-0.1 0.27,-0.18 0.42,-0.24 0.16,-0.06 0.3,-0.08 0.44,-0.08 0.14,0 0.27,0.03 0.39,0.08 0.12,0.05 0.22,0.13 0.3,0.22 0.08,0.1 0.13,0.21 0.16,0.34l1.23 5.35z"/>
   <path class="fil0" d="M398.36 109.94c0.17,0.21 0.22,0.45 0.15,0.73 -0.06,0.27 -0.22,0.51 -0.47,0.72 -0.13,0.1 -0.27,0.18 -0.42,0.23 -0.14,0.05 -0.29,0.07 -0.43,0.07 -0.14,0 -0.26,-0.02 -0.39,-0.07 -0.12,-0.04 -0.22,-0.12 -0.3,-0.21 -0.34,-0.42 -0.75,-0.72 -1.24,-0.93 -0.48,-0.2 -1.01,-0.3 -1.57,-0.3 -0.59,0 -1.17,0.11 -1.73,0.32 -0.57,0.22 -1.1,0.51 -1.58,0.88 -0.48,0.38 -0.89,0.81 -1.24,1.32 -0.34,0.5 -0.58,1.04 -0.72,1.62 -0.13,0.56 -0.14,1.09 -0.04,1.59 0.1,0.5 0.3,0.94 0.59,1.32 0.3,0.38 0.68,0.68 1.15,0.91 0.47,0.22 1,0.34 1.62,0.34 0.57,0.01 1.13,-0.08 1.69,-0.28 0.57,-0.19 1.13,-0.5 1.68,-0.93 0.13,-0.1 0.26,-0.17 0.4,-0.22 0.15,-0.04 0.29,-0.07 0.43,-0.07 0.14,0 0.27,0.03 0.4,0.07 0.12,0.05 0.22,0.12 0.3,0.21 0.08,0.1 0.13,0.22 0.16,0.35 0.02,0.12 0.02,0.25 -0.01,0.39 -0.04,0.13 -0.09,0.26 -0.17,0.39 -0.08,0.13 -0.18,0.24 -0.3,0.33 -0.8,0.62 -1.63,1.08 -2.5,1.39 -0.86,0.3 -1.72,0.45 -2.57,0.45 -0.59,0 -1.14,-0.07 -1.66,-0.22 -0.51,-0.15 -0.98,-0.36 -1.39,-0.63 -0.41,-0.27 -0.77,-0.59 -1.08,-0.97 -0.31,-0.38 -0.54,-0.8 -0.72,-1.26 -0.17,-0.47 -0.27,-0.96 -0.3,-1.49 -0.03,-0.52 0.02,-1.07 0.15,-1.65 0.12,-0.54 0.32,-1.07 0.59,-1.59 0.27,-0.53 0.59,-1.02 0.96,-1.48 0.38,-0.46 0.81,-0.88 1.28,-1.27 0.48,-0.39 0.99,-0.72 1.53,-1 0.55,-0.28 1.12,-0.5 1.73,-0.66 0.6,-0.15 1.21,-0.23 1.84,-0.23 0.84,0 1.62,0.15 2.35,0.46 0.72,0.3 1.33,0.76 1.83,1.37z"/>
   <path class="fil0" d="M402.59 113.29l6.77 0 0.94 -4.07c0.03,-0.14 0.09,-0.28 0.18,-0.4 0.08,-0.13 0.19,-0.24 0.31,-0.33 0.12,-0.09 0.25,-0.16 0.4,-0.21 0.14,-0.06 0.29,-0.09 0.45,-0.09 0.14,0 0.28,0.03 0.4,0.09 0.12,0.05 0.21,0.12 0.29,0.21 0.07,0.09 0.12,0.2 0.15,0.33 0.02,0.12 0.02,0.26 -0.01,0.4l-2.36 10.19c-0.04,0.15 -0.1,0.28 -0.18,0.41 -0.09,0.12 -0.19,0.23 -0.31,0.32 -0.12,0.09 -0.25,0.16 -0.4,0.21 -0.14,0.06 -0.29,0.09 -0.44,0.09 -0.15,0 -0.29,-0.03 -0.4,-0.09 -0.12,-0.05 -0.22,-0.12 -0.29,-0.21 -0.08,-0.09 -0.13,-0.2 -0.16,-0.32 -0.03,-0.13 -0.02,-0.26 0.01,-0.41l0.93 -4.03 -6.76 0 -0.94 4.03c-0.03,0.15 -0.09,0.28 -0.17,0.41 -0.09,0.12 -0.19,0.23 -0.31,0.32 -0.12,0.09 -0.26,0.16 -0.4,0.21 -0.15,0.06 -0.3,0.09 -0.44,0.09 -0.16,0 -0.29,-0.03 -0.41,-0.09 -0.11,-0.05 -0.21,-0.12 -0.29,-0.21 -0.07,-0.09 -0.13,-0.2 -0.15,-0.32 -0.03,-0.13 -0.03,-0.26 0.01,-0.41l2.36 -10.19c0.03,-0.14 0.09,-0.28 0.17,-0.4 0.09,-0.13 0.19,-0.24 0.31,-0.33 0.12,-0.09 0.25,-0.16 0.39,-0.21 0.14,-0.06 0.29,-0.09 0.44,-0.09 0.15,0 0.28,0.03 0.4,0.09 0.12,0.05 0.22,0.12 0.3,0.21 0.08,0.09 0.13,0.2 0.16,0.33 0.03,0.12 0.03,0.26 -0.01,0.4l-0.94 4.07z"/>
   <path class="fil0" d="M417.99 114.18l3.7 -5.35c0.09,-0.13 0.2,-0.24 0.33,-0.34 0.13,-0.09 0.26,-0.17 0.4,-0.22 0.15,-0.05 0.29,-0.08 0.43,-0.08 0.15,0 0.28,0.02 0.41,0.08 0.13,0.06 0.23,0.14 0.3,0.24 0.07,0.1 0.12,0.21 0.14,0.34 0.03,0.12 0.03,0.25 0,0.39 -0.03,0.14 -0.09,0.27 -0.18,0.41l-4.88 6.85 -0.36 0.53c-0.44,0.63 -0.85,1.16 -1.23,1.6 -0.37,0.44 -0.75,0.8 -1.12,1.09 -0.38,0.29 -0.77,0.5 -1.18,0.63 -0.41,0.14 -0.87,0.22 -1.37,0.23 -0.02,0 -0.04,0 -0.06,0 -0.02,0.01 -0.03,0.01 -0.05,0.01 -0.3,0 -0.54,-0.08 -0.71,-0.25 -0.18,-0.17 -0.24,-0.39 -0.17,-0.68 0.03,-0.15 0.1,-0.29 0.18,-0.42 0.09,-0.13 0.19,-0.25 0.32,-0.34 0.12,-0.1 0.25,-0.17 0.4,-0.23 0.14,-0.05 0.29,-0.08 0.45,-0.08 0.3,0.01 0.56,-0.02 0.77,-0.09 0.22,-0.06 0.41,-0.16 0.59,-0.3 0.17,-0.13 0.34,-0.31 0.5,-0.51 0.16,-0.21 0.35,-0.45 0.55,-0.74l0.15 -0.23 -1.74 -7.07c-0.03,-0.14 -0.03,-0.27 0.01,-0.41 0.03,-0.14 0.09,-0.27 0.17,-0.39 0.08,-0.13 0.19,-0.24 0.31,-0.34 0.13,-0.1 0.27,-0.18 0.43,-0.24 0.15,-0.06 0.29,-0.08 0.43,-0.08 0.14,0 0.27,0.03 0.39,0.08 0.12,0.05 0.22,0.13 0.3,0.22 0.08,0.1 0.13,0.21 0.16,0.34l1.23 5.35z"/>
   <path class="fil0" d="M435.68 110.18c-0.6,0 -1.18,0.11 -1.75,0.33 -0.58,0.22 -1.1,0.52 -1.59,0.9 -0.48,0.38 -0.89,0.82 -1.24,1.33 -0.34,0.5 -0.58,1.03 -0.71,1.59 -0.13,0.57 -0.14,1.11 -0.03,1.61 0.11,0.5 0.32,0.94 0.63,1.32 0.31,0.38 0.7,0.67 1.17,0.89 0.47,0.22 1,0.32 1.6,0.32 0.59,0 1.17,-0.1 1.75,-0.32 0.57,-0.22 1.09,-0.51 1.57,-0.89 0.48,-0.38 0.89,-0.82 1.23,-1.32 0.34,-0.5 0.58,-1.04 0.71,-1.61 0.13,-0.56 0.14,-1.09 0.03,-1.59 -0.11,-0.51 -0.31,-0.95 -0.62,-1.33 -0.3,-0.38 -0.68,-0.68 -1.16,-0.9 -0.47,-0.22 -1,-0.33 -1.59,-0.33zm0.48 -2.07c0.6,0 1.16,0.07 1.67,0.22 0.52,0.15 0.99,0.36 1.41,0.63 0.42,0.27 0.78,0.59 1.08,0.97 0.31,0.38 0.55,0.8 0.72,1.26 0.17,0.46 0.27,0.96 0.3,1.49 0.04,0.53 -0.02,1.08 -0.15,1.65 -0.2,0.87 -0.55,1.67 -1.07,2.42 -0.51,0.76 -1.13,1.41 -1.84,1.98 -0.71,0.56 -1.5,1.01 -2.36,1.33 -0.86,0.33 -1.74,0.49 -2.64,0.49 -0.82,0 -1.55,-0.13 -2.21,-0.39 -0.66,-0.26 -1.22,-0.62 -1.67,-1.09 -0.46,-0.46 -0.81,-1.01 -1.04,-1.64 -0.24,-0.63 -0.34,-1.31 -0.29,-2.04l-1.53 0 -0.93 3.99c-0.03,0.15 -0.09,0.29 -0.17,0.42 -0.09,0.13 -0.19,0.24 -0.3,0.34 -0.12,0.09 -0.25,0.17 -0.38,0.23 -0.14,0.06 -0.29,0.08 -0.45,0.08 -0.15,0 -0.29,-0.02 -0.41,-0.08 -0.12,-0.06 -0.22,-0.14 -0.3,-0.23 -0.08,-0.1 -0.13,-0.21 -0.16,-0.34 -0.03,-0.13 -0.03,-0.27 0,-0.42l2.34 -10.1c0.04,-0.14 0.1,-0.28 0.19,-0.41 0.09,-0.13 0.2,-0.25 0.32,-0.34 0.12,-0.1 0.25,-0.17 0.4,-0.23 0.15,-0.06 0.31,-0.09 0.46,-0.09 0.15,0 0.29,0.03 0.4,0.09 0.11,0.06 0.2,0.13 0.28,0.23 0.07,0.09 0.11,0.21 0.14,0.34 0.02,0.13 0.01,0.27 -0.02,0.41l-0.93 4.03 1.53 0c0.29,-0.73 0.7,-1.42 1.23,-2.05 0.52,-0.64 1.12,-1.19 1.79,-1.65 0.68,-0.47 1.41,-0.84 2.19,-1.11 0.79,-0.26 1.59,-0.39 2.4,-0.39z"/>
   <path class="fil0" d="M452.22 120.44c-0.28,-0.03 -0.49,-0.14 -0.64,-0.32 -0.15,-0.19 -0.19,-0.43 -0.12,-0.72l2.35 -10.16c0.03,-0.15 0.1,-0.29 0.18,-0.41 0.09,-0.13 0.19,-0.24 0.31,-0.33 0.12,-0.1 0.25,-0.17 0.39,-0.23 0.15,-0.05 0.3,-0.08 0.45,-0.08l7 0c0.14,0 0.28,0.03 0.4,0.08 0.12,0.06 0.22,0.13 0.29,0.23 0.07,0.09 0.12,0.2 0.15,0.33 0.02,0.12 0.02,0.26 -0.01,0.41 -0.04,0.14 -0.1,0.28 -0.18,0.4 -0.09,0.13 -0.19,0.24 -0.3,0.33 -0.12,0.09 -0.25,0.16 -0.39,0.22 -0.15,0.05 -0.3,0.08 -0.44,0.08l-5.92 0 -0.66 2.85 4.63 0c0.15,-0.01 0.29,0.02 0.41,0.08 0.12,0.05 0.22,0.13 0.29,0.23 0.08,0.09 0.13,0.2 0.15,0.33 0.03,0.14 0.03,0.27 -0.01,0.41 -0.03,0.15 -0.09,0.28 -0.17,0.4 -0.09,0.12 -0.19,0.23 -0.31,0.32 -0.12,0.1 -0.25,0.17 -0.39,0.22 -0.15,0.05 -0.3,0.08 -0.45,0.08l-4.63 0 -0.73 3.17 5.91 0c0.15,0 0.28,0.03 0.4,0.09 0.12,0.05 0.22,0.13 0.29,0.23 0.07,0.09 0.12,0.2 0.15,0.33 0.02,0.13 0.02,0.26 -0.01,0.4 -0.03,0.15 -0.09,0.28 -0.18,0.41 -0.08,0.12 -0.19,0.23 -0.3,0.32 -0.11,0.1 -0.24,0.17 -0.39,0.22 -0.15,0.06 -0.29,0.08 -0.44,0.08l-7.08 0z"/>
   <path class="fil0" d="M466.8 116.94c-0.13,0.54 -0.29,1.01 -0.49,1.42l4.52 0 1.87 -8.09 -4.36 0 -1.54 6.67zm6.65 5.16c-0.04,0.15 -0.1,0.28 -0.18,0.41 -0.09,0.12 -0.19,0.23 -0.31,0.33 -0.12,0.09 -0.26,0.17 -0.4,0.22 -0.15,0.06 -0.3,0.08 -0.44,0.08 -0.16,0 -0.29,-0.02 -0.41,-0.08 -0.12,-0.05 -0.22,-0.13 -0.3,-0.22 -0.07,-0.1 -0.12,-0.21 -0.15,-0.33 -0.03,-0.13 -0.02,-0.26 0.01,-0.41l0.39 -1.66 -7.8 0 -0.38 1.66c-0.04,0.15 -0.1,0.28 -0.18,0.41 -0.09,0.12 -0.19,0.23 -0.3,0.33 -0.12,0.09 -0.25,0.17 -0.4,0.22 -0.14,0.06 -0.29,0.08 -0.43,0.08 -0.16,0 -0.3,-0.02 -0.42,-0.08 -0.12,-0.05 -0.22,-0.13 -0.29,-0.22 -0.08,-0.1 -0.13,-0.21 -0.16,-0.33 -0.03,-0.13 -0.03,-0.26 0.01,-0.41l0.63 -2.74c0.04,-0.19 0.13,-0.36 0.26,-0.51 0.13,-0.15 0.29,-0.27 0.47,-0.36 0.21,-0.1 0.41,-0.15 0.63,-0.15l0.06 0c0.14,0 0.29,-0.04 0.42,-0.14 0.14,-0.09 0.27,-0.21 0.38,-0.35 0.12,-0.14 0.22,-0.29 0.3,-0.46 0.08,-0.16 0.14,-0.32 0.17,-0.47l1.78 -7.66c0.06,-0.26 0.19,-0.48 0.41,-0.67 0.21,-0.2 0.45,-0.32 0.72,-0.37 0,0 0.01,0 0.01,0 0.01,-0.01 0.01,-0.01 0.02,-0.01 0.03,0 0.06,-0.01 0.09,-0.01 0.02,0 0.05,-0.01 0.07,-0.01l6.54 0c0.15,0 0.28,0.03 0.4,0.08 0.12,0.06 0.22,0.13 0.3,0.23 0.08,0.1 0.13,0.21 0.16,0.33 0.02,0.12 0.02,0.26 -0.01,0.41l-2.12 9.12c0.04,-0.01 0.08,-0.01 0.11,-0.01 0.04,-0.01 0.08,-0.01 0.12,-0.01 0.15,0 0.28,0.03 0.4,0.08 0.12,0.06 0.22,0.13 0.3,0.23 0.08,0.09 0.13,0.2 0.15,0.33 0.03,0.13 0.03,0.26 0,0.4l-0.63 2.72z"/>
   <path class="fil0" d="M481.21 114.18l3.69 -5.35c0.09,-0.13 0.2,-0.24 0.33,-0.34 0.13,-0.09 0.27,-0.17 0.41,-0.22 0.14,-0.05 0.28,-0.08 0.43,-0.08 0.14,0 0.28,0.02 0.4,0.08 0.13,0.06 0.23,0.14 0.3,0.24 0.07,0.1 0.12,0.21 0.15,0.34 0.02,0.12 0.02,0.25 -0.01,0.39 -0.03,0.14 -0.09,0.27 -0.18,0.41l-4.87 6.85 -0.36 0.53c-0.45,0.63 -0.86,1.16 -1.23,1.6 -0.38,0.44 -0.75,0.8 -1.13,1.09 -0.37,0.29 -0.77,0.5 -1.17,0.63 -0.41,0.14 -0.87,0.22 -1.38,0.23 -0.01,0 -0.03,0 -0.05,0 -0.02,0.01 -0.04,0.01 -0.05,0.01 -0.3,0 -0.54,-0.08 -0.72,-0.25 -0.18,-0.17 -0.24,-0.39 -0.17,-0.68 0.04,-0.15 0.1,-0.29 0.19,-0.42 0.08,-0.13 0.19,-0.25 0.31,-0.34 0.12,-0.1 0.25,-0.17 0.4,-0.23 0.15,-0.05 0.3,-0.08 0.45,-0.08 0.3,0.01 0.56,-0.02 0.78,-0.09 0.21,-0.06 0.41,-0.16 0.58,-0.3 0.18,-0.13 0.34,-0.31 0.51,-0.51 0.16,-0.21 0.34,-0.45 0.55,-0.74l0.14 -0.23 -1.74 -7.07c-0.03,-0.14 -0.03,-0.27 0.01,-0.41 0.03,-0.14 0.09,-0.27 0.17,-0.39 0.09,-0.13 0.19,-0.24 0.32,-0.34 0.13,-0.1 0.26,-0.18 0.42,-0.24 0.15,-0.06 0.3,-0.08 0.44,-0.08 0.14,0 0.26,0.03 0.38,0.08 0.12,0.05 0.22,0.13 0.3,0.22 0.08,0.1 0.14,0.21 0.17,0.34l1.23 5.35z"/>
   <path class="fil0" d="M429.98 43.37l0.64 -3.56c0.33,-1.85 -1.6,-3.64 -3.92,-3.64l-24.16 0c-1.64,0 -2.95,0.92 -3.18,2.22l-0.63 3.56c-0.34,1.85 1.59,3.64 3.91,3.64 2.33,0 4.26,1.8 3.91,3.66l-8.51 45.04c-0.35,1.86 1.58,3.66 3.9,3.66l5.8 0c1.62,0 2.93,-0.9 3.17,-2.19l9.07 -47.98c0.24,-1.29 1.55,-2.19 3.17,-2.19l3.65 0c1.64,0 2.95,-0.92 3.18,-2.22zm67.68 -7.2l-24.17 0c-1.64,0 -2.95,0.92 -3.18,2.22l-0.63 3.56c-0.33,1.85 1.59,3.64 3.91,3.64 2.33,0 4.26,1.8 3.91,3.66l-8.51 45.04c-0.35,1.86 1.58,3.66 3.91,3.66l5.79 0c1.63,0 2.93,-0.9 3.18,-2.19l9.06 -47.98c0.25,-1.29 1.55,-2.19 3.17,-2.19l3.66 0c1.63,0 2.94,-0.92 3.17,-2.22l0.64 -3.56c0.33,-1.85 -1.6,-3.64 -3.91,-3.64zm-35.24 0l-5.01 0c-1.8,0 -3.25,1.01 -3.51,2.44l-2.44 13.28 -6.74 11.02c-0.51,0.84 -2.13,0.3 -1.96,-0.65l4.12 -22.03c0.39,-2.06 -1.74,-4.06 -4.32,-4.06l-5.01 0c-1.8,0 -3.25,1 -3.52,2.44l-10.38 55.29c-0.38,2.06 1.75,4.05 4.33,4.05l5 0c1.81,0 3.26,-1.01 3.52,-2.44l1.24 -6.87 6.58 -10.22c0.53,-0.82 2.13,-0.27 1.95,0.66l-2.76 14.83c-0.38,2.05 1.75,4.04 4.32,4.04l5.02 0c1.8,0 3.24,-1 3.51,-2.43l10.38 -55.3c0.39,-2.05 -1.74,-4.05 -4.32,-4.05zm-68.95 0l-17.39 0c-1.62,0 -2.93,0.91 -3.17,2.2l-10.5 55.92c-0.35,1.86 1.58,3.66 3.91,3.66l17.36 0c1.63,0 2.94,-0.91 3.18,-2.22l0.63 -3.55c0.33,-1.85 -1.59,-3.64 -3.91,-3.64l-2.38 0c-2.33,0 -4.26,-1.81 -3.9,-3.67l2.01 -10.42c0.25,-1.29 1.55,-2.19 3.17,-2.19l6.06 0c1.63,0 2.94,-0.91 3.18,-2.22l0.63 -3.55c0.33,-1.85 -1.59,-3.64 -3.91,-3.64l-2.38 0c-2.33,0 -4.26,-1.81 -3.91,-3.67l2.19 -11.4c0.25,-1.29 1.55,-2.19 3.18,-2.19l6.05 0c1.64,0 2.95,-0.92 3.18,-2.22l0.64 -3.56c0.32,-1.85 -1.6,-3.64 -3.92,-3.64zm-31.45 0l-26.95 0c-1.63,0 -2.93,0.91 -3.18,2.2l-10.5 55.92c-0.35,1.86 1.58,3.66 3.91,3.66l5.8 0c1.62,0 2.93,-0.9 3.17,-2.19l9.07 -47.98c0.24,-1.29 1.55,-2.19 3.17,-2.19l0.64 0c2.33,0 4.26,1.8 3.91,3.66l-8.51 45.04c-0.35,1.86 1.58,3.66 3.91,3.66l5.8 0c1.62,0 2.93,-0.9 3.17,-2.2l10.5 -55.92c0.35,-1.85 -1.58,-3.66 -3.91,-3.66zm-92.25 11.66l-3.11 16.36c-0.24,1.29 -1.55,2.19 -3.17,2.19l-0.04 0c-2.33,0 -4.26,-1.81 -3.91,-3.67l2.69 -14.2c0.27,-1.64 1.26,-2.35 3.32,-2.35l2.59 0c0.85,0 1.31,0.14 1.45,0.28 0.17,0.15 0.3,0.61 0.18,1.39zm11 -8.8c-2.01,-1.9 -5.17,-2.86 -9.39,-2.86l-7.19 0c-8.43,0 -13.46,3.76 -14.94,11.17l-8.79 46.95c-0.35,1.86 1.58,3.66 3.91,3.66l5.8 0c1.62,0 2.93,-0.9 3.17,-2.19l3.25 -17.2c0.24,-1.29 1.55,-2.19 3.17,-2.19l0.05 0c2.33,0 4.26,1.8 3.9,3.66l-2.69 14.26c-0.35,1.86 1.58,3.66 3.91,3.66l5.8 0c1.62,0 2.93,-0.9 3.17,-2.2l8.92 -47.69c0.8,-3.95 0.11,-6.99 -2.05,-9.03zm40.24 -2.86l-26.96 0c-1.62,0 -2.93,0.91 -3.17,2.2l-10.5 55.92c-0.35,1.86 1.58,3.66 3.91,3.66l5.8 0c1.62,0 2.92,-0.9 3.17,-2.19l9.06 -47.98c0.25,-1.29 1.55,-2.19 3.18,-2.19l0.64 0c2.33,0 4.26,1.8 3.91,3.66l-8.51 45.04c-0.35,1.86 1.57,3.66 3.91,3.66l5.79 0c1.63,0 2.93,-0.9 3.18,-2.2l10.49 -55.92c0.35,-1.85 -1.58,-3.66 -3.9,-3.66z"/>
   <path class="fil0" d="M124.94 125.37l-33.38 1.01 64.24 11.03c-1.72,-2.79 -30.34,-8.9 -30.86,-12.04z"/>
   <path class="fil0" d="M103.48 101.91l-53.31 1.61 59.35 6.9c-1.72,-2.79 -5.51,-5.37 -6.04,-8.51z"/>
   <path class="fil0" d="M92.93 69.26l-92.92 3.38 95.18 9.36c-2.7,-3.79 -1.45,-8.47 -2.26,-12.74z"/>
   <path class="fil0" d="M129.22 13.22l-53.32 -1.61 64.24 -6.9c-1.72,2.79 -10.4,5.36 -10.92,8.51z"/>
   <path class="fil0" d="M98.21 45.83l-68.79 -1.83 74.05 -6.21c-2.52,2.79 -4.5,4.9 -5.26,8.04z"/>
  </g>
 </g>
</svg>
