<?xml version="1.0" encoding="UTF-8"?>
<!DOCTYPE svg PUBLIC "-//W3C//DTD SVG 1.1//EN" "http://www.w3.org/Graphics/SVG/1.1/DTD/svg11.dtd">
<!-- Creator: CorelDRAW 2019 (64-Bit) -->
<svg xmlns="http://www.w3.org/2000/svg" xml:space="preserve" width="200px" height="170px" version="1.1" style="shape-rendering:geometricPrecision; text-rendering:geometricPrecision; image-rendering:optimizeQuality; fill-rule:evenodd; clip-rule:evenodd"
viewBox="0 0 200 169.63"
 xmlns:xlink="http://www.w3.org/1999/xlink"
 xmlns:xodm="http://www.corel.com/coreldraw/odm/2003">
 <defs>
  <style type="text/css">
   <![CDATA[
    .fil0 {fill:#ED1C24;fill-rule:nonzero}
   ]]>
  </style>
 </defs>
 <g id="Слой_x0020_1">
  <metadata id="CorelCorpID_0Corel-Layer"/>
  <g id="_2851455904016">
   <path class="fil0" d="M14.99 165.33c-0.09,0.39 -0.21,0.72 -0.35,1.01l3.21 0 1.33 -5.74 -3.1 0 -1.09 4.73zm4.72 3.67c-0.03,0.1 -0.07,0.2 -0.13,0.28 -0.06,0.09 -0.13,0.17 -0.22,0.24 -0.09,0.07 -0.18,0.12 -0.29,0.16 -0.1,0.04 -0.2,0.06 -0.31,0.06 -0.11,0 -0.2,-0.02 -0.29,-0.06 -0.09,-0.04 -0.15,-0.09 -0.21,-0.16 -0.05,-0.07 -0.09,-0.15 -0.11,-0.24 -0.02,-0.08 -0.01,-0.18 0.01,-0.28l0.27 -1.18 -5.53 0 -0.27 1.18c-0.03,0.1 -0.07,0.2 -0.13,0.28 -0.06,0.09 -0.13,0.17 -0.21,0.24 -0.09,0.07 -0.18,0.12 -0.28,0.16 -0.1,0.04 -0.21,0.06 -0.31,0.06 -0.11,0 -0.21,-0.02 -0.29,-0.06 -0.09,-0.04 -0.16,-0.09 -0.22,-0.16 -0.05,-0.07 -0.09,-0.15 -0.11,-0.24 -0.02,-0.08 -0.02,-0.18 0.01,-0.28l0.45 -1.95c0.03,-0.13 0.09,-0.25 0.19,-0.36 0.09,-0.1 0.2,-0.19 0.33,-0.25 0.14,-0.08 0.29,-0.11 0.44,-0.11l0.04 0c0.11,0 0.21,-0.03 0.31,-0.1 0.09,-0.07 0.18,-0.15 0.27,-0.25 0.08,-0.1 0.15,-0.21 0.21,-0.32 0.05,-0.12 0.1,-0.23 0.12,-0.34l1.26 -5.43c0.04,-0.19 0.14,-0.35 0.29,-0.49 0.15,-0.13 0.32,-0.22 0.51,-0.25 0.01,0 0.01,-0.01 0.01,-0.01 0.01,0 0.01,0 0.01,0 0.03,-0.01 0.05,-0.01 0.07,-0.01 0.01,0 0.03,0 0.05,0l4.64 0c0.1,0 0.2,0.01 0.28,0.05 0.09,0.04 0.16,0.1 0.22,0.16 0.05,0.07 0.09,0.15 0.11,0.24 0.02,0.08 0.02,0.18 -0.01,0.29l-1.5 6.47c0.03,0 0.05,-0.01 0.08,-0.01 0.03,0 0.05,0 0.08,0 0.11,0 0.2,0.02 0.29,0.06 0.08,0.03 0.15,0.09 0.21,0.16 0.05,0.06 0.09,0.14 0.11,0.23 0.02,0.09 0.02,0.19 -0.01,0.29l-0.44 1.93z"/>
   <path class="fil0" d="M27.35 160.54c-0.42,0 -0.84,0.07 -1.25,0.23 -0.41,0.15 -0.78,0.36 -1.12,0.63 -0.34,0.27 -0.63,0.58 -0.87,0.94 -0.25,0.35 -0.41,0.74 -0.51,1.14 -0.1,0.42 -0.1,0.8 -0.03,1.16 0.08,0.36 0.23,0.67 0.44,0.93 0.22,0.27 0.5,0.47 0.84,0.63 0.33,0.15 0.72,0.22 1.14,0.22 0.43,0 0.84,-0.07 1.25,-0.22 0.41,-0.16 0.79,-0.36 1.13,-0.63 0.34,-0.26 0.63,-0.57 0.87,-0.93 0.25,-0.36 0.41,-0.74 0.51,-1.16 0.09,-0.4 0.1,-0.79 0.02,-1.14 -0.07,-0.36 -0.22,-0.67 -0.44,-0.94 -0.22,-0.27 -0.49,-0.48 -0.83,-0.63 -0.34,-0.16 -0.72,-0.23 -1.15,-0.23zm0.34 -1.48c0.42,0 0.82,0.06 1.19,0.16 0.37,0.11 0.7,0.26 1,0.45 0.3,0.19 0.56,0.42 0.77,0.69 0.22,0.27 0.39,0.57 0.52,0.89 0.13,0.33 0.2,0.68 0.22,1.06 0.03,0.37 -0.01,0.77 -0.1,1.17 -0.14,0.62 -0.4,1.19 -0.76,1.72 -0.37,0.54 -0.81,1 -1.32,1.4 -0.51,0.4 -1.08,0.72 -1.69,0.95 -0.61,0.23 -1.24,0.35 -1.88,0.35 -0.42,0 -0.82,-0.06 -1.19,-0.16 -0.37,-0.1 -0.71,-0.25 -1,-0.44 -0.3,-0.2 -0.55,-0.43 -0.77,-0.7 -0.22,-0.27 -0.39,-0.56 -0.51,-0.89 -0.12,-0.33 -0.2,-0.68 -0.22,-1.05 -0.02,-0.38 0.02,-0.77 0.11,-1.18 0.1,-0.4 0.24,-0.8 0.44,-1.17 0.19,-0.38 0.43,-0.73 0.7,-1.06 0.28,-0.32 0.58,-0.62 0.93,-0.89 0.34,-0.27 0.7,-0.5 1.08,-0.69 0.39,-0.19 0.79,-0.34 1.21,-0.45 0.42,-0.1 0.84,-0.16 1.27,-0.16z"/>
   <path class="fil0" d="M41.16 160.37c0.12,0.14 0.15,0.31 0.11,0.51 -0.05,0.2 -0.16,0.37 -0.34,0.51 -0.09,0.07 -0.19,0.13 -0.29,0.17 -0.11,0.03 -0.21,0.05 -0.31,0.05 -0.1,0 -0.19,-0.02 -0.28,-0.05 -0.08,-0.03 -0.15,-0.09 -0.21,-0.15 -0.24,-0.3 -0.54,-0.52 -0.88,-0.66 -0.34,-0.14 -0.71,-0.21 -1.12,-0.21 -0.41,0 -0.82,0.07 -1.23,0.23 -0.4,0.15 -0.77,0.35 -1.11,0.62 -0.34,0.26 -0.64,0.58 -0.88,0.93 -0.25,0.36 -0.42,0.75 -0.51,1.16 -0.09,0.39 -0.1,0.77 -0.03,1.12 0.07,0.36 0.21,0.67 0.42,0.94 0.21,0.27 0.48,0.48 0.81,0.64 0.33,0.16 0.71,0.25 1.15,0.25 0.4,0 0.81,-0.06 1.2,-0.2 0.4,-0.14 0.8,-0.36 1.2,-0.66 0.08,-0.07 0.18,-0.12 0.28,-0.15 0.1,-0.04 0.2,-0.06 0.3,-0.06 0.1,0 0.2,0.02 0.28,0.05 0.09,0.03 0.16,0.08 0.22,0.15 0.06,0.07 0.09,0.16 0.11,0.25 0.02,0.09 0.02,0.18 -0.01,0.27 -0.02,0.1 -0.06,0.19 -0.11,0.28 -0.06,0.09 -0.13,0.17 -0.22,0.24 -0.56,0.44 -1.15,0.77 -1.77,0.98 -0.61,0.22 -1.22,0.32 -1.83,0.32 -0.42,0 -0.81,-0.05 -1.17,-0.16 -0.37,-0.1 -0.7,-0.25 -0.99,-0.44 -0.3,-0.19 -0.55,-0.42 -0.77,-0.69 -0.21,-0.27 -0.38,-0.57 -0.51,-0.9 -0.12,-0.32 -0.19,-0.67 -0.21,-1.05 -0.03,-0.37 0.01,-0.76 0.1,-1.17 0.09,-0.38 0.23,-0.76 0.42,-1.13 0.19,-0.37 0.42,-0.72 0.69,-1.05 0.27,-0.32 0.57,-0.63 0.91,-0.9 0.33,-0.28 0.7,-0.51 1.08,-0.71 0.39,-0.2 0.8,-0.36 1.22,-0.47 0.43,-0.11 0.87,-0.17 1.31,-0.17 0.6,0 1.15,0.11 1.67,0.33 0.51,0.22 0.95,0.54 1.3,0.98z"/>
   <path class="fil0" d="M46.6 160.6l-1.5 6.49c-0.02,0.1 -0.07,0.2 -0.12,0.29 -0.07,0.09 -0.14,0.16 -0.22,0.22 -0.09,0.07 -0.19,0.12 -0.29,0.16 -0.1,0.04 -0.21,0.05 -0.31,0.05 -0.11,0 -0.2,-0.01 -0.29,-0.05 -0.08,-0.04 -0.15,-0.09 -0.2,-0.16 -0.06,-0.06 -0.09,-0.13 -0.11,-0.22 -0.02,-0.09 -0.02,-0.19 0,-0.29l1.51 -6.49 -2.13 0c-0.1,0 -0.2,-0.02 -0.28,-0.06 -0.09,-0.04 -0.16,-0.09 -0.21,-0.16 -0.05,-0.07 -0.09,-0.14 -0.11,-0.23 -0.02,-0.09 -0.01,-0.19 0.01,-0.29 0.02,-0.1 0.06,-0.2 0.13,-0.29 0.06,-0.09 0.13,-0.17 0.21,-0.23 0.09,-0.07 0.18,-0.12 0.28,-0.16 0.1,-0.04 0.21,-0.05 0.31,-0.05l5.79 0c0.1,0 0.2,0.01 0.28,0.05 0.09,0.04 0.16,0.09 0.21,0.16 0.06,0.07 0.09,0.15 0.11,0.24 0.02,0.09 0.02,0.19 0,0.29 -0.03,0.1 -0.07,0.2 -0.13,0.28 -0.06,0.09 -0.13,0.17 -0.22,0.23 -0.09,0.07 -0.18,0.12 -0.28,0.16 -0.11,0.04 -0.21,0.06 -0.31,0.06l-2.13 0z"/>
   <path class="fil0" d="M50.76 164.68l2.79 0 -0.65 -3.2 -2.14 3.2zm3.09 1.47l-4.05 0 -0.82 1.22c-0.06,0.1 -0.14,0.18 -0.23,0.25 -0.1,0.07 -0.19,0.12 -0.29,0.15 -0.1,0.03 -0.2,0.04 -0.31,0.04 -0.1,0 -0.2,-0.02 -0.29,-0.06 -0.1,-0.04 -0.17,-0.1 -0.22,-0.17 -0.05,-0.07 -0.08,-0.15 -0.09,-0.23 -0.01,-0.09 0,-0.18 0.03,-0.28 0.03,-0.1 0.08,-0.2 0.14,-0.29l4.92 -7.21c0.1,-0.14 0.22,-0.25 0.35,-0.33 0.14,-0.08 0.29,-0.11 0.45,-0.11 0.15,0 0.28,0.03 0.39,0.11 0.1,0.08 0.17,0.19 0.21,0.33l1.59 7.21c0.04,0.19 0.01,0.37 -0.09,0.56 -0.1,0.19 -0.26,0.32 -0.48,0.41 -0.1,0.04 -0.21,0.06 -0.32,0.06 -0.1,0 -0.2,-0.01 -0.28,-0.05 -0.09,-0.03 -0.16,-0.08 -0.22,-0.14 -0.06,-0.07 -0.11,-0.15 -0.13,-0.25l-0.26 -1.22z"/>
   <path class="fil0" d="M60.06 160.6l-0.46 1.98 2.43 0c0.14,0 0.28,-0.03 0.42,-0.09 0.13,-0.06 0.26,-0.13 0.37,-0.22 0.11,-0.09 0.21,-0.2 0.29,-0.31 0.08,-0.12 0.14,-0.25 0.17,-0.38 0.03,-0.13 0.03,-0.26 0,-0.38 -0.03,-0.11 -0.08,-0.22 -0.16,-0.31 -0.07,-0.09 -0.17,-0.16 -0.28,-0.21 -0.12,-0.06 -0.25,-0.08 -0.39,-0.08l-2.39 0zm-0.8 3.45l-0.53 2.29 2.53 0c0.17,0 0.34,-0.03 0.51,-0.1 0.16,-0.06 0.32,-0.15 0.46,-0.27 0.14,-0.11 0.27,-0.24 0.37,-0.38 0.1,-0.15 0.17,-0.3 0.21,-0.46 0.03,-0.16 0.03,-0.31 0,-0.44 -0.04,-0.13 -0.11,-0.25 -0.2,-0.34 -0.1,-0.09 -0.22,-0.17 -0.36,-0.22 -0.14,-0.05 -0.3,-0.08 -0.47,-0.08l-2.52 0zm-1.64 3.76c-0.11,0 -0.21,-0.01 -0.29,-0.05 -0.08,-0.04 -0.15,-0.09 -0.21,-0.16 -0.05,-0.06 -0.09,-0.13 -0.11,-0.22 -0.02,-0.09 -0.02,-0.19 0.01,-0.29l1.67 -7.24c0.03,-0.1 0.07,-0.2 0.13,-0.29 0.06,-0.08 0.13,-0.16 0.22,-0.23 0.08,-0.06 0.17,-0.11 0.27,-0.15 0.11,-0.04 0.21,-0.05 0.32,-0.05l3.25 0c0.35,0 0.67,0.06 0.94,0.19 0.28,0.12 0.5,0.29 0.68,0.51 0.18,0.22 0.3,0.47 0.36,0.77 0.06,0.29 0.05,0.6 -0.02,0.94 -0.08,0.31 -0.2,0.61 -0.38,0.89 -0.19,0.29 -0.41,0.54 -0.66,0.77 0.24,0.25 0.41,0.55 0.51,0.91 0.1,0.35 0.1,0.72 0.01,1.13 -0.08,0.36 -0.23,0.7 -0.45,1.01 -0.22,0.32 -0.48,0.59 -0.78,0.82 -0.3,0.23 -0.63,0.41 -1,0.54 -0.37,0.14 -0.74,0.2 -1.13,0.2l-3.34 0z"/>
   <path class="fil0" d="M73.09 161.83l-6.29 5.7c-0.1,0.09 -0.19,0.16 -0.29,0.21 -0.09,0.04 -0.19,0.07 -0.3,0.07l-0.02 0c-0.19,0.01 -0.35,-0.04 -0.46,-0.15 -0.07,-0.06 -0.12,-0.15 -0.15,-0.25 -0.03,-0.1 -0.03,-0.2 0,-0.32l1.68 -7.24c0.02,-0.1 0.06,-0.19 0.12,-0.28 0.06,-0.09 0.13,-0.17 0.21,-0.23 0.08,-0.07 0.18,-0.12 0.28,-0.16 0.1,-0.04 0.2,-0.05 0.31,-0.05 0.11,0 0.2,0.01 0.29,0.05 0.08,0.04 0.15,0.09 0.21,0.16 0.06,0.06 0.1,0.14 0.12,0.23 0.02,0.09 0.02,0.18 -0.01,0.28l-1.2 5.2 6.22 -5.65c0.1,-0.09 0.21,-0.16 0.32,-0.2 0.12,-0.05 0.24,-0.07 0.35,-0.07 0.13,0 0.23,0.02 0.32,0.06 0.08,0.05 0.14,0.11 0.18,0.19 0.06,0.06 0.09,0.13 0.11,0.22 0.02,0.09 0.01,0.18 -0.01,0.27l-1.67 7.22c-0.02,0.1 -0.07,0.2 -0.13,0.29 -0.06,0.09 -0.13,0.16 -0.22,0.22 -0.08,0.07 -0.18,0.12 -0.28,0.16 -0.1,0.04 -0.21,0.05 -0.31,0.05 -0.11,0 -0.2,-0.01 -0.29,-0.05 -0.08,-0.04 -0.15,-0.09 -0.2,-0.16 -0.06,-0.06 -0.1,-0.13 -0.11,-0.22 -0.02,-0.09 -0.02,-0.19 0,-0.29l1.22 -5.26z"/>
   <path class="fil0" d="M84.41 167.09c-0.02,0.1 -0.06,0.2 -0.12,0.29 -0.07,0.09 -0.14,0.16 -0.22,0.22 -0.09,0.07 -0.18,0.12 -0.29,0.16 -0.1,0.04 -0.2,0.05 -0.31,0.05 -0.1,0 -0.2,-0.01 -0.28,-0.05 -0.08,-0.04 -0.15,-0.09 -0.21,-0.16 -0.06,-0.06 -0.09,-0.13 -0.11,-0.22 -0.02,-0.09 -0.02,-0.19 0,-0.29l1.19 -5.13 -2.85 2.79c-0.05,0.06 -0.11,0.12 -0.17,0.17 -0.11,0.08 -0.23,0.14 -0.34,0.18 -0.28,0.09 -0.5,0.03 -0.67,-0.18 -0.05,-0.06 -0.08,-0.12 -0.1,-0.19l-1.57 -2.77 -1.18 5.13c-0.03,0.1 -0.07,0.2 -0.13,0.29 -0.06,0.09 -0.13,0.16 -0.22,0.22 -0.08,0.07 -0.18,0.12 -0.28,0.16 -0.11,0.04 -0.21,0.05 -0.31,0.05 -0.11,0 -0.21,-0.01 -0.29,-0.05 -0.09,-0.04 -0.15,-0.09 -0.21,-0.16 -0.05,-0.06 -0.09,-0.13 -0.11,-0.22 -0.02,-0.09 -0.02,-0.19 0.01,-0.29l1.67 -7.24c0.05,-0.19 0.15,-0.35 0.3,-0.48 0.16,-0.14 0.34,-0.22 0.54,-0.24 0.13,-0.02 0.25,-0.01 0.37,0.03 0.11,0.03 0.2,0.1 0.25,0.2l2.16 3.85 3.91 -3.83c0.08,-0.07 0.16,-0.13 0.26,-0.17 0.1,-0.04 0.19,-0.07 0.29,-0.08 0.01,0 0.03,0 0.05,0 0.01,0 0.03,-0.01 0.04,-0.01 0.11,0 0.21,0.02 0.29,0.06 0.09,0.04 0.16,0.09 0.21,0.16 0.06,0.06 0.09,0.14 0.11,0.23 0.02,0.09 0.02,0.18 0,0.28l-1.68 7.24z"/>
   <path class="fil0" d="M95.88 160.6l-0.46 1.98 2.43 0c0.14,0 0.28,-0.03 0.42,-0.09 0.13,-0.06 0.26,-0.13 0.37,-0.22 0.11,-0.09 0.21,-0.2 0.29,-0.31 0.08,-0.12 0.14,-0.25 0.17,-0.38 0.03,-0.13 0.03,-0.26 0,-0.38 -0.03,-0.11 -0.08,-0.22 -0.16,-0.31 -0.07,-0.09 -0.17,-0.16 -0.28,-0.21 -0.12,-0.06 -0.25,-0.08 -0.39,-0.08l-2.39 0zm-0.8 3.45l-0.53 2.29 2.53 0c0.17,0 0.34,-0.03 0.5,-0.1 0.17,-0.06 0.33,-0.15 0.47,-0.27 0.14,-0.11 0.27,-0.24 0.37,-0.38 0.1,-0.15 0.17,-0.3 0.21,-0.46 0.03,-0.16 0.03,-0.31 0,-0.44 -0.04,-0.13 -0.11,-0.25 -0.2,-0.34 -0.1,-0.09 -0.22,-0.17 -0.36,-0.22 -0.14,-0.05 -0.3,-0.08 -0.47,-0.08l-2.52 0zm-1.64 3.76c-0.11,0 -0.21,-0.01 -0.29,-0.05 -0.08,-0.04 -0.15,-0.09 -0.21,-0.16 -0.05,-0.06 -0.09,-0.13 -0.11,-0.22 -0.02,-0.09 -0.02,-0.19 0.01,-0.29l1.67 -7.24c0.03,-0.1 0.07,-0.2 0.13,-0.29 0.06,-0.08 0.13,-0.16 0.22,-0.23 0.08,-0.06 0.17,-0.11 0.27,-0.15 0.11,-0.04 0.21,-0.05 0.32,-0.05l3.25 0c0.35,0 0.67,0.06 0.94,0.19 0.28,0.12 0.5,0.29 0.68,0.51 0.18,0.22 0.3,0.47 0.36,0.77 0.06,0.29 0.05,0.6 -0.02,0.94 -0.08,0.31 -0.2,0.61 -0.38,0.89 -0.19,0.29 -0.41,0.54 -0.66,0.77 0.24,0.25 0.41,0.55 0.51,0.91 0.1,0.35 0.1,0.72 0.01,1.13 -0.08,0.36 -0.23,0.7 -0.45,1.01 -0.22,0.32 -0.48,0.59 -0.78,0.82 -0.3,0.23 -0.63,0.41 -1,0.54 -0.37,0.14 -0.74,0.2 -1.13,0.2l-3.34 0z"/>
   <path class="fil0" d="M104.02 162.43l0.5 0 3.39 -3.1c0.12,-0.08 0.23,-0.13 0.33,-0.16 0.08,-0.03 0.17,-0.04 0.27,-0.04l0.76 0c0.1,0 0.2,0.02 0.29,0.05 0.09,0.04 0.16,0.09 0.22,0.16 0.05,0.06 0.09,0.14 0.11,0.23 0.02,0.09 0.02,0.19 -0.01,0.3 -0.05,0.21 -0.16,0.38 -0.35,0.52 -0.18,0.14 -0.38,0.21 -0.61,0.21l-0.45 0 -3.07 2.8 2.41 3.14c0.06,0.08 0.1,0.16 0.12,0.25 0.02,0.1 0.01,0.19 -0.01,0.29 -0.03,0.1 -0.07,0.19 -0.13,0.28 -0.06,0.1 -0.14,0.18 -0.24,0.25 -0.19,0.15 -0.37,0.21 -0.56,0.19 -0.19,-0.01 -0.34,-0.09 -0.46,-0.24l-2.82 -3.66 -0.03 0 -0.73 3.15c-0.05,0.22 -0.16,0.4 -0.34,0.54 -0.17,0.15 -0.37,0.22 -0.59,0.22 -0.11,0 -0.21,-0.01 -0.29,-0.05 -0.09,-0.04 -0.16,-0.09 -0.21,-0.16 -0.06,-0.07 -0.1,-0.15 -0.12,-0.24 -0.02,-0.09 -0.02,-0.19 0,-0.29l1.67 -7.2c0.02,-0.1 0.07,-0.2 0.13,-0.29 0.07,-0.09 0.14,-0.17 0.23,-0.24 0.08,-0.07 0.18,-0.12 0.28,-0.16 0.11,-0.03 0.21,-0.05 0.32,-0.05 0.22,0 0.39,0.07 0.49,0.21 0.11,0.14 0.14,0.31 0.09,0.53l-0.59 2.56z"/>
   <path class="fil0" d="M113.84 163.38l2.63 -3.8c0.06,-0.1 0.14,-0.18 0.23,-0.24 0.09,-0.07 0.19,-0.12 0.29,-0.16 0.1,-0.04 0.2,-0.06 0.3,-0.06 0.1,0 0.2,0.02 0.29,0.06 0.09,0.04 0.16,0.1 0.21,0.17 0.06,0.07 0.09,0.15 0.11,0.24 0.01,0.09 0.01,0.18 -0.01,0.28 -0.02,0.1 -0.06,0.19 -0.12,0.29l-3.46 4.86 -0.26 0.38c-0.32,0.44 -0.61,0.82 -0.87,1.13 -0.27,0.31 -0.54,0.57 -0.8,0.78 -0.27,0.2 -0.55,0.35 -0.84,0.45 -0.29,0.09 -0.61,0.15 -0.98,0.16 -0.01,0 -0.02,0 -0.03,0 -0.02,0 -0.03,0 -0.04,0 -0.21,0 -0.38,-0.06 -0.51,-0.17 -0.12,-0.12 -0.16,-0.28 -0.12,-0.49 0.03,-0.1 0.07,-0.2 0.13,-0.3 0.07,-0.09 0.14,-0.17 0.23,-0.24 0.08,-0.07 0.18,-0.12 0.28,-0.16 0.11,-0.04 0.21,-0.06 0.32,-0.06 0.22,0.01 0.4,-0.01 0.55,-0.06 0.16,-0.04 0.29,-0.11 0.42,-0.21 0.12,-0.1 0.24,-0.22 0.36,-0.37 0.11,-0.14 0.24,-0.32 0.39,-0.52l0.1 -0.17 -1.24 -5.01c-0.02,-0.1 -0.02,-0.19 0.01,-0.29 0.02,-0.1 0.07,-0.19 0.12,-0.28 0.06,-0.09 0.14,-0.17 0.23,-0.24 0.09,-0.07 0.19,-0.13 0.3,-0.17 0.1,-0.04 0.21,-0.06 0.31,-0.06 0.09,0 0.19,0.02 0.27,0.06 0.08,0.04 0.15,0.09 0.21,0.16 0.06,0.06 0.1,0.14 0.12,0.24l0.87 3.8z"/>
   <path class="fil0" d="M126.63 160.37c0.11,0.14 0.15,0.31 0.1,0.51 -0.04,0.2 -0.16,0.37 -0.33,0.51 -0.1,0.07 -0.2,0.13 -0.3,0.17 -0.1,0.03 -0.2,0.05 -0.3,0.05 -0.1,0 -0.19,-0.02 -0.28,-0.05 -0.09,-0.03 -0.16,-0.09 -0.21,-0.15 -0.25,-0.3 -0.54,-0.52 -0.88,-0.66 -0.35,-0.14 -0.72,-0.21 -1.12,-0.21 -0.42,0 -0.83,0.07 -1.23,0.23 -0.41,0.15 -0.78,0.35 -1.12,0.62 -0.34,0.26 -0.63,0.58 -0.88,0.93 -0.24,0.36 -0.41,0.75 -0.51,1.16 -0.09,0.39 -0.1,0.77 -0.03,1.12 0.07,0.36 0.21,0.67 0.42,0.94 0.21,0.27 0.48,0.48 0.81,0.64 0.34,0.16 0.72,0.25 1.15,0.25 0.41,0 0.81,-0.06 1.21,-0.2 0.4,-0.14 0.8,-0.36 1.19,-0.66 0.09,-0.07 0.18,-0.12 0.29,-0.15 0.1,-0.04 0.2,-0.06 0.3,-0.06 0.1,0 0.19,0.02 0.28,0.05 0.08,0.03 0.16,0.08 0.21,0.15 0.06,0.07 0.1,0.16 0.12,0.25 0.01,0.09 0.01,0.18 -0.01,0.27 -0.02,0.1 -0.06,0.19 -0.12,0.28 -0.06,0.09 -0.13,0.17 -0.21,0.24 -0.57,0.44 -1.16,0.77 -1.77,0.98 -0.62,0.22 -1.23,0.32 -1.83,0.32 -0.42,0 -0.81,-0.05 -1.18,-0.16 -0.36,-0.1 -0.69,-0.25 -0.99,-0.44 -0.29,-0.19 -0.55,-0.42 -0.76,-0.69 -0.22,-0.27 -0.39,-0.57 -0.51,-0.9 -0.12,-0.32 -0.2,-0.67 -0.22,-1.05 -0.02,-0.37 0.01,-0.76 0.11,-1.17 0.09,-0.38 0.23,-0.76 0.42,-1.13 0.19,-0.37 0.42,-0.72 0.68,-1.05 0.27,-0.32 0.57,-0.63 0.91,-0.9 0.34,-0.28 0.7,-0.51 1.09,-0.71 0.38,-0.2 0.79,-0.36 1.22,-0.47 0.43,-0.11 0.86,-0.17 1.31,-0.17 0.59,0 1.15,0.11 1.66,0.33 0.52,0.22 0.95,0.54 1.31,0.98z"/>
   <path class="fil0" d="M129.63 162.74l4.8 0 0.67 -2.89c0.02,-0.1 0.07,-0.19 0.13,-0.28 0.06,-0.09 0.13,-0.17 0.22,-0.23 0.08,-0.07 0.18,-0.12 0.28,-0.16 0.1,-0.04 0.21,-0.05 0.32,-0.05 0.1,0 0.2,0.01 0.28,0.05 0.09,0.04 0.16,0.09 0.21,0.16 0.05,0.06 0.09,0.14 0.11,0.23 0.01,0.09 0.01,0.18 -0.01,0.28l-1.68 7.24c-0.02,0.1 -0.06,0.2 -0.12,0.29 -0.06,0.09 -0.14,0.16 -0.22,0.22 -0.09,0.07 -0.18,0.12 -0.29,0.16 -0.1,0.04 -0.2,0.06 -0.31,0.06 -0.11,0 -0.2,-0.02 -0.28,-0.06 -0.09,-0.04 -0.16,-0.09 -0.21,-0.16 -0.05,-0.06 -0.09,-0.13 -0.11,-0.22 -0.02,-0.09 -0.02,-0.19 0.01,-0.29l0.66 -2.87 -4.8 0 -0.67 2.87c-0.02,0.1 -0.06,0.2 -0.12,0.29 -0.06,0.09 -0.14,0.16 -0.22,0.22 -0.09,0.07 -0.18,0.12 -0.29,0.16 -0.1,0.04 -0.2,0.06 -0.31,0.06 -0.11,0 -0.2,-0.02 -0.29,-0.06 -0.08,-0.04 -0.15,-0.09 -0.2,-0.16 -0.06,-0.06 -0.09,-0.13 -0.11,-0.22 -0.02,-0.09 -0.02,-0.19 0,-0.29l1.68 -7.24c0.02,-0.1 0.06,-0.19 0.13,-0.28 0.06,-0.09 0.13,-0.17 0.21,-0.23 0.09,-0.07 0.18,-0.12 0.28,-0.16 0.1,-0.04 0.2,-0.05 0.31,-0.05 0.11,0 0.2,0.01 0.29,0.05 0.08,0.04 0.15,0.09 0.21,0.16 0.06,0.06 0.09,0.14 0.11,0.23 0.02,0.09 0.02,0.18 0,0.28l-0.67 2.89z"/>
   <path class="fil0" d="M140.56 163.38l2.63 -3.8c0.06,-0.1 0.14,-0.18 0.23,-0.24 0.09,-0.07 0.19,-0.12 0.29,-0.16 0.1,-0.04 0.2,-0.06 0.3,-0.06 0.1,0 0.2,0.02 0.29,0.06 0.09,0.04 0.16,0.1 0.21,0.17 0.05,0.07 0.09,0.15 0.11,0.24 0.01,0.09 0.01,0.18 -0.01,0.28 -0.02,0.1 -0.06,0.19 -0.13,0.29l-3.46 4.86 -0.25 0.38c-0.32,0.44 -0.61,0.82 -0.87,1.13 -0.27,0.31 -0.54,0.57 -0.8,0.78 -0.27,0.2 -0.55,0.35 -0.84,0.45 -0.29,0.09 -0.62,0.15 -0.98,0.16 -0.01,0 -0.02,0 -0.03,0 -0.02,0 -0.03,0 -0.04,0 -0.21,0 -0.38,-0.06 -0.51,-0.17 -0.12,-0.12 -0.16,-0.28 -0.12,-0.49 0.03,-0.1 0.07,-0.2 0.13,-0.3 0.07,-0.09 0.14,-0.17 0.23,-0.24 0.08,-0.07 0.18,-0.12 0.28,-0.16 0.1,-0.04 0.21,-0.06 0.32,-0.06 0.22,0.01 0.4,-0.01 0.55,-0.06 0.16,-0.04 0.29,-0.11 0.42,-0.21 0.12,-0.1 0.24,-0.22 0.36,-0.37 0.11,-0.14 0.24,-0.32 0.39,-0.52l0.1 -0.17 -1.24 -5.01c-0.02,-0.1 -0.02,-0.19 0.01,-0.29 0.02,-0.1 0.07,-0.19 0.12,-0.28 0.06,-0.09 0.14,-0.17 0.23,-0.24 0.09,-0.07 0.19,-0.13 0.29,-0.17 0.11,-0.04 0.22,-0.06 0.32,-0.06 0.09,0 0.19,0.02 0.27,0.06 0.08,0.04 0.15,0.09 0.21,0.16 0.06,0.06 0.1,0.14 0.12,0.24l0.87 3.8z"/>
   <path class="fil0" d="M153.11 160.54c-0.42,0 -0.83,0.08 -1.24,0.23 -0.41,0.16 -0.78,0.37 -1.12,0.64 -0.34,0.27 -0.64,0.58 -0.88,0.94 -0.25,0.36 -0.42,0.74 -0.51,1.13 -0.09,0.41 -0.1,0.79 -0.02,1.14 0.08,0.36 0.23,0.67 0.45,0.94 0.22,0.27 0.49,0.48 0.83,0.63 0.33,0.16 0.71,0.23 1.13,0.23 0.42,0 0.84,-0.07 1.24,-0.23 0.41,-0.15 0.78,-0.36 1.12,-0.63 0.34,-0.27 0.63,-0.58 0.87,-0.94 0.25,-0.35 0.42,-0.73 0.51,-1.14 0.09,-0.39 0.1,-0.77 0.02,-1.13 -0.08,-0.36 -0.22,-0.67 -0.44,-0.94 -0.21,-0.27 -0.49,-0.48 -0.82,-0.64 -0.34,-0.15 -0.71,-0.23 -1.14,-0.23zm0.35 -1.48c0.42,0 0.82,0.06 1.19,0.16 0.36,0.11 0.7,0.26 0.99,0.45 0.3,0.19 0.56,0.42 0.77,0.69 0.22,0.27 0.39,0.57 0.51,0.89 0.12,0.33 0.2,0.68 0.22,1.06 0.02,0.37 -0.02,0.77 -0.11,1.17 -0.14,0.62 -0.4,1.19 -0.76,1.72 -0.37,0.54 -0.8,1 -1.31,1.4 -0.5,0.4 -1.06,0.72 -1.67,0.95 -0.62,0.23 -1.24,0.35 -1.88,0.35 -0.58,0 -1.1,-0.1 -1.57,-0.28 -0.46,-0.19 -0.86,-0.44 -1.18,-0.77 -0.33,-0.33 -0.57,-0.72 -0.74,-1.17 -0.17,-0.44 -0.24,-0.93 -0.21,-1.45l-1.08 0 -0.66 2.84c-0.02,0.1 -0.07,0.2 -0.12,0.29 -0.06,0.1 -0.14,0.18 -0.22,0.24 -0.08,0.07 -0.17,0.13 -0.27,0.17 -0.1,0.04 -0.2,0.06 -0.31,0.06 -0.11,0 -0.21,-0.02 -0.3,-0.06 -0.08,-0.04 -0.15,-0.1 -0.21,-0.17 -0.05,-0.06 -0.09,-0.14 -0.11,-0.24 -0.02,-0.09 -0.02,-0.19 0,-0.29l1.66 -7.17c0.02,-0.1 0.07,-0.2 0.13,-0.3 0.07,-0.09 0.14,-0.17 0.23,-0.24 0.09,-0.07 0.18,-0.12 0.29,-0.16 0.11,-0.04 0.21,-0.06 0.32,-0.06 0.11,0 0.21,0.02 0.28,0.06 0.08,0.04 0.15,0.09 0.2,0.16 0.05,0.07 0.08,0.15 0.1,0.24 0.02,0.1 0.01,0.2 -0.01,0.3l-0.66 2.86 1.08 0c0.21,-0.52 0.5,-1.01 0.88,-1.46 0.37,-0.45 0.79,-0.84 1.27,-1.17 0.48,-0.34 1,-0.6 1.56,-0.78 0.55,-0.19 1.12,-0.29 1.7,-0.29z"/>
   <path class="fil0" d="M164.86 167.82c-0.2,-0.02 -0.35,-0.1 -0.46,-0.23 -0.1,-0.14 -0.13,-0.3 -0.08,-0.51l1.67 -7.21c0.02,-0.11 0.06,-0.21 0.13,-0.3 0.06,-0.09 0.13,-0.17 0.21,-0.23 0.09,-0.07 0.18,-0.12 0.28,-0.16 0.11,-0.04 0.21,-0.05 0.32,-0.05l4.97 0c0.1,0 0.2,0.01 0.28,0.05 0.09,0.04 0.16,0.09 0.21,0.16 0.05,0.06 0.08,0.14 0.1,0.23 0.02,0.09 0.02,0.19 0,0.3 -0.03,0.1 -0.07,0.2 -0.13,0.28 -0.06,0.09 -0.13,0.17 -0.22,0.23 -0.08,0.07 -0.17,0.12 -0.27,0.16 -0.11,0.04 -0.21,0.06 -0.31,0.06l-4.2 0 -0.47 2.02 3.28 0c0.11,0 0.21,0.02 0.3,0.06 0.08,0.04 0.15,0.09 0.2,0.16 0.05,0.07 0.09,0.15 0.11,0.24 0.02,0.09 0.02,0.19 -0.01,0.29 -0.02,0.1 -0.06,0.2 -0.12,0.28 -0.06,0.09 -0.14,0.17 -0.22,0.23 -0.08,0.07 -0.18,0.12 -0.28,0.15 -0.1,0.04 -0.21,0.06 -0.32,0.06l-3.28 0 -0.52 2.25 4.2 0c0.1,0 0.2,0.02 0.28,0.06 0.08,0.04 0.15,0.1 0.2,0.17 0.05,0.06 0.09,0.14 0.11,0.23 0.02,0.09 0.02,0.19 -0.01,0.29 -0.02,0.1 -0.06,0.2 -0.12,0.29 -0.07,0.09 -0.14,0.16 -0.22,0.23 -0.08,0.06 -0.17,0.12 -0.27,0.15 -0.11,0.04 -0.21,0.06 -0.31,0.06l-5.03 0z"/>
   <path class="fil0" d="M175.21 165.33c-0.09,0.39 -0.21,0.72 -0.35,1.01l3.2 0 1.33 -5.74 -3.09 0 -1.09 4.73zm4.72 3.67c-0.03,0.1 -0.07,0.2 -0.13,0.28 -0.06,0.09 -0.13,0.17 -0.22,0.24 -0.09,0.07 -0.18,0.12 -0.29,0.16 -0.1,0.04 -0.2,0.06 -0.31,0.06 -0.11,0 -0.2,-0.02 -0.29,-0.06 -0.09,-0.04 -0.15,-0.09 -0.21,-0.16 -0.05,-0.07 -0.09,-0.15 -0.11,-0.24 -0.02,-0.08 -0.01,-0.18 0.01,-0.28l0.27 -1.18 -5.53 0 -0.27 1.18c-0.03,0.1 -0.07,0.2 -0.13,0.28 -0.06,0.09 -0.13,0.17 -0.21,0.24 -0.09,0.07 -0.18,0.12 -0.28,0.16 -0.11,0.04 -0.21,0.06 -0.31,0.06 -0.11,0 -0.21,-0.02 -0.29,-0.06 -0.09,-0.04 -0.16,-0.09 -0.22,-0.16 -0.05,-0.07 -0.09,-0.15 -0.11,-0.24 -0.02,-0.08 -0.02,-0.18 0.01,-0.28l0.45 -1.95c0.03,-0.13 0.09,-0.25 0.18,-0.36 0.1,-0.1 0.21,-0.19 0.34,-0.25 0.14,-0.08 0.29,-0.11 0.44,-0.11l0.04 0c0.11,0 0.21,-0.03 0.31,-0.1 0.09,-0.07 0.18,-0.15 0.27,-0.25 0.08,-0.1 0.15,-0.21 0.2,-0.32 0.06,-0.12 0.1,-0.23 0.13,-0.34l1.26 -5.43c0.04,-0.19 0.14,-0.35 0.29,-0.49 0.15,-0.13 0.32,-0.22 0.51,-0.25 0,0 0.01,-0.01 0.01,-0.01 0,0 0.01,0 0.01,0 0.03,-0.01 0.05,-0.01 0.07,-0.01 0.01,0 0.03,0 0.05,0l4.64 0c0.1,0 0.2,0.01 0.28,0.05 0.09,0.04 0.16,0.1 0.21,0.16 0.06,0.07 0.1,0.15 0.12,0.24 0.02,0.08 0.01,0.18 -0.01,0.29l-1.5 6.47c0.03,0 0.05,-0.01 0.08,-0.01 0.02,0 0.05,0 0.08,0 0.1,0 0.2,0.02 0.28,0.06 0.09,0.03 0.16,0.09 0.22,0.16 0.05,0.06 0.09,0.14 0.11,0.23 0.02,0.09 0.02,0.19 -0.01,0.29l-0.44 1.93z"/>
   <path class="fil0" d="M185.43 163.38l2.63 -3.8c0.06,-0.1 0.14,-0.18 0.23,-0.24 0.09,-0.07 0.19,-0.12 0.29,-0.16 0.1,-0.04 0.2,-0.06 0.3,-0.06 0.11,0 0.2,0.02 0.29,0.06 0.09,0.04 0.16,0.1 0.21,0.17 0.06,0.07 0.09,0.15 0.11,0.24 0.01,0.09 0.01,0.18 -0.01,0.28 -0.02,0.1 -0.06,0.19 -0.12,0.29l-3.46 4.86 -0.26 0.38c-0.32,0.44 -0.61,0.82 -0.87,1.13 -0.27,0.31 -0.54,0.57 -0.8,0.78 -0.27,0.2 -0.55,0.35 -0.84,0.45 -0.29,0.09 -0.61,0.15 -0.98,0.16 0,0 -0.02,0 -0.03,0 -0.02,0 -0.03,0 -0.04,0 -0.21,0 -0.38,-0.06 -0.51,-0.17 -0.12,-0.12 -0.16,-0.28 -0.12,-0.49 0.03,-0.1 0.07,-0.2 0.13,-0.3 0.07,-0.09 0.14,-0.17 0.23,-0.24 0.08,-0.07 0.18,-0.12 0.28,-0.16 0.11,-0.04 0.21,-0.06 0.32,-0.06 0.22,0.01 0.4,-0.01 0.55,-0.06 0.16,-0.04 0.29,-0.11 0.42,-0.21 0.12,-0.1 0.24,-0.22 0.36,-0.37 0.11,-0.14 0.24,-0.32 0.39,-0.52l0.1 -0.17 -1.24 -5.01c-0.02,-0.1 -0.01,-0.19 0.01,-0.29 0.02,-0.1 0.07,-0.19 0.12,-0.28 0.06,-0.09 0.14,-0.17 0.23,-0.24 0.09,-0.07 0.19,-0.13 0.3,-0.17 0.1,-0.04 0.21,-0.06 0.31,-0.06 0.1,0 0.19,0.02 0.27,0.06 0.08,0.04 0.16,0.09 0.21,0.16 0.06,0.06 0.1,0.14 0.12,0.24l0.87 3.8z"/>
   <path class="fil0" d="M123.16 108l-12.35 0c-1.15,0 -2.08,0.64 -2.25,1.56l-7.46 39.7c-0.24,1.31 1.13,2.6 2.78,2.6l12.32 0c1.17,0 2.1,-0.65 2.26,-1.58l0.45 -2.52c0.23,-1.31 -1.13,-2.59 -2.78,-2.59l-1.68 0c-1.66,0 -3.03,-1.28 -2.78,-2.6l1.43 -7.4c0.18,-0.91 1.1,-1.55 2.25,-1.55l4.3 0c1.16,0 2.09,-0.65 2.26,-1.58l0.45 -2.52c0.23,-1.31 -1.13,-2.58 -2.78,-2.58l-1.69 0c-1.65,0 -3.02,-1.29 -2.77,-2.61l1.56 -8.09c0.17,-0.92 1.1,-1.56 2.25,-1.56l4.3 0c1.16,0 2.09,-0.65 2.25,-1.57l0.45 -2.52c0.24,-1.32 -1.13,-2.59 -2.77,-2.59zm25.91 5.11l0.45 -2.52c0.24,-1.32 -1.13,-2.59 -2.78,-2.59l-17.15 0c-1.16,0 -2.09,0.65 -2.26,1.58l-0.45 2.52c-0.23,1.31 1.14,2.58 2.78,2.58 1.65,0 3.02,1.29 2.78,2.6l-6.05 31.98c-0.24,1.31 1.13,2.6 2.78,2.6l4.11 0c1.16,0 2.08,-0.65 2.26,-1.56l6.43 -34.06c0.17,-0.91 1.1,-1.56 2.25,-1.56l2.6 0c1.16,0 2.09,-0.65 2.25,-1.57zm48.04 -5.11l-17.16 0c-1.16,0 -2.09,0.65 -2.25,1.58l-0.45 2.52c-0.24,1.31 1.13,2.58 2.78,2.58 1.65,0 3.02,1.29 2.77,2.6l-6.04 31.98c-0.25,1.31 1.12,2.6 2.77,2.6l4.12 0c1.15,0 2.08,-0.65 2.25,-1.56l6.43 -34.06c0.18,-0.91 1.1,-1.56 2.26,-1.56l2.59 0c1.16,0 2.09,-0.65 2.26,-1.57l0.45 -2.52c0.23,-1.32 -1.14,-2.59 -2.78,-2.59zm-25.01 0l-3.56 0c-1.28,0 -2.3,0.71 -2.49,1.73l-1.73 9.43 -4.79 7.82c-0.36,0.59 -1.51,0.21 -1.39,-0.46l2.93 -15.64c0.27,-1.46 -1.24,-2.88 -3.07,-2.88l-3.56 0c-1.28,0 -2.3,0.71 -2.49,1.73l-7.37 39.25c-0.28,1.46 1.24,2.88 3.07,2.88l3.55 0c1.28,0 2.31,-0.72 2.5,-1.74l0.88 -4.87 4.67 -7.26c0.37,-0.58 1.51,-0.19 1.39,0.47l-1.97 10.52c-0.27,1.46 1.25,2.88 3.07,2.88l3.57 0c1.27,0 2.3,-0.71 2.49,-1.73l7.37 -39.25c0.27,-1.46 -1.24,-2.88 -3.07,-2.88zm-100.38 0l-19.14 0c-1.15,0 -2.08,0.64 -2.25,1.56l-7.45 39.7c-0.25,1.31 1.12,2.6 2.77,2.6l4.12 0c1.15,0 2.08,-0.65 2.25,-1.56l6.43 -34.06c0.18,-0.91 1.1,-1.56 2.26,-1.56l0.45 0c1.66,0 3.02,1.29 2.78,2.6l-6.04 31.98c-0.25,1.31 1.12,2.6 2.77,2.6l4.12 0c1.15,0 2.08,-0.65 2.25,-1.57l7.45 -39.69c0.25,-1.32 -1.12,-2.6 -2.77,-2.6zm-36.38 8.28l-2.2 11.61c-0.17,0.91 -1.1,1.55 -2.25,1.55l-0.03 0c-1.66,0 -3.03,-1.28 -2.78,-2.6l1.92 -10.08c0.19,-1.17 0.89,-1.67 2.35,-1.67l1.84 0c0.6,0 0.93,0.1 1.03,0.2 0.12,0.11 0.22,0.43 0.12,0.99zm7.81 -6.25c-1.42,-1.35 -3.66,-2.03 -6.66,-2.03l-5.1 0c-5.99,0 -9.56,2.67 -10.61,7.93l-6.24 33.33c-0.24,1.31 1.12,2.6 2.78,2.6l4.11 0c1.16,0 2.08,-0.65 2.26,-1.56l2.3 -12.21c0.17,-0.92 1.1,-1.56 2.25,-1.56l0.03 0c1.66,0 3.03,1.29 2.78,2.6l-1.91 10.13c-0.25,1.31 1.12,2.6 2.77,2.6l4.11 0c1.16,0 2.09,-0.65 2.26,-1.57l6.33 -33.85c0.57,-2.81 0.07,-4.96 -1.46,-6.41zm57.68 -2.03l-19.13 0c-1.16,0 -2.08,0.64 -2.26,1.56l-7.45 39.7c-0.25,1.31 1.12,2.6 2.78,2.6l4.11 0c1.15,0 2.08,-0.65 2.25,-1.56l6.44 -34.06c0.17,-0.91 1.1,-1.56 2.25,-1.56l0.46 0c1.65,0 3.02,1.29 2.77,2.6l-6.04 31.98c-0.25,1.31 1.12,2.6 2.77,2.6l4.12 0c1.15,0 2.08,-0.65 2.25,-1.57l7.45 -39.69c0.25,-1.32 -1.12,-2.6 -2.77,-2.6z"/>
   <path class="fil0" d="M93.47 81.74c0.51,0.2 0.95,0.52 1.3,0.94l1.43 1.73c0.17,0.19 0.39,0.31 0.64,0.34 0.25,0.02 0.5,-0.05 0.69,-0.21 0.4,-0.33 0.46,-0.93 0.13,-1.33l-1.43 -1.73c-0.68,-0.82 -1.57,-1.39 -2.6,-1.66l-5.76 -1.52c-1.11,-0.3 -1.97,-1.17 -2.25,-2.28l-1.42 -5.78c-0.25,-1.03 -0.81,-1.94 -1.62,-2.63l-4.53 -3.86c-0.88,-0.74 -1.27,-1.91 -1.04,-3.03l1.23 -5.83c0.22,-1.03 0.11,-2.1 -0.32,-3.06l-2.41 -5.45c-0.46,-1.05 -0.32,-2.27 0.38,-3.18l3.63 -4.72c0.65,-0.84 1.01,-1.84 1.05,-2.9l0.19 -5.95c0.04,-1.15 0.7,-2.19 1.73,-2.71l5.32 -2.67c0.94,-0.48 1.7,-1.22 2.19,-2.16l2.76 -5.28c0.53,-1.02 1.58,-1.66 2.73,-1.68l5.95 -0.11c1.06,-0.01 2.07,-0.36 2.92,-0.99l4.77 -3.56c0.92,-0.68 2.13,-0.82 3.19,-0.33l5.41 2.49c0.96,0.44 2.02,0.57 3.06,0.37l3.9 -0.76c0.24,-0.05 0.46,-0.19 0.6,-0.4 0.14,-0.21 0.19,-0.46 0.14,-0.71 -0.1,-0.51 -0.59,-0.84 -1.1,-0.74l-3.9 0.75c-0.64,0.13 -1.31,0.05 -1.91,-0.23l-5.41 -2.49c-1.67,-0.78 -3.63,-0.57 -5.11,0.54l-4.77 3.55c-0.53,0.4 -1.16,0.62 -1.82,0.63l-5.95 0.1c-1.85,0.03 -3.52,1.06 -4.37,2.7l-2.76 5.27c-0.31,0.59 -0.78,1.06 -1.37,1.35l-5.32 2.68c-1.65,0.83 -2.71,2.48 -2.77,4.33l-0.19 5.95c-0.02,0.66 -0.25,1.28 -0.65,1.81l-3.63 4.71c-1.13,1.46 -1.36,3.42 -0.62,5.1l2.41 5.45c0.27,0.6 0.34,1.26 0.2,1.91l-1.22 5.83c-0.38,1.8 0.25,3.66 1.66,4.86l4.52 3.86c0.51,0.43 0.86,1 1.02,1.64l1.42 5.78c0.44,1.79 1.82,3.2 3.6,3.66l5.76 1.51c0.11,0.03 0.21,0.06 0.32,0.1z"/>
   <path class="fil0" d="M129.42 6.27c-23.32,-8.86 -49.5,2.91 -58.36,26.23 -8.86,23.32 2.91,49.5 26.23,58.36 23.32,8.86 49.5,-2.9 58.36,-26.22 8.86,-23.32 -2.91,-49.51 -26.23,-58.37zm-33.28 87.59c-24.97,-9.49 -37.57,-37.53 -28.08,-62.5 9.49,-24.98 37.53,-37.58 62.5,-28.09 24.98,9.49 37.58,37.53 28.09,62.51 -9.49,24.97 -37.53,37.57 -62.51,28.08z"/>
   <path class="fil0" d="M140.62 29.23c0.17,-0.09 0.35,-0.18 0.52,-0.28 0.7,-0.37 0.9,-1.24 0.41,-1.89 -1.61,-2.15 -3.46,-4.17 -5.52,-6.01 -0.5,-0.45 -1.25,-0.51 -1.8,-0.17 -3.73,2.33 -7.83,4.68 -12.54,6.72 -0.32,0.14 -0.57,0.39 -0.69,0.7l-3.14 8.27c-0.4,1.06 0.72,2.15 1.86,1.81 8.33,-2.41 14.97,-5.97 20.9,-9.15z"/>
   <path class="fil0" d="M146.93 61.22c0.1,-0.26 0.2,-0.52 0.29,-0.78 0.23,-0.65 -0.51,-1.29 -1.19,-1.03 -9.81,3.82 -22.04,7.29 -38.41,5.83 -0.37,-0.04 -0.72,0.16 -0.84,0.48l-2.69 7.07c-0.17,0.46 0.15,0.98 0.67,1.09 13.05,2.89 23.84,2.52 32.68,0.75 0.15,-0.03 0.29,-0.1 0.4,-0.2 3.96,-3.55 7.11,-7.99 9.09,-13.21z"/>
   <path class="fil0" d="M145.2 42.15c0.67,-0.31 1.34,-0.61 1.99,-0.9 0.54,-0.25 0.83,-0.82 0.67,-1.39 -0.81,-2.96 -2,-5.83 -3.54,-8.55 -0.36,-0.65 -1.24,-0.9 -1.89,-0.55 -0.2,0.11 -0.41,0.22 -0.61,0.33 -6.94,3.72 -14.84,7.95 -25.22,10.36 -0.4,0.09 -0.73,0.36 -0.87,0.73l-2.9 7.63c-0.34,0.89 0.49,1.84 1.5,1.74 12.96,-1.26 22.56,-5.62 30.87,-9.4z"/>
   <path class="fil0" d="M132.19 18.01c-1.55,-1.1 -3.2,-2.1 -4.93,-3 -0.54,-0.27 -1.19,-0.05 -1.39,0.47l-2.7 7.12c-0.31,0.81 0.66,1.59 1.47,1.19 2.71,-1.36 5.2,-2.81 7.55,-4.26 0.56,-0.34 0.56,-1.13 0,-1.52z"/>
   <path class="fil0" d="M148.54 55.55c0.7,-3.65 0.77,-7.34 0.28,-10.96 -0.1,-0.76 -1,-1.22 -1.71,-0.9 -0.28,0.12 -0.55,0.25 -0.83,0.38 -9.07,4.12 -19.62,8.92 -34.29,9.82 -0.44,0.03 -0.82,0.28 -0.97,0.67l-2.72 7.16c-0.26,0.69 0.29,1.47 1.09,1.53 16.63,1.14 28.8,-2.96 38.51,-6.94 0.34,-0.13 0.57,-0.42 0.64,-0.76z"/>
   <path class="fil0" d="M102.82 76.15l-2.11 5.55c-0.14,0.38 0.1,0.82 0.53,0.93 10.75,2.82 21.69,1.26 30.4,-3.72 0.66,-0.37 0.24,-1.35 -0.53,-1.27 -7.87,0.8 -16.99,0.47 -27.46,-1.89 -0.36,-0.08 -0.71,0.08 -0.83,0.4z"/>
   <path class="fil0" d="M109.97 23.73c-0.96,2.51 -3.77,3.77 -6.28,2.82 -2.51,-0.96 -3.77,-3.77 -2.82,-6.28 0.96,-2.51 3.77,-3.78 6.28,-2.82 2.51,0.95 3.77,3.76 2.82,6.28z"/>
   <path class="fil0" d="M98.04 66.56c-0.96,2.51 -3.77,3.78 -6.28,2.82 -2.51,-0.95 -3.77,-3.76 -2.82,-6.28 0.95,-2.51 3.76,-3.77 6.28,-2.82 2.51,0.96 3.77,3.77 2.82,6.28z"/>
   <path class="fil0" d="M92.98 43.47c-0.95,2.52 -3.76,3.78 -6.28,2.82 -2.51,-0.95 -3.77,-3.76 -2.82,-6.27 0.96,-2.51 3.77,-3.78 6.28,-2.82 2.51,0.95 3.78,3.76 2.82,6.27z"/>
   <path class="fil0" d="M85.27 62.18c-0.22,0.59 -0.89,0.89 -1.48,0.67 -0.6,-0.23 -0.9,-0.89 -0.67,-1.49 0.23,-0.59 0.89,-0.89 1.49,-0.67 0.59,0.23 0.89,0.89 0.66,1.49z"/>
   <path class="fil0" d="M122.11 19.35c-0.23,0.6 -0.89,0.9 -1.49,0.67 -0.59,-0.23 -0.89,-0.89 -0.66,-1.49 0.22,-0.59 0.89,-0.89 1.48,-0.66 0.6,0.22 0.9,0.89 0.67,1.48z"/>
   <path class="fil0" d="M98.46 75.17c-0.22,0.59 -0.89,0.89 -1.48,0.67 -0.6,-0.23 -0.9,-0.9 -0.67,-1.49 0.23,-0.6 0.89,-0.89 1.49,-0.67 0.59,0.23 0.89,0.89 0.66,1.49z"/>
   <path class="fil0" d="M115.71 32.34c-0.23,0.6 -0.9,0.9 -1.49,0.67 -0.59,-0.23 -0.89,-0.89 -0.67,-1.49 0.23,-0.59 0.89,-0.89 1.49,-0.66 0.59,0.22 0.89,0.89 0.67,1.48z"/>
   <path class="fil0" d="M88.52 31.06c-0.23,0.6 -0.89,0.9 -1.49,0.67 -0.59,-0.23 -0.89,-0.89 -0.66,-1.49 0.22,-0.59 0.89,-0.89 1.48,-0.66 0.6,0.22 0.9,0.89 0.67,1.48z"/>
   <path class="fil0" d="M107.83 51.87c-0.22,0.59 -0.89,0.89 -1.48,0.66 -0.6,-0.22 -0.9,-0.89 -0.67,-1.48 0.23,-0.6 0.89,-0.9 1.49,-0.67 0.59,0.23 0.89,0.89 0.66,1.49z"/>
   <path class="fil0" d="M97.96 52.41c-0.23,0.59 -0.89,0.89 -1.49,0.67 -0.59,-0.23 -0.89,-0.89 -0.66,-1.49 0.22,-0.59 0.89,-0.89 1.48,-0.67 0.6,0.23 0.89,0.89 0.67,1.49z"/>
   <path class="fil0" d="M112.39 14.43c-0.23,0.59 -0.89,0.89 -1.49,0.66 -0.59,-0.22 -0.89,-0.89 -0.66,-1.48 0.22,-0.6 0.89,-0.9 1.48,-0.67 0.6,0.23 0.9,0.89 0.67,1.49z"/>
   <path class="fil0" d="M83.85 51.98c-0.22,0.59 -0.89,0.89 -1.48,0.67 -0.6,-0.23 -0.9,-0.89 -0.67,-1.49 0.22,-0.59 0.89,-0.89 1.48,-0.67 0.6,0.23 0.9,0.89 0.67,1.49z"/>
   <path class="fil0" d="M104.75 63.23c-0.23,0.6 -0.9,0.9 -1.49,0.67 -0.59,-0.22 -0.89,-0.89 -0.67,-1.48 0.23,-0.6 0.89,-0.9 1.49,-0.67 0.59,0.22 0.89,0.89 0.67,1.48z"/>
   <path class="fil0" d="M99.31 33.93c-0.23,0.59 -0.89,0.89 -1.49,0.67 -0.59,-0.23 -0.89,-0.89 -0.67,-1.49 0.23,-0.59 0.9,-0.89 1.49,-0.67 0.6,0.23 0.89,0.89 0.67,1.49z"/>
   <path class="fil0" d="M97.1 22.19c-0.23,0.59 -0.9,0.89 -1.49,0.66 -0.59,-0.22 -0.89,-0.89 -0.67,-1.48 0.23,-0.6 0.89,-0.9 1.49,-0.67 0.59,0.23 0.89,0.89 0.67,1.49z"/>
   <path class="fil0" d="M111.84 41.15c-0.96,2.52 -3.77,3.78 -6.28,2.82 -2.51,-0.95 -3.77,-3.76 -2.82,-6.27 0.95,-2.51 3.76,-3.78 6.28,-2.82 2.51,0.95 3.77,3.76 2.82,6.27z"/>
   <path class="fil0" d="M127.53 11.25c-0.86,-0.32 -1.73,-0.61 -2.6,-0.87 -0.32,-0.1 -0.67,0.07 -0.79,0.39l-0.47 1.24c1.06,0.3 2.12,0.64 3.18,1.05 19.58,7.44 29.46,29.42 22.02,49 -7.44,19.58 -29.43,29.46 -49.01,22.02 -1.05,-0.4 -2.07,-0.85 -3.07,-1.34l-0.49 1.31c-0.11,0.28 0.02,0.6 0.29,0.73 0.85,0.39 1.7,0.76 2.59,1.1 20.57,7.82 43.67,-2.56 51.49,-23.14 7.81,-20.57 -2.56,-43.67 -23.14,-51.49z"/>
   <path class="fil0" d="M88.59 88.39l-23.69 0.72 45.6 7.83c-1.22,-1.98 -21.54,-6.32 -21.91,-8.55z"/>
   <path class="fil0" d="M73.36 71.74l-37.84 1.14 42.13 4.9c-1.22,-1.98 -3.92,-3.81 -4.29,-6.04z"/>
   <path class="fil0" d="M65.87 48.57l-65.96 2.4 67.56 6.64c-1.91,-2.69 -1.02,-6.02 -1.6,-9.04z"/>
   <path class="fil0" d="M91.63 8.78l-37.85 -1.14 45.6 -4.89c-1.22,1.98 -7.38,3.8 -7.75,6.03z"/>
   <path class="fil0" d="M69.62 31.93l-48.83 -1.3 52.56 -4.4c-1.79,1.98 -3.19,3.47 -3.73,5.7z"/>
  </g>
 </g>
</svg>
