<?xml version="1.0" encoding="UTF-8"?>
<!DOCTYPE svg PUBLIC "-//W3C//DTD SVG 1.1//EN" "http://www.w3.org/Graphics/SVG/1.1/DTD/svg11.dtd">
<!-- Creator: CorelDRAW 2019 (64-Bit) -->
<svg xmlns="http://www.w3.org/2000/svg" xml:space="preserve" width="1014px" height="607px" version="1.1" style="shape-rendering:geometricPrecision; text-rendering:geometricPrecision; image-rendering:optimizeQuality; fill-rule:evenodd; clip-rule:evenodd"
viewBox="0 0 1014 606.99"
 xmlns:xlink="http://www.w3.org/1999/xlink">
 <defs>
  <style type="text/css">
   <![CDATA[
    .fil0 {fill:white;fill-rule:nonzero}
   ]]>
  </style>
 </defs>
 <g id="Слой_x0020_1">
  <metadata id="CorelCorpID_0Corel-Layer"/>
  <g id="_2642705268816">
   <path class="fil0" d="M585.06 511.72c3.2,1.21 5.99,3.21 8.18,5.86l8.96 10.85c1.01,1.21 2.43,1.95 3.99,2.12 1.58,0.14 3.11,-0.33 4.33,-1.33 2.52,-2.07 2.87,-5.81 0.8,-8.32l-8.96 -10.85c-4.23,-5.12 -9.86,-8.7 -16.27,-10.4l-36.06 -9.47c-6.95,-1.89 -12.38,-7.35 -14.1,-14.33l-8.91 -36.19c-1.59,-6.45 -5.11,-12.13 -10.16,-16.45l-28.37 -24.17c-5.48,-4.67 -7.97,-11.95 -6.48,-19.01l7.67 -36.48c1.36,-6.49 0.67,-13.14 -2.02,-19.2l-15.07 -34.11c-2.91,-6.59 -1.99,-14.23 2.41,-19.95l22.74 -29.53c4.05,-5.26 6.31,-11.55 6.52,-18.18l1.21 -37.26c0.24,-7.21 4.38,-13.69 10.82,-16.93l33.31 -16.75c5.93,-2.98 10.69,-7.67 13.76,-13.55l17.27 -33.04c3.33,-6.39 9.88,-10.43 17.09,-10.56l37.27 -0.64c6.64,-0.11 12.96,-2.27 18.28,-6.24l29.89 -22.27c5.75,-4.29 13.34,-5.13 19.97,-2.1l33.87 15.6c6.06,2.78 12.68,3.57 19.17,2.31l24.41 -4.74c1.55,-0.3 2.89,-1.19 3.77,-2.5 0.89,-1.3 1.21,-2.88 0.91,-4.42 -0.63,-3.21 -3.73,-5.31 -6.93,-4.68l-24.41 4.73c-4.02,0.78 -8.17,0.28 -11.96,-1.43l-33.87 -15.61c-10.48,-4.88 -22.73,-3.55 -31.99,3.36l-29.89 22.27c-3.32,2.49 -7.27,3.83 -11.42,3.9l-37.28 0.64c-11.54,0.2 -22.02,6.68 -27.37,16.9l-17.26 33.05c-1.92,3.68 -4.89,6.6 -8.59,8.46l-33.3 16.75c-10.32,5.18 -16.96,15.57 -17.33,27.1l-1.22 37.26c-0.13,4.14 -1.55,8.07 -4.07,11.36l-22.75 29.54c-7.03,9.14 -8.51,21.38 -3.84,31.92l15.07 34.1c1.68,3.8 2.11,7.94 1.26,12.01l-7.67 36.48c-2.38,11.3 1.6,22.96 10.39,30.45l28.36 24.18c3.16,2.68 5.35,6.24 6.35,10.26l8.91 36.19c2.77,11.24 11.4,20.04 22.57,22.92l36.05 9.48c0.68,0.18 1.35,0.39 1.99,0.64z"/>
   <path class="fil0" d="M810.26 39.05c-146.06,-55.5 -310.04,18.18 -365.53,164.24 -55.49,146.06 18.19,310.03 164.25,365.53 146.05,55.49 310.03,-18.19 365.52,-164.25 55.49,-146.05 -18.18,-310.03 -164.24,-365.52zm-208.43 548.58c-156.43,-59.44 -235.34,-235.05 -175.91,-391.49 59.44,-156.42 235.06,-235.33 391.48,-175.9 156.44,59.43 235.34,235.05 175.91,391.48 -59.44,156.43 -235.05,235.34 -391.48,175.91z"/>
   <path class="fil0" d="M880.35 182.84c1.1,-0.59 2.19,-1.17 3.28,-1.75 4.37,-2.33 5.62,-7.78 2.58,-11.84 -10.1,-13.5 -21.67,-26.14 -34.58,-37.67 -3.14,-2.8 -7.83,-3.2 -11.24,-1.08 -23.38,14.59 -49.06,29.33 -78.56,42.09 -2.02,0.88 -3.59,2.46 -4.34,4.44l-19.68 51.79c-2.5,6.6 4.54,13.42 11.69,11.34 52.14,-15.15 93.77,-37.44 130.85,-57.32z"/>
   <path class="fil0" d="M919.93 383.2c0.62,-1.63 1.21,-3.26 1.78,-4.9 1.42,-4.1 -3.19,-8.09 -7.42,-6.44 -61.47,23.89 -138.03,45.67 -240.6,36.49 -2.33,-0.21 -4.47,1.01 -5.24,3.03l-16.83 44.29c-1.08,2.84 0.91,6.11 4.14,6.83 81.78,18.1 149.33,15.73 204.71,4.69 0.95,-0.19 1.81,-0.62 2.51,-1.24 24.78,-22.25 44.55,-50.11 56.95,-82.75z"/>
   <path class="fil0" d="M909.05 263.75c4.24,-1.93 8.39,-3.81 12.48,-5.65 3.41,-1.54 5.19,-5.12 4.21,-8.69 -5.09,-18.54 -12.55,-36.52 -22.16,-53.55 -2.31,-4.09 -7.78,-5.62 -11.86,-3.44 -1.27,0.68 -2.54,1.35 -3.82,2.04 -43.45,23.29 -92.97,49.8 -157.93,64.87 -2.56,0.6 -4.63,2.3 -5.51,4.62l-18.14 47.76c-2.12,5.57 3.07,11.51 9.42,10.89 81.17,-7.89 141.28,-35.18 193.31,-58.85z"/>
   <path class="fil0" d="M827.58 112.54c-9.73,-6.85 -20.03,-13.14 -30.87,-18.75 -3.37,-1.74 -7.47,-0.33 -8.7,2.92l-16.94 44.57c-1.93,5.1 4.15,10.01 9.21,7.47 16.97,-8.53 32.62,-17.59 47.33,-26.65 3.49,-2.15 3.5,-7.08 -0.03,-9.56z"/>
   <path class="fil0" d="M929.98 347.66c4.37,-22.87 4.82,-45.99 1.77,-68.65 -0.64,-4.77 -6.26,-7.65 -10.74,-5.62 -1.72,0.78 -3.45,1.57 -5.19,2.36 -56.76,25.82 -122.89,55.89 -214.77,61.53 -2.76,0.16 -5.12,1.77 -6.04,4.19l-17.05 44.87c-1.64,4.32 1.82,9.19 6.79,9.53 104.2,7.17 180.42,-18.5 241.22,-43.41 2.11,-0.87 3.61,-2.65 4.01,-4.8z"/>
   <path class="fil0" d="M643.64 476.67l-13.22 34.79c-0.9,2.38 0.65,5.14 3.33,5.84 67.35,17.65 135.83,7.87 190.41,-23.32 4.08,-2.34 1.49,-8.44 -3.36,-7.95 -49.25,4.97 -106.42,2.94 -171.99,-11.86 -2.22,-0.5 -4.42,0.55 -5.17,2.5z"/>
   <path class="fil0" d="M688.41 148.35c-5.98,15.73 -23.58,23.64 -39.31,17.66 -15.73,-5.98 -23.64,-23.58 -17.66,-39.31 5.97,-15.73 23.57,-23.64 39.3,-17.66 15.74,5.98 23.65,23.57 17.67,39.31z"/>
   <path class="fil0" d="M613.68 416.63c-5.98,15.73 -23.58,23.65 -39.32,17.67 -15.73,-5.98 -23.63,-23.58 -17.65,-39.31 5.97,-15.73 23.57,-23.65 39.3,-17.67 15.74,5.98 23.65,23.58 17.67,39.31z"/>
   <path class="fil0" d="M582.01 272.04c-5.98,15.74 -23.57,23.64 -39.31,17.66 -15.73,-5.97 -23.64,-23.57 -17.67,-39.3 5.99,-15.74 23.58,-23.64 39.32,-17.67 15.73,5.98 23.64,23.58 17.66,39.31z"/>
   <path class="fil0" d="M533.74 389.19c-1.41,3.73 -5.58,5.6 -9.3,4.18 -3.73,-1.42 -5.6,-5.58 -4.19,-9.31 1.42,-3.73 5.59,-5.6 9.31,-4.18 3.73,1.41 5.6,5.58 4.18,9.31z"/>
   <path class="fil0" d="M764.45 120.96c-1.41,3.72 -5.58,5.6 -9.3,4.18 -3.73,-1.42 -5.6,-5.58 -4.19,-9.31 1.42,-3.72 5.59,-5.59 9.31,-4.18 3.73,1.41 5.6,5.58 4.18,9.31z"/>
   <path class="fil0" d="M616.35 470.54c-1.42,3.73 -5.58,5.6 -9.31,4.19 -3.72,-1.42 -5.6,-5.59 -4.18,-9.31 1.42,-3.73 5.59,-5.6 9.31,-4.18 3.72,1.41 5.6,5.58 4.18,9.3z"/>
   <path class="fil0" d="M724.34 202.32c-1.41,3.72 -5.58,5.59 -9.31,4.18 -3.72,-1.42 -5.59,-5.58 -4.18,-9.31 1.42,-3.72 5.59,-5.6 9.31,-4.18 3.73,1.41 5.6,5.58 4.18,9.31z"/>
   <path class="fil0" d="M554.07 194.3c-1.42,3.73 -5.59,5.6 -9.31,4.19 -3.72,-1.42 -5.6,-5.59 -4.18,-9.31 1.41,-3.73 5.58,-5.6 9.3,-4.18 3.73,1.41 5.6,5.58 4.19,9.3z"/>
   <path class="fil0" d="M675.03 324.6c-1.41,3.72 -5.58,5.59 -9.3,4.18 -3.73,-1.42 -5.6,-5.58 -4.18,-9.31 1.41,-3.73 5.58,-5.6 9.3,-4.18 3.73,1.41 5.6,5.58 4.18,9.31z"/>
   <path class="fil0" d="M613.19 328c-1.41,3.72 -5.58,5.6 -9.3,4.18 -3.73,-1.41 -5.6,-5.58 -4.19,-9.3 1.42,-3.73 5.58,-5.6 9.31,-4.19 3.72,1.42 5.6,5.59 4.18,9.31z"/>
   <path class="fil0" d="M703.58 90.11c-1.42,3.72 -5.59,5.6 -9.31,4.18 -3.73,-1.41 -5.6,-5.58 -4.18,-9.3 1.42,-3.73 5.58,-5.6 9.3,-4.19 3.73,1.41 5.6,5.58 4.19,9.31z"/>
   <path class="fil0" d="M524.84 325.31c-1.42,3.72 -5.58,5.59 -9.3,4.18 -3.73,-1.42 -5.6,-5.58 -4.19,-9.31 1.42,-3.73 5.58,-5.6 9.31,-4.18 3.72,1.41 5.6,5.58 4.18,9.31z"/>
   <path class="fil0" d="M655.7 395.8c-1.42,3.73 -5.58,5.6 -9.31,4.18 -3.73,-1.41 -5.6,-5.58 -4.18,-9.3 1.42,-3.73 5.58,-5.6 9.31,-4.18 3.72,1.41 5.6,5.57 4.18,9.3z"/>
   <path class="fil0" d="M621.64 212.26c-1.42,3.72 -5.58,5.6 -9.3,4.18 -3.73,-1.41 -5.6,-5.58 -4.19,-9.3 1.42,-3.73 5.59,-5.6 9.31,-4.19 3.73,1.42 5.6,5.59 4.18,9.31z"/>
   <path class="fil0" d="M607.79 138.71c-1.42,3.73 -5.59,5.6 -9.31,4.19 -3.72,-1.42 -5.6,-5.59 -4.18,-9.31 1.42,-3.73 5.58,-5.6 9.3,-4.18 3.73,1.41 5.6,5.58 4.19,9.3z"/>
   <path class="fil0" d="M700.11 257.51c-5.98,15.73 -23.58,23.64 -39.31,17.66 -15.73,-5.97 -23.64,-23.57 -17.66,-39.31 5.97,-15.73 23.57,-23.64 39.31,-17.66 15.73,5.98 23.64,23.58 17.66,39.31z"/>
   <path class="fil0" d="M798.41 70.24c-5.4,-2.05 -10.84,-3.85 -16.28,-5.49 -2.05,-0.61 -4.22,0.48 -4.98,2.48l-2.95 7.77c6.67,1.88 13.32,4.02 19.92,6.52 122.64,46.6 184.5,184.28 137.91,306.92 -46.59,122.64 -184.28,184.5 -306.92,137.91 -6.6,-2.51 -12.98,-5.34 -19.23,-8.35l-3.09 8.15c-0.68,1.78 0.12,3.79 1.85,4.6 5.28,2.46 10.66,4.78 16.18,6.88 128.87,48.96 273.53,-16.05 322.49,-144.9 48.96,-128.87 -16.04,-273.53 -144.9,-322.49z"/>
   <path class="fil0" d="M554.54 553.37l-148.4 4.47 285.6 49.07c-7.64,-12.4 -134.88,-39.57 -137.2,-53.54z"/>
   <path class="fil0" d="M459.15 449.08l-237.04 7.15 263.86 30.66c-7.64,-12.41 -24.5,-23.84 -26.82,-37.81z"/>
   <path class="fil0" d="M412.2 303.93l-413.08 15.04 423.14 41.58c-11.98,-16.82 -6.42,-37.66 -10.06,-56.62z"/>
   <path class="fil0" d="M573.55 54.77l-237.04 -7.16 285.6 -30.65c-7.64,12.4 -46.24,23.83 -48.56,37.81z"/>
   <path class="fil0" d="M435.68 199.75l-305.8 -8.14 329.21 -27.58c-11.21,12.4 -20.01,21.75 -23.41,35.72z"/>
  </g>
 </g>
</svg>
