<?xml version="1.0" encoding="UTF-8"?>
<!DOCTYPE svg PUBLIC "-//W3C//DTD SVG 1.1//EN" "http://www.w3.org/Graphics/SVG/1.1/DTD/svg11.dtd">
<!-- Creator: CorelDRAW 2019 (64-Bit) -->
<svg xmlns="http://www.w3.org/2000/svg" xml:space="preserve" width="500px" height="138px" version="1.1" style="shape-rendering:geometricPrecision; text-rendering:geometricPrecision; image-rendering:optimizeQuality; fill-rule:evenodd; clip-rule:evenodd"
viewBox="0 0 500 137.57"
 xmlns:xlink="http://www.w3.org/1999/xlink">
 <defs>
  <style type="text/css">
   <![CDATA[
    .fil0 {fill:#ED1C24;fill-rule:nonzero}
   ]]>
  </style>
 </defs>
 <g id="Слой_x0020_1">
  <metadata id="CorelCorpID_0Corel-Layer"/>
  <g id="_2663982988864">
   <path class="fil0" d="M131.28 115.54c0.72,0.27 1.34,0.72 1.83,1.31l2.01 2.43c0.23,0.27 0.55,0.44 0.9,0.48 0.35,0.03 0.69,-0.08 0.97,-0.3 0.56,-0.46 0.64,-1.3 0.17,-1.86l-2 -2.43c-0.95,-1.15 -2.21,-1.95 -3.65,-2.33l-8.08 -2.13c-1.55,-0.42 -2.77,-1.64 -3.16,-3.21l-1.99 -8.1c-0.36,-1.45 -1.15,-2.72 -2.28,-3.69l-6.35 -5.41c-1.23,-1.05 -1.79,-2.68 -1.46,-4.26l1.72 -8.18c0.31,-1.45 0.15,-2.94 -0.45,-4.3l-3.38 -7.64c-0.65,-1.48 -0.44,-3.19 0.54,-4.47l5.1 -6.61c0.91,-1.18 1.41,-2.59 1.46,-4.08l0.27 -8.35c0.05,-1.61 0.98,-3.06 2.43,-3.79l7.46 -3.75c1.33,-0.67 2.39,-1.72 3.08,-3.04l3.87 -7.4c0.75,-1.43 2.21,-2.34 3.83,-2.36l8.35 -0.15c1.49,-0.02 2.9,-0.51 4.09,-1.4l6.7 -4.99c1.29,-0.96 2.99,-1.14 4.47,-0.47l7.59 3.5c1.36,0.62 2.84,0.8 4.3,0.52l5.47 -1.06c0.34,-0.07 0.64,-0.27 0.84,-0.56 0.2,-0.3 0.27,-0.65 0.2,-1 -0.14,-0.71 -0.83,-1.19 -1.55,-1.05l-5.47 1.07c-0.9,0.17 -1.83,0.06 -2.68,-0.32l-7.59 -3.5c-2.34,-1.09 -5.09,-0.8 -7.16,0.75l-6.7 4.99c-0.74,0.56 -1.63,0.86 -2.56,0.87l-8.35 0.15c-2.58,0.04 -4.93,1.49 -6.13,3.78l-3.87 7.41c-0.43,0.82 -1.09,1.48 -1.92,1.89l-7.46 3.75c-2.31,1.17 -3.8,3.49 -3.89,6.08l-0.27 8.34c-0.03,0.93 -0.34,1.81 -0.91,2.55l-5.1 6.62c-1.57,2.05 -1.9,4.79 -0.86,7.15l3.38 7.64c0.37,0.85 0.47,1.78 0.28,2.69l-1.72 8.17c-0.53,2.53 0.36,5.14 2.33,6.82l6.36 5.42c0.7,0.6 1.19,1.4 1.42,2.3l1.99 8.11c0.62,2.52 2.56,4.49 5.06,5.13l8.08 2.13c0.15,0.04 0.3,0.08 0.44,0.14z"/>
   <path class="fil0" d="M181.73 9.64c-32.72,-12.43 -69.46,4.08 -81.89,36.8 -12.43,32.72 4.08,69.46 36.8,81.89 32.72,12.43 69.46,-4.07 81.89,-36.8 12.43,-32.72 -4.07,-69.45 -36.8,-81.89zm-46.69 122.9c-35.05,-13.31 -52.73,-52.65 -39.41,-87.7 13.31,-35.05 52.66,-52.73 87.7,-39.41 35.05,13.32 52.73,52.66 39.41,87.71 -13.31,35.04 -52.66,52.72 -87.7,39.4z"/>
   <path class="fil0" d="M197.44 41.86c0.24,-0.13 0.49,-0.26 0.73,-0.39 0.98,-0.53 1.26,-1.75 0.58,-2.66 -2.26,-3.02 -4.85,-5.85 -7.75,-8.44 -0.7,-0.62 -1.75,-0.71 -2.52,-0.24 -5.23,3.27 -10.99,6.57 -17.6,9.43 -0.45,0.2 -0.8,0.55 -0.97,1l-4.41 11.6c-0.56,1.48 1.02,3.01 2.62,2.54 11.68,-3.39 21.01,-8.39 29.32,-12.84z"/>
   <path class="fil0" d="M206.3 86.75c0.14,-0.37 0.28,-0.73 0.4,-1.1 0.32,-0.92 -0.71,-1.81 -1.66,-1.44 -13.77,5.35 -30.92,10.23 -53.9,8.17 -0.52,-0.05 -1,0.23 -1.18,0.68l-3.77 9.92c-0.24,0.64 0.21,1.37 0.93,1.53 18.32,4.06 33.46,3.53 45.86,1.05 0.22,-0.04 0.41,-0.14 0.57,-0.28 5.55,-4.98 9.98,-11.22 12.75,-18.53z"/>
   <path class="fil0" d="M203.87 59.98c0.95,-0.43 1.88,-0.85 2.79,-1.26 0.77,-0.34 1.17,-1.15 0.95,-1.95 -1.14,-4.15 -2.82,-8.18 -4.97,-12 -0.52,-0.91 -1.74,-1.25 -2.66,-0.77 -0.28,0.16 -0.56,0.31 -0.85,0.46 -9.74,5.22 -20.83,11.16 -35.38,14.54 -0.58,0.13 -1.04,0.51 -1.24,1.03l-4.06 10.7c-0.48,1.25 0.68,2.58 2.11,2.44 18.18,-1.77 31.65,-7.88 43.31,-13.19z"/>
   <path class="fil0" d="M185.61 26.11c-2.18,-1.54 -4.48,-2.94 -6.91,-4.2 -0.76,-0.39 -1.67,-0.08 -1.95,0.65l-3.8 9.99c-0.43,1.14 0.93,2.24 2.07,1.67 3.8,-1.91 7.31,-3.94 10.6,-5.97 0.78,-0.48 0.78,-1.59 -0.01,-2.14z"/>
   <path class="fil0" d="M208.56 78.78c0.97,-5.12 1.08,-10.3 0.39,-15.38 -0.14,-1.06 -1.4,-1.71 -2.4,-1.25 -0.39,0.17 -0.78,0.35 -1.17,0.52 -12.71,5.79 -27.53,12.52 -48.11,13.79 -0.62,0.03 -1.15,0.4 -1.36,0.94l-3.82 10.05c-0.36,0.97 0.41,2.06 1.53,2.13 23.34,1.61 40.42,-4.14 54.04,-9.72 0.47,-0.2 0.81,-0.6 0.9,-1.08z"/>
   <path class="fil0" d="M144.41 107.69l-2.97 7.79c-0.2,0.53 0.15,1.15 0.75,1.31 15.09,3.95 30.43,1.76 42.66,-5.23 0.91,-0.52 0.33,-1.89 -0.75,-1.78 -11.04,1.12 -23.85,0.66 -38.54,-2.65 -0.49,-0.12 -0.99,0.12 -1.15,0.56z"/>
   <path class="fil0" d="M154.44 34.13c-1.34,3.53 -5.29,5.3 -8.81,3.96 -3.53,-1.34 -5.3,-5.28 -3.96,-8.81 1.34,-3.52 5.28,-5.3 8.81,-3.96 3.52,1.34 5.29,5.29 3.96,8.81z"/>
   <path class="fil0" d="M137.69 94.24c-1.34,3.52 -5.28,5.29 -8.8,3.95 -3.53,-1.34 -5.3,-5.28 -3.96,-8.8 1.34,-3.53 5.28,-5.3 8.81,-3.96 3.52,1.34 5.29,5.28 3.95,8.81z"/>
   <path class="fil0" d="M130.6 61.84c-1.34,3.53 -5.28,5.3 -8.81,3.96 -3.52,-1.34 -5.29,-5.28 -3.96,-8.81 1.34,-3.52 5.29,-5.29 8.81,-3.95 3.53,1.34 5.3,5.28 3.96,8.8z"/>
   <path class="fil0" d="M119.78 88.09c-0.31,0.83 -1.25,1.25 -2.08,0.93 -0.84,-0.31 -1.25,-1.25 -0.94,-2.08 0.32,-0.84 1.25,-1.25 2.09,-0.94 0.83,0.32 1.25,1.25 0.93,2.09z"/>
   <path class="fil0" d="M171.47 27.99c-0.32,0.84 -1.25,1.26 -2.08,0.94 -0.84,-0.32 -1.26,-1.25 -0.94,-2.08 0.32,-0.84 1.25,-1.26 2.08,-0.94 0.84,0.32 1.26,1.25 0.94,2.08z"/>
   <path class="fil0" d="M138.29 106.31c-0.32,0.84 -1.25,1.26 -2.08,0.94 -0.84,-0.32 -1.26,-1.25 -0.94,-2.08 0.32,-0.84 1.25,-1.26 2.08,-0.94 0.84,0.32 1.26,1.25 0.94,2.08z"/>
   <path class="fil0" d="M162.49 46.22c-0.32,0.84 -1.26,1.26 -2.09,0.94 -0.83,-0.32 -1.25,-1.25 -0.94,-2.09 0.32,-0.83 1.25,-1.25 2.09,-0.93 0.83,0.31 1.25,1.25 0.94,2.08z"/>
   <path class="fil0" d="M124.34 44.43c-0.32,0.83 -1.25,1.25 -2.09,0.93 -0.83,-0.31 -1.25,-1.25 -0.93,-2.08 0.31,-0.84 1.25,-1.26 2.08,-0.94 0.84,0.32 1.26,1.25 0.94,2.09z"/>
   <path class="fil0" d="M151.44 73.62c-0.32,0.83 -1.25,1.25 -2.09,0.93 -0.83,-0.31 -1.25,-1.25 -0.93,-2.08 0.31,-0.84 1.25,-1.26 2.08,-0.94 0.84,0.32 1.26,1.25 0.94,2.09z"/>
   <path class="fil0" d="M137.58 74.38c-0.31,0.83 -1.25,1.25 -2.08,0.94 -0.84,-0.32 -1.26,-1.25 -0.94,-2.09 0.32,-0.83 1.25,-1.25 2.09,-0.94 0.83,0.32 1.25,1.26 0.93,2.09z"/>
   <path class="fil0" d="M157.83 21.08c-0.31,0.84 -1.25,1.26 -2.08,0.94 -0.84,-0.32 -1.26,-1.25 -0.94,-2.08 0.32,-0.84 1.25,-1.26 2.09,-0.94 0.83,0.31 1.25,1.25 0.93,2.08z"/>
   <path class="fil0" d="M117.79 73.78c-0.32,0.83 -1.25,1.25 -2.08,0.93 -0.84,-0.31 -1.26,-1.25 -0.94,-2.08 0.32,-0.84 1.25,-1.26 2.08,-0.94 0.84,0.32 1.26,1.25 0.94,2.09z"/>
   <path class="fil0" d="M147.11 89.57c-0.32,0.83 -1.25,1.25 -2.09,0.94 -0.83,-0.32 -1.25,-1.25 -0.93,-2.09 0.31,-0.83 1.25,-1.25 2.08,-0.94 0.83,0.32 1.25,1.25 0.94,2.09z"/>
   <path class="fil0" d="M139.48 48.45c-0.32,0.83 -1.25,1.25 -2.09,0.94 -0.83,-0.32 -1.25,-1.25 -0.93,-2.09 0.31,-0.83 1.25,-1.25 2.08,-0.94 0.83,0.32 1.25,1.26 0.94,2.09z"/>
   <path class="fil0" d="M136.37 31.97c-0.31,0.84 -1.25,1.26 -2.08,0.94 -0.84,-0.32 -1.26,-1.25 -0.94,-2.09 0.32,-0.83 1.25,-1.25 2.09,-0.93 0.83,0.31 1.25,1.25 0.93,2.08z"/>
   <path class="fil0" d="M157.06 58.59c-1.34,3.52 -5.29,5.29 -8.81,3.95 -3.52,-1.33 -5.3,-5.28 -3.96,-8.8 1.34,-3.53 5.28,-5.3 8.81,-3.96 3.52,1.34 5.3,5.28 3.96,8.81z"/>
   <path class="fil0" d="M179.08 16.63c-1.21,-0.46 -2.43,-0.86 -3.65,-1.23 -0.46,-0.14 -0.94,0.11 -1.11,0.56l-0.67 1.74c1.5,0.42 2.99,0.9 4.47,1.46 27.47,10.44 41.33,41.28 30.89,68.76 -10.43,27.47 -41.28,41.33 -68.76,30.9 -1.47,-0.57 -2.91,-1.2 -4.3,-1.87l-0.7 1.82c-0.15,0.4 0.03,0.85 0.42,1.03 1.18,0.55 2.39,1.07 3.62,1.54 28.87,10.97 61.28,-3.59 72.25,-32.46 10.97,-28.87 -3.59,-61.28 -32.46,-72.25z"/>
   <path class="fil0" d="M240.13 116.47c-0.13,0.54 -0.29,1.01 -0.49,1.42l4.5 0 1.86 -8.06 -4.34 0 -1.53 6.64zm6.62 5.14c-0.03,0.15 -0.09,0.28 -0.18,0.41 -0.08,0.12 -0.19,0.23 -0.31,0.33 -0.12,0.09 -0.25,0.17 -0.4,0.22 -0.15,0.05 -0.29,0.08 -0.44,0.08 -0.15,0 -0.29,-0.03 -0.41,-0.08 -0.12,-0.05 -0.21,-0.13 -0.29,-0.22 -0.07,-0.1 -0.12,-0.21 -0.15,-0.33 -0.03,-0.13 -0.02,-0.26 0.01,-0.41l0.38 -1.65 -7.76 0 -0.38 1.65c-0.04,0.15 -0.1,0.28 -0.18,0.41 -0.09,0.12 -0.19,0.23 -0.3,0.33 -0.12,0.09 -0.25,0.17 -0.39,0.22 -0.15,0.05 -0.29,0.08 -0.44,0.08 -0.15,0 -0.29,-0.03 -0.41,-0.08 -0.12,-0.05 -0.22,-0.13 -0.3,-0.22 -0.07,-0.1 -0.12,-0.21 -0.15,-0.33 -0.03,-0.13 -0.03,-0.26 0.01,-0.41l0.63 -2.72c0.04,-0.19 0.13,-0.36 0.26,-0.51 0.13,-0.15 0.28,-0.27 0.46,-0.36 0.21,-0.1 0.42,-0.15 0.63,-0.15l0.06 0c0.14,0 0.28,-0.05 0.42,-0.14 0.14,-0.09 0.27,-0.21 0.38,-0.35 0.12,-0.14 0.21,-0.29 0.29,-0.45 0.09,-0.17 0.15,-0.33 0.18,-0.48l1.77 -7.62c0.06,-0.26 0.19,-0.49 0.41,-0.68 0.21,-0.19 0.45,-0.31 0.71,-0.36 0.01,0 0.01,0 0.02,0 0,-0.01 0.01,-0.01 0.01,-0.01 0.04,0 0.07,-0.01 0.09,-0.01 0.02,0 0.05,-0.01 0.08,-0.01l6.51 0c0.14,0 0.28,0.03 0.4,0.08 0.12,0.06 0.22,0.13 0.29,0.23 0.08,0.09 0.13,0.2 0.16,0.33 0.03,0.12 0.02,0.26 -0.01,0.4l-2.1 9.09c0.03,-0.01 0.07,-0.01 0.1,-0.02 0.04,0 0.08,0 0.12,0 0.15,0 0.28,0.03 0.4,0.08 0.12,0.06 0.22,0.13 0.3,0.22 0.07,0.1 0.13,0.21 0.15,0.34 0.03,0.12 0.03,0.26 0,0.4l-0.63 2.7z"/>
   <path class="fil0" d="M257.48 109.74c-0.6,0 -1.18,0.11 -1.76,0.33 -0.57,0.21 -1.1,0.51 -1.57,0.88 -0.48,0.38 -0.89,0.82 -1.23,1.32 -0.34,0.5 -0.57,1.04 -0.71,1.61 -0.13,0.58 -0.14,1.12 -0.03,1.62 0.1,0.5 0.31,0.94 0.61,1.31 0.3,0.37 0.69,0.66 1.17,0.87 0.47,0.22 1.01,0.32 1.61,0.32 0.59,0 1.18,-0.1 1.75,-0.32 0.58,-0.21 1.1,-0.5 1.58,-0.87 0.48,-0.37 0.89,-0.81 1.23,-1.31 0.34,-0.5 0.58,-1.04 0.71,-1.62 0.13,-0.57 0.14,-1.11 0.04,-1.61 -0.11,-0.5 -0.32,-0.94 -0.63,-1.32 -0.3,-0.37 -0.69,-0.67 -1.16,-0.88 -0.48,-0.22 -1.01,-0.33 -1.61,-0.33zm0.47 -2.06c0.59,0 1.15,0.07 1.67,0.22 0.51,0.15 0.98,0.36 1.4,0.62 0.42,0.27 0.78,0.59 1.09,0.97 0.31,0.38 0.55,0.8 0.72,1.26 0.18,0.46 0.29,0.95 0.32,1.48 0.03,0.53 -0.02,1.08 -0.15,1.65 -0.2,0.86 -0.55,1.66 -1.07,2.41 -0.51,0.75 -1.13,1.4 -1.85,1.97 -0.72,0.56 -1.5,1 -2.37,1.32 -0.86,0.33 -1.74,0.49 -2.63,0.49 -0.6,0 -1.16,-0.07 -1.68,-0.22 -0.52,-0.14 -0.99,-0.35 -1.4,-0.62 -0.42,-0.27 -0.78,-0.6 -1.08,-0.97 -0.3,-0.38 -0.54,-0.8 -0.71,-1.26 -0.18,-0.45 -0.28,-0.95 -0.31,-1.47 -0.03,-0.53 0.02,-1.08 0.15,-1.65 0.14,-0.57 0.34,-1.12 0.61,-1.65 0.28,-0.53 0.61,-1.02 0.99,-1.48 0.39,-0.46 0.82,-0.88 1.3,-1.26 0.48,-0.38 0.99,-0.7 1.53,-0.97 0.54,-0.26 1.1,-0.47 1.69,-0.62 0.59,-0.15 1.18,-0.22 1.78,-0.22z"/>
   <path class="fil0" d="M276.85 109.51c0.17,0.2 0.22,0.44 0.15,0.72 -0.06,0.27 -0.22,0.51 -0.47,0.72 -0.13,0.1 -0.27,0.17 -0.41,0.22 -0.15,0.05 -0.29,0.08 -0.43,0.08 -0.14,0 -0.27,-0.02 -0.39,-0.07 -0.12,-0.05 -0.22,-0.12 -0.3,-0.22 -0.34,-0.41 -0.75,-0.72 -1.23,-0.92 -0.48,-0.2 -1.01,-0.3 -1.57,-0.3 -0.58,0 -1.16,0.11 -1.73,0.32 -0.56,0.22 -1.09,0.51 -1.56,0.88 -0.48,0.37 -0.89,0.81 -1.24,1.31 -0.34,0.5 -0.58,1.04 -0.71,1.62 -0.13,0.55 -0.15,1.08 -0.05,1.58 0.1,0.49 0.3,0.93 0.6,1.31 0.29,0.38 0.67,0.68 1.13,0.91 0.47,0.22 1.01,0.34 1.62,0.34 0.56,0.01 1.13,-0.08 1.69,-0.28 0.56,-0.19 1.11,-0.5 1.67,-0.93 0.12,-0.09 0.26,-0.16 0.4,-0.21 0.14,-0.05 0.28,-0.07 0.42,-0.07 0.14,0 0.27,0.02 0.4,0.06 0.12,0.05 0.22,0.12 0.3,0.21 0.08,0.1 0.13,0.22 0.15,0.35 0.03,0.12 0.03,0.25 -0.01,0.39 -0.03,0.13 -0.08,0.26 -0.16,0.39 -0.08,0.12 -0.18,0.24 -0.3,0.33 -0.8,0.62 -1.62,1.08 -2.48,1.38 -0.87,0.3 -1.72,0.45 -2.57,0.45 -0.59,0 -1.13,-0.07 -1.65,-0.22 -0.51,-0.15 -0.97,-0.36 -1.39,-0.63 -0.41,-0.26 -0.77,-0.59 -1.07,-0.96 -0.31,-0.38 -0.54,-0.8 -0.72,-1.26 -0.17,-0.46 -0.27,-0.95 -0.3,-1.48 -0.03,-0.52 0.02,-1.07 0.15,-1.64 0.13,-0.54 0.32,-1.07 0.59,-1.59 0.26,-0.52 0.58,-1.01 0.96,-1.47 0.37,-0.46 0.8,-0.88 1.27,-1.27 0.48,-0.38 0.99,-0.72 1.53,-1 0.54,-0.28 1.11,-0.49 1.71,-0.65 0.6,-0.15 1.21,-0.23 1.84,-0.23 0.83,0 1.61,0.15 2.34,0.46 0.72,0.3 1.33,0.76 1.82,1.37z"/>
   <path class="fil0" d="M284.49 109.83l-2.11 9.11c-0.03,0.14 -0.09,0.28 -0.18,0.4 -0.08,0.13 -0.18,0.23 -0.3,0.32 -0.12,0.09 -0.26,0.16 -0.4,0.22 -0.15,0.05 -0.29,0.08 -0.44,0.08 -0.15,0 -0.29,-0.03 -0.4,-0.08 -0.12,-0.06 -0.22,-0.13 -0.29,-0.22 -0.08,-0.09 -0.13,-0.19 -0.16,-0.32 -0.02,-0.12 -0.02,-0.26 0.01,-0.4l2.11 -9.11 -2.98 0c-0.15,0 -0.28,-0.03 -0.4,-0.08 -0.12,-0.06 -0.21,-0.13 -0.29,-0.22 -0.07,-0.1 -0.12,-0.21 -0.15,-0.33 -0.03,-0.13 -0.02,-0.26 0.01,-0.41 0.03,-0.14 0.09,-0.27 0.18,-0.4 0.08,-0.12 0.18,-0.23 0.3,-0.33 0.12,-0.09 0.25,-0.16 0.39,-0.22 0.14,-0.05 0.29,-0.08 0.44,-0.08l8.12 0c0.14,0 0.27,0.03 0.39,0.08 0.12,0.06 0.22,0.13 0.3,0.23 0.08,0.09 0.13,0.2 0.16,0.33 0.02,0.13 0.02,0.26 -0.01,0.4 -0.03,0.15 -0.09,0.28 -0.18,0.41 -0.08,0.12 -0.19,0.23 -0.31,0.32 -0.12,0.09 -0.25,0.16 -0.4,0.22 -0.14,0.05 -0.29,0.08 -0.43,0.08l-2.98 0z"/>
   <path class="fil0" d="M290.32 115.56l3.92 0 -0.91 -4.49 -3.01 4.49zm4.34 2.06l-5.69 0 -1.15 1.72c-0.09,0.13 -0.2,0.24 -0.32,0.34 -0.13,0.09 -0.27,0.17 -0.41,0.21 -0.14,0.04 -0.28,0.06 -0.43,0.06 -0.15,0 -0.28,-0.03 -0.41,-0.09 -0.13,-0.06 -0.23,-0.13 -0.3,-0.23 -0.07,-0.1 -0.12,-0.21 -0.13,-0.33 -0.02,-0.12 0,-0.25 0.04,-0.39 0.04,-0.14 0.11,-0.28 0.2,-0.41l6.9 -10.11c0.14,-0.2 0.3,-0.36 0.5,-0.46 0.19,-0.11 0.4,-0.17 0.63,-0.17 0.21,0 0.39,0.06 0.54,0.17 0.14,0.1 0.24,0.26 0.29,0.45l2.23 10.12c0.06,0.27 0.02,0.53 -0.12,0.79 -0.15,0.26 -0.37,0.45 -0.67,0.57 -0.15,0.06 -0.3,0.09 -0.45,0.09 -0.14,0 -0.28,-0.02 -0.4,-0.07 -0.12,-0.04 -0.22,-0.11 -0.31,-0.2 -0.08,-0.1 -0.14,-0.21 -0.18,-0.34l-0.36 -1.72z"/>
   <path class="fil0" d="M303.37 109.83l-0.64 2.78 3.4 0c0.2,0 0.4,-0.05 0.59,-0.13 0.19,-0.08 0.36,-0.18 0.52,-0.31 0.16,-0.12 0.3,-0.27 0.41,-0.43 0.12,-0.17 0.2,-0.34 0.24,-0.53 0.04,-0.19 0.04,-0.37 0,-0.53 -0.04,-0.17 -0.11,-0.31 -0.22,-0.44 -0.11,-0.13 -0.24,-0.23 -0.4,-0.3 -0.17,-0.07 -0.34,-0.11 -0.54,-0.11l-3.36 0zm-1.12 4.85l-0.74 3.21 3.54 0c0.24,0 0.48,-0.05 0.71,-0.14 0.24,-0.09 0.46,-0.22 0.66,-0.38 0.2,-0.15 0.37,-0.33 0.51,-0.54 0.14,-0.2 0.24,-0.41 0.29,-0.64 0.06,-0.23 0.06,-0.43 0,-0.62 -0.05,-0.19 -0.14,-0.35 -0.27,-0.48 -0.14,-0.13 -0.3,-0.23 -0.51,-0.3 -0.2,-0.07 -0.42,-0.11 -0.66,-0.11l-3.53 0zm-2.31 5.28c-0.15,0 -0.28,-0.03 -0.4,-0.08 -0.12,-0.06 -0.21,-0.13 -0.29,-0.22 -0.08,-0.09 -0.13,-0.19 -0.16,-0.32 -0.02,-0.12 -0.02,-0.26 0.01,-0.4l2.35 -10.16c0.04,-0.14 0.1,-0.28 0.18,-0.4 0.09,-0.13 0.19,-0.23 0.31,-0.33 0.11,-0.09 0.24,-0.16 0.38,-0.21 0.15,-0.05 0.29,-0.08 0.45,-0.08l4.56 0c0.49,0 0.93,0.09 1.32,0.27 0.39,0.18 0.71,0.42 0.95,0.72 0.25,0.31 0.42,0.67 0.51,1.08 0.08,0.41 0.07,0.85 -0.04,1.32 -0.1,0.43 -0.28,0.85 -0.53,1.25 -0.26,0.4 -0.56,0.76 -0.92,1.09 0.34,0.35 0.58,0.77 0.72,1.26 0.14,0.49 0.14,1.02 0.01,1.6 -0.12,0.5 -0.33,0.98 -0.63,1.41 -0.31,0.44 -0.67,0.82 -1.09,1.15 -0.43,0.32 -0.9,0.58 -1.41,0.77 -0.52,0.18 -1.04,0.28 -1.58,0.28l-4.7 0z"/>
   <path class="fil0" d="M321.65 111.55l-8.82 8.01c-0.14,0.12 -0.27,0.22 -0.41,0.29 -0.13,0.06 -0.27,0.1 -0.43,0.11l-0.01 0c-0.28,0 -0.49,-0.07 -0.65,-0.22 -0.11,-0.09 -0.18,-0.21 -0.21,-0.35 -0.04,-0.14 -0.04,-0.29 0,-0.45l2.35 -10.16c0.03,-0.14 0.09,-0.27 0.17,-0.4 0.08,-0.12 0.18,-0.23 0.3,-0.32 0.12,-0.09 0.25,-0.16 0.39,-0.22 0.14,-0.05 0.29,-0.08 0.44,-0.08 0.14,0 0.28,0.03 0.4,0.08 0.12,0.06 0.22,0.13 0.3,0.22 0.08,0.09 0.13,0.2 0.16,0.32 0.03,0.13 0.03,0.26 0,0.4l-1.69 7.29 8.72 -7.92c0.14,-0.12 0.3,-0.22 0.46,-0.29 0.17,-0.06 0.33,-0.1 0.49,-0.1 0.18,0 0.32,0.04 0.44,0.1 0.11,0.06 0.2,0.15 0.26,0.26 0.07,0.09 0.12,0.19 0.15,0.31 0.02,0.12 0.02,0.25 -0.01,0.38l-2.34 10.13c-0.04,0.14 -0.1,0.28 -0.18,0.4 -0.09,0.13 -0.19,0.23 -0.31,0.32 -0.12,0.09 -0.25,0.16 -0.4,0.22 -0.14,0.05 -0.29,0.08 -0.44,0.08 -0.15,0 -0.28,-0.03 -0.4,-0.08 -0.12,-0.06 -0.21,-0.13 -0.29,-0.22 -0.07,-0.09 -0.13,-0.19 -0.15,-0.32 -0.03,-0.12 -0.03,-0.26 0.01,-0.4l1.7 -7.39z"/>
   <path class="fil0" d="M337.54 118.94c-0.03,0.14 -0.09,0.28 -0.18,0.4 -0.08,0.13 -0.18,0.23 -0.3,0.32 -0.12,0.09 -0.26,0.16 -0.4,0.21 -0.15,0.06 -0.29,0.09 -0.44,0.09 -0.15,0 -0.28,-0.03 -0.39,-0.09 -0.12,-0.05 -0.22,-0.12 -0.3,-0.21 -0.08,-0.09 -0.13,-0.19 -0.16,-0.32 -0.03,-0.12 -0.02,-0.26 0.01,-0.4l1.67 -7.19 -4 3.9c-0.08,0.09 -0.16,0.17 -0.25,0.24 -0.15,0.12 -0.31,0.21 -0.46,0.26 -0.4,0.12 -0.71,0.04 -0.94,-0.25 -0.07,-0.09 -0.12,-0.18 -0.15,-0.27l-2.2 -3.88 -1.66 7.19c-0.03,0.14 -0.09,0.28 -0.18,0.4 -0.08,0.13 -0.19,0.23 -0.31,0.32 -0.12,0.09 -0.25,0.16 -0.39,0.21 -0.15,0.06 -0.3,0.09 -0.44,0.09 -0.15,0 -0.29,-0.03 -0.4,-0.09 -0.12,-0.05 -0.22,-0.12 -0.29,-0.21 -0.08,-0.09 -0.13,-0.19 -0.16,-0.32 -0.03,-0.12 -0.02,-0.26 0.01,-0.4l2.35 -10.16c0.06,-0.26 0.2,-0.49 0.42,-0.68 0.22,-0.19 0.47,-0.29 0.75,-0.33 0.19,-0.03 0.36,-0.02 0.52,0.04 0.16,0.05 0.28,0.15 0.36,0.29l3.03 5.4 5.48 -5.37c0.11,-0.11 0.23,-0.2 0.36,-0.25 0.14,-0.06 0.28,-0.09 0.41,-0.11 0.02,0 0.04,0 0.07,0 0.02,-0.01 0.04,-0.01 0.06,-0.01 0.16,0 0.29,0.03 0.41,0.08 0.12,0.06 0.22,0.13 0.3,0.22 0.07,0.09 0.12,0.2 0.15,0.32 0.03,0.13 0.02,0.26 -0.01,0.4l-2.35 10.16z"/>
   <path class="fil0" d="M353.63 109.83l-0.64 2.78 3.4 0c0.2,0 0.4,-0.05 0.59,-0.13 0.19,-0.08 0.37,-0.18 0.52,-0.31 0.16,-0.12 0.3,-0.27 0.41,-0.43 0.12,-0.17 0.2,-0.34 0.24,-0.53 0.04,-0.19 0.05,-0.37 0,-0.53 -0.04,-0.17 -0.11,-0.31 -0.22,-0.44 -0.1,-0.13 -0.24,-0.23 -0.4,-0.3 -0.16,-0.07 -0.34,-0.11 -0.54,-0.11l-3.36 0zm-1.12 4.85l-0.74 3.21 3.54 0c0.24,0 0.48,-0.05 0.71,-0.14 0.24,-0.09 0.46,-0.22 0.66,-0.38 0.2,-0.15 0.37,-0.33 0.51,-0.54 0.15,-0.2 0.24,-0.41 0.29,-0.64 0.06,-0.23 0.06,-0.43 0,-0.62 -0.05,-0.19 -0.14,-0.35 -0.27,-0.48 -0.14,-0.13 -0.3,-0.23 -0.5,-0.3 -0.21,-0.07 -0.43,-0.11 -0.67,-0.11l-3.53 0zm-2.31 5.28c-0.15,0 -0.28,-0.03 -0.4,-0.08 -0.12,-0.06 -0.21,-0.13 -0.29,-0.22 -0.08,-0.09 -0.13,-0.19 -0.15,-0.32 -0.03,-0.12 -0.03,-0.26 0,-0.4l2.35 -10.16c0.04,-0.14 0.1,-0.28 0.18,-0.4 0.09,-0.13 0.19,-0.23 0.31,-0.33 0.12,-0.09 0.24,-0.16 0.39,-0.21 0.14,-0.05 0.28,-0.08 0.44,-0.08l4.56 0c0.5,0 0.93,0.09 1.32,0.27 0.39,0.18 0.71,0.42 0.95,0.72 0.25,0.31 0.42,0.67 0.51,1.08 0.08,0.41 0.07,0.85 -0.03,1.32 -0.11,0.43 -0.28,0.85 -0.54,1.25 -0.26,0.4 -0.56,0.76 -0.92,1.09 0.34,0.35 0.58,0.77 0.72,1.26 0.14,0.49 0.14,1.02 0.01,1.6 -0.12,0.5 -0.33,0.98 -0.63,1.41 -0.31,0.44 -0.67,0.82 -1.09,1.15 -0.43,0.32 -0.9,0.58 -1.41,0.77 -0.51,0.18 -1.04,0.28 -1.58,0.28l-4.7 0z"/>
   <path class="fil0" d="M365.05 112.4l0.71 0 4.76 -4.35c0.15,-0.11 0.31,-0.19 0.46,-0.23 0.11,-0.04 0.24,-0.06 0.38,-0.06l1.05 0c0.16,0 0.3,0.03 0.42,0.08 0.12,0.06 0.22,0.13 0.3,0.22 0.08,0.1 0.13,0.21 0.16,0.33 0.03,0.13 0.02,0.27 -0.01,0.41 -0.07,0.3 -0.23,0.55 -0.49,0.74 -0.26,0.19 -0.54,0.29 -0.85,0.29l-0.64 0 -4.31 3.93 3.39 4.41c0.08,0.1 0.13,0.22 0.16,0.35 0.02,0.13 0.02,0.27 -0.02,0.4 -0.03,0.14 -0.09,0.27 -0.18,0.4 -0.08,0.13 -0.2,0.25 -0.33,0.35 -0.26,0.2 -0.52,0.29 -0.79,0.27 -0.26,-0.02 -0.48,-0.13 -0.64,-0.34l-3.96 -5.13 -0.05 0 -1.02 4.42c-0.07,0.3 -0.23,0.55 -0.47,0.76 -0.24,0.2 -0.52,0.31 -0.83,0.31 -0.16,0 -0.29,-0.03 -0.41,-0.09 -0.12,-0.05 -0.22,-0.12 -0.3,-0.22 -0.08,-0.09 -0.13,-0.21 -0.16,-0.33 -0.03,-0.13 -0.03,-0.27 0,-0.41l2.34 -10.1c0.04,-0.14 0.1,-0.28 0.19,-0.41 0.09,-0.13 0.19,-0.24 0.31,-0.33 0.12,-0.1 0.26,-0.17 0.4,-0.23 0.15,-0.05 0.3,-0.08 0.45,-0.08 0.31,0 0.54,0.1 0.69,0.3 0.15,0.2 0.19,0.44 0.12,0.74l-0.83 3.6z"/>
   <path class="fil0" d="M378.84 113.73l3.68 -5.33c0.09,-0.13 0.2,-0.25 0.33,-0.34 0.13,-0.1 0.26,-0.17 0.4,-0.22 0.14,-0.05 0.28,-0.08 0.43,-0.08 0.14,0 0.28,0.02 0.4,0.08 0.13,0.06 0.23,0.14 0.3,0.24 0.07,0.1 0.12,0.21 0.15,0.34 0.02,0.12 0.02,0.25 -0.01,0.39 -0.03,0.13 -0.09,0.27 -0.18,0.4l-4.85 6.83 -0.36 0.53c-0.45,0.62 -0.86,1.15 -1.23,1.59 -0.37,0.43 -0.75,0.8 -1.12,1.08 -0.37,0.29 -0.77,0.5 -1.17,0.63 -0.41,0.14 -0.87,0.22 -1.37,0.23 -0.02,0 -0.03,0 -0.05,0 -0.02,0.01 -0.04,0.01 -0.06,0.01 -0.29,0 -0.53,-0.08 -0.71,-0.25 -0.18,-0.16 -0.23,-0.39 -0.17,-0.68 0.04,-0.15 0.1,-0.29 0.19,-0.42 0.08,-0.13 0.19,-0.24 0.31,-0.34 0.12,-0.09 0.25,-0.17 0.4,-0.22 0.14,-0.06 0.29,-0.08 0.45,-0.08 0.3,0 0.56,-0.02 0.77,-0.09 0.22,-0.06 0.41,-0.16 0.58,-0.3 0.18,-0.13 0.35,-0.31 0.51,-0.51 0.16,-0.21 0.34,-0.45 0.54,-0.73l0.15 -0.24 -1.74 -7.04c-0.02,-0.13 -0.02,-0.27 0.01,-0.4 0.04,-0.14 0.1,-0.27 0.18,-0.39 0.08,-0.13 0.18,-0.24 0.31,-0.34 0.13,-0.1 0.27,-0.18 0.42,-0.24 0.15,-0.06 0.3,-0.08 0.43,-0.08 0.14,0 0.27,0.03 0.39,0.08 0.12,0.05 0.22,0.12 0.3,0.22 0.08,0.09 0.13,0.21 0.16,0.34l1.23 5.33z"/>
   <path class="fil0" d="M396.77 109.51c0.17,0.2 0.22,0.44 0.16,0.72 -0.07,0.27 -0.23,0.51 -0.48,0.72 -0.13,0.1 -0.27,0.17 -0.41,0.22 -0.15,0.05 -0.29,0.08 -0.43,0.08 -0.14,0 -0.27,-0.02 -0.39,-0.07 -0.12,-0.05 -0.22,-0.12 -0.3,-0.22 -0.34,-0.41 -0.75,-0.72 -1.23,-0.92 -0.48,-0.2 -1.01,-0.3 -1.57,-0.3 -0.58,0 -1.16,0.11 -1.73,0.32 -0.56,0.22 -1.09,0.51 -1.56,0.88 -0.48,0.37 -0.89,0.81 -1.24,1.31 -0.34,0.5 -0.58,1.04 -0.71,1.62 -0.13,0.55 -0.15,1.08 -0.05,1.58 0.1,0.49 0.3,0.93 0.6,1.31 0.29,0.38 0.67,0.68 1.13,0.91 0.47,0.22 1.01,0.34 1.62,0.34 0.56,0.01 1.13,-0.08 1.69,-0.28 0.56,-0.19 1.11,-0.5 1.67,-0.93 0.12,-0.09 0.26,-0.16 0.4,-0.21 0.14,-0.05 0.28,-0.07 0.42,-0.07 0.14,0 0.27,0.02 0.4,0.06 0.12,0.05 0.22,0.12 0.3,0.21 0.08,0.1 0.13,0.22 0.16,0.35 0.02,0.12 0.02,0.25 -0.01,0.39 -0.04,0.13 -0.09,0.26 -0.17,0.39 -0.08,0.12 -0.18,0.24 -0.3,0.33 -0.79,0.62 -1.62,1.08 -2.48,1.38 -0.87,0.3 -1.72,0.45 -2.57,0.45 -0.59,0 -1.13,-0.07 -1.65,-0.22 -0.51,-0.15 -0.97,-0.36 -1.39,-0.63 -0.41,-0.26 -0.77,-0.59 -1.07,-0.96 -0.31,-0.38 -0.54,-0.8 -0.72,-1.26 -0.17,-0.46 -0.27,-0.95 -0.3,-1.48 -0.03,-0.52 0.02,-1.07 0.15,-1.64 0.13,-0.54 0.32,-1.07 0.59,-1.59 0.26,-0.52 0.58,-1.01 0.96,-1.47 0.37,-0.46 0.8,-0.88 1.27,-1.27 0.48,-0.38 0.99,-0.72 1.53,-1 0.54,-0.28 1.11,-0.49 1.71,-0.65 0.6,-0.15 1.21,-0.23 1.84,-0.23 0.83,0 1.61,0.15 2.34,0.46 0.72,0.3 1.33,0.76 1.82,1.37z"/>
   <path class="fil0" d="M400.99 112.84l6.74 0 0.94 -4.06c0.03,-0.14 0.09,-0.27 0.17,-0.4 0.09,-0.12 0.19,-0.23 0.31,-0.32 0.12,-0.09 0.25,-0.16 0.4,-0.22 0.14,-0.05 0.29,-0.08 0.45,-0.08 0.14,0 0.28,0.03 0.39,0.08 0.13,0.06 0.22,0.13 0.3,0.22 0.07,0.09 0.12,0.2 0.14,0.32 0.03,0.13 0.03,0.26 0,0.4l-2.36 10.16c-0.03,0.14 -0.09,0.28 -0.17,0.4 -0.09,0.13 -0.19,0.23 -0.31,0.32 -0.12,0.09 -0.26,0.16 -0.4,0.22 -0.14,0.05 -0.29,0.08 -0.44,0.08 -0.15,0 -0.28,-0.03 -0.4,-0.08 -0.12,-0.06 -0.21,-0.13 -0.29,-0.22 -0.07,-0.09 -0.13,-0.19 -0.15,-0.32 -0.03,-0.12 -0.03,-0.26 0,-0.4l0.93 -4.02 -6.73 0 -0.93 4.02c-0.04,0.14 -0.1,0.28 -0.18,0.4 -0.09,0.13 -0.19,0.23 -0.31,0.32 -0.12,0.09 -0.25,0.16 -0.4,0.22 -0.14,0.05 -0.29,0.08 -0.43,0.08 -0.16,0 -0.29,-0.03 -0.41,-0.08 -0.12,-0.06 -0.21,-0.13 -0.29,-0.22 -0.07,-0.09 -0.12,-0.19 -0.15,-0.32 -0.03,-0.12 -0.03,-0.26 0.01,-0.4l2.35 -10.16c0.03,-0.14 0.09,-0.27 0.17,-0.4 0.09,-0.12 0.19,-0.23 0.31,-0.32 0.11,-0.09 0.24,-0.16 0.39,-0.22 0.14,-0.05 0.29,-0.08 0.44,-0.08 0.14,0 0.28,0.03 0.4,0.08 0.12,0.06 0.22,0.13 0.3,0.22 0.08,0.09 0.13,0.2 0.15,0.32 0.03,0.13 0.03,0.26 0,0.4l-0.94 4.06z"/>
   <path class="fil0" d="M416.33 113.73l3.68 -5.33c0.09,-0.13 0.2,-0.25 0.33,-0.34 0.13,-0.1 0.26,-0.17 0.4,-0.22 0.14,-0.05 0.29,-0.08 0.43,-0.08 0.14,0 0.28,0.02 0.4,0.08 0.13,0.06 0.23,0.14 0.3,0.24 0.07,0.1 0.12,0.21 0.15,0.34 0.02,0.12 0.02,0.25 -0.01,0.39 -0.03,0.13 -0.09,0.27 -0.18,0.4l-4.85 6.83 -0.36 0.53c-0.45,0.62 -0.85,1.15 -1.23,1.59 -0.37,0.43 -0.74,0.8 -1.12,1.08 -0.37,0.29 -0.76,0.5 -1.17,0.63 -0.41,0.14 -0.86,0.22 -1.37,0.23 -0.02,0 -0.03,0 -0.05,0 -0.02,0.01 -0.04,0.01 -0.05,0.01 -0.3,0 -0.54,-0.08 -0.72,-0.25 -0.18,-0.16 -0.23,-0.39 -0.16,-0.68 0.03,-0.15 0.09,-0.29 0.18,-0.42 0.08,-0.13 0.19,-0.24 0.31,-0.34 0.12,-0.09 0.26,-0.17 0.4,-0.22 0.15,-0.06 0.3,-0.08 0.45,-0.08 0.3,0 0.56,-0.02 0.77,-0.09 0.22,-0.06 0.41,-0.16 0.59,-0.3 0.17,-0.13 0.34,-0.31 0.5,-0.51 0.16,-0.21 0.34,-0.45 0.54,-0.73l0.15 -0.24 -1.74 -7.04c-0.02,-0.13 -0.02,-0.27 0.02,-0.4 0.03,-0.14 0.09,-0.27 0.17,-0.39 0.08,-0.13 0.19,-0.24 0.31,-0.34 0.13,-0.1 0.27,-0.18 0.42,-0.24 0.15,-0.06 0.3,-0.08 0.44,-0.08 0.14,0 0.26,0.03 0.38,0.08 0.12,0.05 0.22,0.12 0.3,0.22 0.08,0.09 0.13,0.21 0.16,0.34l1.23 5.33z"/>
   <path class="fil0" d="M433.94 109.74c-0.59,0 -1.17,0.11 -1.74,0.33 -0.57,0.22 -1.1,0.52 -1.58,0.9 -0.48,0.38 -0.89,0.82 -1.23,1.32 -0.35,0.5 -0.59,1.03 -0.72,1.59 -0.13,0.56 -0.14,1.1 -0.02,1.6 0.11,0.5 0.32,0.94 0.62,1.31 0.31,0.38 0.7,0.67 1.17,0.89 0.47,0.21 1,0.32 1.59,0.32 0.59,0 1.17,-0.11 1.74,-0.32 0.57,-0.22 1.1,-0.51 1.57,-0.89 0.47,-0.37 0.88,-0.81 1.22,-1.31 0.35,-0.5 0.58,-1.04 0.71,-1.6 0.13,-0.56 0.14,-1.09 0.03,-1.59 -0.11,-0.5 -0.31,-0.94 -0.61,-1.32 -0.3,-0.38 -0.69,-0.68 -1.16,-0.9 -0.47,-0.22 -1,-0.33 -1.59,-0.33zm0.48 -2.06c0.6,0 1.15,0.07 1.67,0.22 0.52,0.15 0.98,0.36 1.4,0.62 0.41,0.27 0.77,0.59 1.08,0.97 0.3,0.38 0.54,0.8 0.71,1.26 0.17,0.46 0.28,0.95 0.31,1.48 0.03,0.53 -0.02,1.08 -0.16,1.65 -0.19,0.86 -0.55,1.66 -1.06,2.41 -0.51,0.75 -1.12,1.4 -1.84,1.97 -0.71,0.56 -1.49,1 -2.35,1.32 -0.86,0.33 -1.73,0.49 -2.63,0.49 -0.81,0 -1.54,-0.13 -2.2,-0.39 -0.65,-0.26 -1.21,-0.62 -1.66,-1.08 -0.46,-0.46 -0.8,-1.01 -1.04,-1.63 -0.23,-0.63 -0.33,-1.31 -0.29,-2.04l-1.52 0 -0.92 3.98c-0.04,0.15 -0.09,0.28 -0.18,0.41 -0.08,0.13 -0.18,0.25 -0.3,0.34 -0.11,0.1 -0.24,0.17 -0.38,0.23 -0.14,0.06 -0.28,0.09 -0.43,0.09 -0.16,0 -0.29,-0.03 -0.42,-0.09 -0.12,-0.06 -0.22,-0.13 -0.3,-0.23 -0.08,-0.09 -0.13,-0.21 -0.16,-0.34 -0.03,-0.13 -0.03,-0.26 0.01,-0.41l2.33 -10.06c0.03,-0.15 0.09,-0.29 0.18,-0.41 0.09,-0.13 0.2,-0.25 0.32,-0.34 0.12,-0.1 0.26,-0.17 0.4,-0.23 0.16,-0.06 0.31,-0.09 0.46,-0.09 0.15,0 0.28,0.03 0.4,0.09 0.11,0.06 0.2,0.13 0.27,0.23 0.07,0.09 0.12,0.21 0.14,0.34 0.02,0.12 0.02,0.26 -0.01,0.41l-0.93 4.01 1.52 0c0.3,-0.73 0.7,-1.41 1.22,-2.04 0.53,-0.64 1.12,-1.18 1.8,-1.65 0.67,-0.47 1.39,-0.83 2.17,-1.1 0.78,-0.26 1.58,-0.39 2.39,-0.39z"/>
   <path class="fil0" d="M450.42 119.96c-0.28,-0.03 -0.49,-0.14 -0.64,-0.32 -0.15,-0.19 -0.19,-0.43 -0.12,-0.71l2.34 -10.13c0.04,-0.14 0.1,-0.28 0.18,-0.41 0.09,-0.12 0.19,-0.23 0.31,-0.33 0.12,-0.09 0.25,-0.16 0.39,-0.22 0.15,-0.05 0.3,-0.08 0.45,-0.08l6.97 0c0.14,0 0.28,0.03 0.4,0.08 0.12,0.06 0.21,0.13 0.28,0.22 0.07,0.1 0.13,0.21 0.15,0.33 0.03,0.13 0.03,0.27 -0.01,0.41 -0.03,0.15 -0.09,0.28 -0.18,0.41 -0.08,0.12 -0.18,0.23 -0.3,0.32 -0.11,0.09 -0.24,0.16 -0.39,0.22 -0.14,0.05 -0.29,0.08 -0.43,0.08l-5.89 0 -0.66 2.84 4.61 0c0.15,-0.01 0.29,0.02 0.41,0.07 0.12,0.06 0.21,0.14 0.29,0.23 0.07,0.1 0.12,0.21 0.15,0.34 0.03,0.13 0.02,0.27 -0.01,0.41 -0.03,0.14 -0.09,0.28 -0.18,0.4 -0.08,0.12 -0.18,0.22 -0.3,0.32 -0.12,0.09 -0.25,0.16 -0.39,0.21 -0.15,0.05 -0.3,0.08 -0.45,0.08l-4.61 0 -0.73 3.16 5.89 0c0.15,0 0.28,0.03 0.4,0.09 0.12,0.05 0.22,0.13 0.29,0.22 0.07,0.1 0.12,0.21 0.14,0.34 0.03,0.12 0.03,0.26 0,0.4 -0.04,0.14 -0.1,0.28 -0.18,0.4 -0.09,0.13 -0.19,0.23 -0.3,0.33 -0.12,0.09 -0.25,0.16 -0.39,0.21 -0.15,0.06 -0.29,0.08 -0.44,0.08l-7.05 0z"/>
   <path class="fil0" d="M464.94 116.47c-0.13,0.54 -0.29,1.01 -0.49,1.42l4.5 0 1.87 -8.06 -4.34 0 -1.54 6.64zm6.62 5.14c-0.03,0.15 -0.09,0.28 -0.18,0.41 -0.08,0.12 -0.18,0.23 -0.31,0.33 -0.12,0.09 -0.25,0.17 -0.4,0.22 -0.14,0.05 -0.29,0.08 -0.43,0.08 -0.16,0 -0.29,-0.03 -0.41,-0.08 -0.12,-0.05 -0.22,-0.13 -0.29,-0.22 -0.08,-0.1 -0.13,-0.21 -0.16,-0.33 -0.02,-0.13 -0.02,-0.26 0.01,-0.41l0.39 -1.65 -7.77 0 -0.38 1.65c-0.03,0.15 -0.09,0.28 -0.18,0.41 -0.08,0.12 -0.18,0.23 -0.3,0.33 -0.11,0.09 -0.24,0.17 -0.39,0.22 -0.14,0.05 -0.29,0.08 -0.44,0.08 -0.15,0 -0.28,-0.03 -0.4,-0.08 -0.13,-0.05 -0.22,-0.13 -0.3,-0.22 -0.08,-0.1 -0.13,-0.21 -0.16,-0.33 -0.03,-0.13 -0.02,-0.26 0.01,-0.41l0.63 -2.72c0.04,-0.19 0.13,-0.36 0.26,-0.51 0.13,-0.15 0.29,-0.27 0.47,-0.36 0.2,-0.1 0.41,-0.15 0.62,-0.15l0.06 0c0.15,0 0.29,-0.05 0.43,-0.14 0.13,-0.09 0.26,-0.21 0.37,-0.35 0.12,-0.14 0.22,-0.29 0.3,-0.45 0.08,-0.17 0.14,-0.33 0.17,-0.48l1.77 -7.62c0.06,-0.26 0.2,-0.49 0.41,-0.68 0.21,-0.19 0.45,-0.31 0.71,-0.36 0.01,0 0.02,0 0.02,0 0,-0.01 0.01,-0.01 0.02,-0.01 0.03,0 0.06,-0.01 0.08,-0.01 0.03,0 0.05,-0.01 0.08,-0.01l6.51 0c0.15,0 0.28,0.03 0.4,0.08 0.12,0.06 0.22,0.13 0.3,0.23 0.07,0.09 0.13,0.2 0.15,0.33 0.03,0.12 0.03,0.26 -0.01,0.4l-2.1 9.09c0.04,-0.01 0.07,-0.01 0.11,-0.02 0.04,0 0.07,0 0.11,0 0.15,0 0.28,0.03 0.4,0.08 0.12,0.06 0.22,0.13 0.3,0.22 0.08,0.1 0.13,0.21 0.16,0.34 0.02,0.12 0.02,0.26 -0.01,0.4l-0.63 2.7z"/>
   <path class="fil0" d="M479.29 113.73l3.68 -5.33c0.09,-0.13 0.2,-0.25 0.33,-0.34 0.13,-0.1 0.26,-0.17 0.4,-0.22 0.14,-0.05 0.29,-0.08 0.43,-0.08 0.14,0 0.28,0.02 0.41,0.08 0.12,0.06 0.22,0.14 0.29,0.24 0.08,0.1 0.12,0.21 0.15,0.34 0.02,0.12 0.02,0.25 -0.01,0.39 -0.03,0.13 -0.08,0.27 -0.18,0.4l-4.85 6.83 -0.36 0.53c-0.44,0.62 -0.85,1.15 -1.23,1.59 -0.37,0.43 -0.74,0.8 -1.12,1.08 -0.37,0.29 -0.76,0.5 -1.17,0.63 -0.41,0.14 -0.86,0.22 -1.37,0.23 -0.01,0 -0.03,0 -0.05,0 -0.02,0.01 -0.04,0.01 -0.05,0.01 -0.3,0 -0.54,-0.08 -0.72,-0.25 -0.17,-0.16 -0.23,-0.39 -0.16,-0.68 0.03,-0.15 0.09,-0.29 0.18,-0.42 0.09,-0.13 0.19,-0.24 0.31,-0.34 0.12,-0.09 0.26,-0.17 0.4,-0.22 0.15,-0.06 0.3,-0.08 0.45,-0.08 0.3,0 0.56,-0.02 0.78,-0.09 0.21,-0.06 0.4,-0.16 0.58,-0.3 0.17,-0.13 0.34,-0.31 0.5,-0.51 0.16,-0.21 0.34,-0.45 0.55,-0.73l0.14 -0.24 -1.73 -7.04c-0.03,-0.13 -0.03,-0.27 0.01,-0.4 0.03,-0.14 0.09,-0.27 0.17,-0.39 0.08,-0.13 0.19,-0.24 0.31,-0.34 0.13,-0.1 0.27,-0.18 0.42,-0.24 0.15,-0.06 0.3,-0.08 0.44,-0.08 0.14,0 0.27,0.03 0.38,0.08 0.12,0.05 0.22,0.12 0.3,0.22 0.08,0.09 0.14,0.21 0.17,0.34l1.22 5.33z"/>
   <path class="fil0" d="M391.91 36.03l-17.33 0c-1.62,0 -2.92,0.9 -3.16,2.19l-10.46 55.7c-0.34,1.84 1.58,3.64 3.9,3.64l17.29 0c1.63,0 2.93,-0.91 3.17,-2.21l0.63 -3.54c0.33,-1.84 -1.59,-3.62 -3.9,-3.62l-2.36 0c-2.33,0 -4.25,-1.81 -3.9,-3.66l2.01 -10.38c0.24,-1.28 1.54,-2.17 3.15,-2.17l6.04 0c1.63,0 2.93,-0.92 3.17,-2.22l0.63 -3.53c0.33,-1.85 -1.59,-3.63 -3.9,-3.63l-2.37 0c-2.32,0 -4.24,-1.81 -3.89,-3.66l2.18 -11.35c0.25,-1.29 1.55,-2.19 3.16,-2.19l6.04 0c1.62,0 2.93,-0.91 3.16,-2.21l0.63 -3.53c0.33,-1.85 -1.59,-3.63 -3.89,-3.63zm36.36 7.16l0.63 -3.53c0.33,-1.85 -1.59,-3.63 -3.9,-3.63l-24.07 0c-1.63,0 -2.93,0.91 -3.16,2.21l-0.63 3.54c-0.33,1.84 1.58,3.62 3.89,3.62 2.32,0 4.24,1.81 3.9,3.65l-8.48 44.86c-0.35,1.85 1.57,3.65 3.89,3.65l5.78 0c1.61,0 2.91,-0.9 3.16,-2.18l9.02 -47.79c0.25,-1.28 1.55,-2.19 3.16,-2.19l3.64 0c1.63,0 2.94,-0.91 3.17,-2.21zm67.4 -7.16l-24.07 0c-1.63,0 -2.93,0.91 -3.16,2.21l-0.63 3.54c-0.33,1.84 1.58,3.62 3.89,3.62 2.32,0 4.24,1.81 3.89,3.65l-8.47 44.86c-0.35,1.85 1.57,3.65 3.89,3.65l5.78 0c1.61,0 2.91,-0.9 3.16,-2.18l9.02 -47.79c0.25,-1.28 1.55,-2.19 3.16,-2.19l3.64 0c1.63,0 2.94,-0.91 3.17,-2.21l0.63 -3.53c0.33,-1.85 -1.59,-3.63 -3.9,-3.63zm-35.09 0l-4.99 0c-1.8,0 -3.24,1 -3.5,2.43l-2.43 13.22 -6.71 10.98c-0.51,0.83 -2.13,0.3 -1.95,-0.64l4.1 -21.95c0.39,-2.05 -1.74,-4.04 -4.3,-4.04l-5 0c-1.79,0 -3.23,1 -3.49,2.42l-10.35 55.08c-0.38,2.04 1.75,4.03 4.31,4.03l4.99 0c1.8,0 3.24,-1 3.5,-2.44l1.24 -6.83 6.55 -10.18c0.53,-0.81 2.12,-0.27 1.94,0.66l-2.75 14.76c-0.38,2.04 1.75,4.03 4.31,4.03l5 0c1.79,0 3.23,-0.99 3.49,-2.42l10.35 -55.08c0.38,-2.04 -1.75,-4.03 -4.31,-4.03zm-140.85 0l-26.85 0c-1.62,0 -2.92,0.9 -3.16,2.19l-10.46 55.7c-0.35,1.84 1.58,3.64 3.89,3.64l5.78 0c1.62,0 2.92,-0.9 3.16,-2.18l9.03 -47.79c0.24,-1.29 1.54,-2.19 3.16,-2.19l0.64 0c2.32,0 4.24,1.81 3.89,3.65l-8.47 44.86c-0.35,1.85 1.57,3.65 3.89,3.65l5.77 0c1.62,0 2.92,-0.9 3.16,-2.19l10.46 -55.69c0.35,-1.85 -1.58,-3.65 -3.89,-3.65zm-51.04 11.61l-3.09 16.29c-0.25,1.29 -1.54,2.19 -3.16,2.19l-0.04 0c-2.32,0 -4.25,-1.81 -3.9,-3.66l2.69 -14.14c0.27,-1.64 1.26,-2.34 3.3,-2.34l2.58 0c0.85,0 1.31,0.14 1.45,0.27 0.17,0.16 0.3,0.61 0.17,1.39zm10.96 -8.77c-2,-1.88 -5.14,-2.84 -9.36,-2.84l-7.15 0c-8.4,0 -13.4,3.74 -14.89,11.12l-8.75 46.77c-0.34,1.85 1.58,3.64 3.9,3.64l5.77 0c1.62,0 2.92,-0.9 3.16,-2.18l3.24 -17.13c0.24,-1.29 1.54,-2.19 3.16,-2.19l0.04 0c2.32,0 4.24,1.8 3.89,3.65l-2.68 14.2c-0.35,1.85 1.57,3.65 3.89,3.65l5.78 0c1.62,0 2.92,-0.9 3.16,-2.19l8.89 -47.5c0.79,-3.94 0.1,-6.97 -2.05,-9zm80.93 -2.84l-26.85 0c-1.62,0 -2.92,0.9 -3.16,2.19l-10.46 55.7c-0.34,1.84 1.58,3.64 3.9,3.64l5.77 0c1.62,0 2.92,-0.9 3.16,-2.18l9.03 -47.79c0.24,-1.28 1.54,-2.19 3.16,-2.19l0.64 0c2.32,0 4.24,1.81 3.89,3.65l-8.47 44.86c-0.35,1.85 1.57,3.65 3.89,3.65l5.77 0c1.62,0 2.92,-0.9 3.16,-2.19l10.46 -55.69c0.35,-1.85 -1.57,-3.65 -3.89,-3.65z"/>
   <path class="fil0" d="M124.44 124.87l-33.24 1 63.98 11c-1.71,-2.78 -30.22,-8.87 -30.74,-12z"/>
   <path class="fil0" d="M103.07 101.51l-53.1 1.6 59.11 6.87c-1.71,-2.78 -5.49,-5.34 -6.01,-8.47z"/>
   <path class="fil0" d="M92.56 68.99l-92.55 3.37 94.8 9.31c-2.68,-3.77 -1.44,-8.44 -2.25,-12.68z"/>
   <path class="fil0" d="M128.7 13.16l-53.1 -1.6 63.98 -6.86c-1.71,2.77 -10.36,5.33 -10.88,8.46z"/>
   <path class="fil0" d="M97.81 45.65l-68.5 -1.83 73.75 -6.18c-2.51,2.78 -4.48,4.88 -5.25,8.01z"/>
  </g>
 </g>
</svg>
