<?xml version="1.0" encoding="UTF-8"?>
<!DOCTYPE svg PUBLIC "-//W3C//DTD SVG 1.1//EN" "http://www.w3.org/Graphics/SVG/1.1/DTD/svg11.dtd">
<!-- Creator: CorelDRAW 2019 (64-Bit) -->
<svg xmlns="http://www.w3.org/2000/svg" xml:space="preserve" width="500px" height="136px" version="1.1" style="shape-rendering:geometricPrecision; text-rendering:geometricPrecision; image-rendering:optimizeQuality; fill-rule:evenodd; clip-rule:evenodd"
viewBox="0 0 500 136.1"
 xmlns:xlink="http://www.w3.org/1999/xlink"
 xmlns:xodm="http://www.corel.com/coreldraw/odm/2003">
 <defs>
  <style type="text/css">
   <![CDATA[
    .fil0 {fill:#ED1C24;fill-rule:nonzero}
   ]]>
  </style>
 </defs>
 <g id="Слой_x0020_1">
  <metadata id="CorelCorpID_0Corel-Layer"/>
  <g id="_2851583352576">
   <path class="fil0" d="M131.21 114.74c0.71,0.27 1.34,0.72 1.83,1.31l2.01 2.43c0.23,0.27 0.55,0.44 0.9,0.48 0.35,0.03 0.69,-0.08 0.97,-0.3 0.56,-0.46 0.64,-1.3 0.17,-1.87l-2 -2.43c-0.95,-1.15 -2.21,-1.95 -3.65,-2.33l-8.09 -2.12c-1.56,-0.43 -2.77,-1.65 -3.16,-3.22l-2 -8.11c-0.35,-1.45 -1.14,-2.72 -2.28,-3.69l-6.36 -5.42c-1.22,-1.05 -1.78,-2.68 -1.45,-4.26l1.72 -8.18c0.31,-1.45 0.15,-2.95 -0.45,-4.31l-3.38 -7.64c-0.65,-1.48 -0.45,-3.19 0.54,-4.48l5.1 -6.62c0.91,-1.18 1.41,-2.59 1.46,-4.07l0.27 -8.36c0.06,-1.61 0.98,-3.07 2.43,-3.79l7.47 -3.76c1.33,-0.67 2.39,-1.72 3.08,-3.04l3.87 -7.41c0.75,-1.43 2.22,-2.34 3.84,-2.36l8.35 -0.15c1.49,-0.02 2.91,-0.51 4.1,-1.4l6.7 -4.99c1.29,-0.96 2.99,-1.15 4.48,-0.47l7.59 3.5c1.36,0.62 2.85,0.8 4.3,0.52l5.48 -1.07c0.34,-0.07 0.64,-0.26 0.84,-0.56 0.2,-0.29 0.27,-0.64 0.2,-0.99 -0.13,-0.72 -0.83,-1.19 -1.55,-1.05l-5.47 1.06c-0.9,0.18 -1.83,0.07 -2.68,-0.32l-7.6 -3.5c-2.35,-1.09 -5.09,-0.79 -7.17,0.75l-6.7 5c-0.75,0.56 -1.63,0.86 -2.56,0.87l-8.36 0.15c-2.59,0.04 -4.94,1.49 -6.14,3.79l-3.87 7.41c-0.43,0.82 -1.09,1.48 -1.92,1.89l-7.47 3.76c-2.31,1.16 -3.8,3.49 -3.89,6.08l-0.27 8.35c-0.03,0.93 -0.35,1.81 -0.91,2.55l-5.1 6.62c-1.58,2.05 -1.91,4.79 -0.86,7.16l3.37 7.64c0.38,0.85 0.48,1.78 0.29,2.7l-1.72 8.17c-0.54,2.54 0.36,5.15 2.33,6.83l6.36 5.42c0.7,0.6 1.2,1.4 1.42,2.3l2 8.12c0.62,2.52 2.55,4.49 5.06,5.14l8.08 2.12c0.15,0.04 0.3,0.09 0.45,0.15z"/>
   <path class="fil0" d="M181.7 8.75c-32.75,-12.44 -69.52,4.08 -81.96,36.83 -12.44,32.75 4.08,69.52 36.83,81.96 32.75,12.44 69.51,-4.08 81.96,-36.83 12.44,-32.75 -4.08,-69.51 -36.83,-81.96zm-46.73 123.01c-35.08,-13.33 -52.77,-52.71 -39.44,-87.78 13.32,-35.07 52.7,-52.77 87.77,-39.44 35.08,13.32 52.77,52.7 39.44,87.77 -13.32,35.08 -52.7,52.77 -87.77,39.45z"/>
   <path class="fil0" d="M197.42 41c0.24,-0.14 0.49,-0.27 0.73,-0.4 0.98,-0.52 1.26,-1.74 0.58,-2.65 -2.26,-3.03 -4.86,-5.86 -7.75,-8.45 -0.71,-0.63 -1.76,-0.72 -2.52,-0.24 -5.25,3.27 -11,6.58 -17.62,9.44 -0.45,0.19 -0.8,0.55 -0.97,0.99l-4.41 11.62c-0.57,1.48 1.01,3 2.62,2.54 11.69,-3.4 21.02,-8.4 29.34,-12.85z"/>
   <path class="fil0" d="M206.29 85.92c0.14,-0.36 0.27,-0.73 0.4,-1.1 0.32,-0.92 -0.71,-1.81 -1.67,-1.44 -13.78,5.35 -30.94,10.24 -53.94,8.18 -0.52,-0.05 -1,0.22 -1.18,0.68l-3.77 9.93c-0.24,0.64 0.2,1.37 0.93,1.53 18.34,4.06 33.48,3.53 45.9,1.05 0.21,-0.04 0.41,-0.14 0.56,-0.28 5.56,-4.99 9.99,-11.23 12.77,-18.55z"/>
   <path class="fil0" d="M203.85 59.14c0.95,-0.44 1.88,-0.86 2.8,-1.27 0.76,-0.34 1.16,-1.15 0.94,-1.95 -1.14,-4.15 -2.81,-8.19 -4.97,-12.01 -0.51,-0.91 -1.74,-1.26 -2.65,-0.77 -0.29,0.16 -0.57,0.31 -0.86,0.46 -9.74,5.22 -20.85,11.17 -35.41,14.55 -0.58,0.13 -1.04,0.51 -1.24,1.03l-4.06 10.71c-0.48,1.25 0.68,2.58 2.11,2.44 18.2,-1.77 31.68,-7.89 43.34,-13.19z"/>
   <path class="fil0" d="M185.58 25.23c-2.18,-1.53 -4.49,-2.94 -6.92,-4.2 -0.75,-0.39 -1.67,-0.08 -1.95,0.65l-3.8 10c-0.43,1.14 0.93,2.24 2.07,1.67 3.8,-1.91 7.31,-3.94 10.61,-5.97 0.78,-0.49 0.78,-1.59 -0.01,-2.15z"/>
   <path class="fil0" d="M208.55 77.95c0.97,-5.13 1.08,-10.31 0.39,-15.39 -0.14,-1.07 -1.4,-1.72 -2.41,-1.26 -0.38,0.17 -0.77,0.35 -1.16,0.53 -12.73,5.79 -27.56,12.53 -48.16,13.79 -0.61,0.04 -1.14,0.4 -1.35,0.94l-3.82 10.06c-0.37,0.97 0.4,2.06 1.52,2.14 23.36,1.61 40.45,-4.15 54.08,-9.73 0.48,-0.2 0.81,-0.6 0.91,-1.08z"/>
   <path class="fil0" d="M144.34 106.88l-2.96 7.8c-0.2,0.53 0.14,1.15 0.74,1.31 15.1,3.95 30.46,1.76 42.7,-5.23 0.91,-0.53 0.33,-1.89 -0.76,-1.78 -11.04,1.11 -23.86,0.65 -38.56,-2.66 -0.5,-0.12 -0.99,0.12 -1.16,0.56z"/>
   <path class="fil0" d="M154.38 33.26c-1.34,3.53 -5.29,5.3 -8.81,3.96 -3.53,-1.34 -5.3,-5.28 -3.96,-8.81 1.34,-3.53 5.28,-5.3 8.81,-3.96 3.53,1.34 5.3,5.28 3.96,8.81z"/>
   <path class="fil0" d="M137.62 93.42c-1.34,3.52 -5.28,5.3 -8.81,3.96 -3.53,-1.34 -5.3,-5.29 -3.96,-8.82 1.34,-3.52 5.29,-5.3 8.81,-3.96 3.53,1.34 5.3,5.29 3.96,8.82z"/>
   <path class="fil0" d="M130.52 61c-1.34,3.52 -5.28,5.3 -8.81,3.96 -3.53,-1.34 -5.3,-5.29 -3.96,-8.82 1.34,-3.52 5.29,-5.3 8.81,-3.96 3.53,1.34 5.3,5.29 3.96,8.82z"/>
   <path class="fil0" d="M119.7 87.26c-0.32,0.84 -1.25,1.26 -2.09,0.94 -0.83,-0.32 -1.25,-1.25 -0.93,-2.09 0.31,-0.83 1.25,-1.25 2.08,-0.93 0.84,0.31 1.26,1.25 0.94,2.08z"/>
   <path class="fil0" d="M171.43 27.12c-0.32,0.84 -1.25,1.26 -2.09,0.94 -0.83,-0.32 -1.25,-1.25 -0.93,-2.09 0.31,-0.83 1.25,-1.25 2.08,-0.94 0.84,0.32 1.26,1.25 0.94,2.09z"/>
   <path class="fil0" d="M138.22 105.5c-0.31,0.84 -1.25,1.26 -2.08,0.94 -0.84,-0.32 -1.26,-1.25 -0.94,-2.09 0.32,-0.83 1.25,-1.25 2.08,-0.93 0.84,0.31 1.26,1.25 0.94,2.08z"/>
   <path class="fil0" d="M162.44 45.36c-0.32,0.84 -1.26,1.26 -2.09,0.94 -0.84,-0.32 -1.26,-1.25 -0.94,-2.09 0.32,-0.83 1.25,-1.25 2.09,-0.93 0.83,0.31 1.25,1.25 0.94,2.08z"/>
   <path class="fil0" d="M124.26 43.57c-0.32,0.83 -1.25,1.25 -2.09,0.93 -0.83,-0.31 -1.25,-1.25 -0.94,-2.08 0.32,-0.84 1.26,-1.26 2.09,-0.94 0.84,0.32 1.26,1.25 0.94,2.09z"/>
   <path class="fil0" d="M151.38 72.78c-0.32,0.83 -1.25,1.26 -2.09,0.94 -0.83,-0.32 -1.25,-1.25 -0.93,-2.09 0.31,-0.84 1.25,-1.25 2.08,-0.94 0.84,0.32 1.26,1.25 0.94,2.09z"/>
   <path class="fil0" d="M137.51 73.54c-0.31,0.84 -1.25,1.26 -2.08,0.94 -0.84,-0.32 -1.26,-1.25 -0.94,-2.09 0.32,-0.83 1.25,-1.25 2.09,-0.93 0.83,0.31 1.25,1.25 0.93,2.08z"/>
   <path class="fil0" d="M157.78 20.2c-0.32,0.84 -1.25,1.26 -2.09,0.94 -0.83,-0.32 -1.25,-1.25 -0.93,-2.08 0.31,-0.84 1.25,-1.26 2.08,-0.94 0.84,0.31 1.26,1.25 0.94,2.08z"/>
   <path class="fil0" d="M117.7 72.94c-0.31,0.83 -1.25,1.25 -2.08,0.94 -0.84,-0.32 -1.26,-1.25 -0.94,-2.09 0.32,-0.84 1.25,-1.26 2.09,-0.94 0.83,0.32 1.25,1.25 0.93,2.09z"/>
   <path class="fil0" d="M147.05 88.75c-0.32,0.83 -1.26,1.25 -2.09,0.93 -0.84,-0.31 -1.26,-1.25 -0.94,-2.08 0.32,-0.84 1.25,-1.26 2.09,-0.94 0.83,0.32 1.25,1.25 0.94,2.09z"/>
   <path class="fil0" d="M139.41 47.59c-0.32,0.84 -1.25,1.26 -2.09,0.94 -0.83,-0.32 -1.25,-1.25 -0.93,-2.09 0.31,-0.83 1.25,-1.25 2.08,-0.93 0.84,0.31 1.26,1.25 0.94,2.08z"/>
   <path class="fil0" d="M136.3 31.1c-0.31,0.84 -1.25,1.26 -2.08,0.94 -0.84,-0.32 -1.26,-1.25 -0.94,-2.09 0.32,-0.83 1.25,-1.25 2.09,-0.93 0.83,0.31 1.25,1.25 0.93,2.08z"/>
   <path class="fil0" d="M157 57.74c-1.34,3.53 -5.28,5.3 -8.81,3.96 -3.53,-1.34 -5.3,-5.29 -3.96,-8.82 1.34,-3.52 5.28,-5.3 8.81,-3.96 3.53,1.35 5.3,5.29 3.96,8.82z"/>
   <path class="fil0" d="M179.04 15.75c-1.21,-0.46 -2.43,-0.87 -3.65,-1.23 -0.46,-0.14 -0.94,0.11 -1.11,0.55l-0.67 1.75c1.5,0.42 2.99,0.9 4.47,1.46 27.5,10.45 41.37,41.32 30.92,68.81 -10.44,27.5 -41.32,41.37 -68.81,30.93 -1.48,-0.57 -2.91,-1.2 -4.31,-1.88l-0.7 1.83c-0.15,0.4 0.03,0.85 0.42,1.03 1.18,0.55 2.39,1.07 3.63,1.55 28.89,10.97 61.33,-3.6 72.3,-32.49 10.98,-28.9 -3.59,-61.33 -32.49,-72.31z"/>
   <path class="fil0" d="M240.14 115.67c-0.13,0.54 -0.29,1.01 -0.49,1.42l4.5 0 1.87 -8.07 -4.34 0 -1.54 6.65zm6.63 5.15c-0.04,0.14 -0.1,0.28 -0.18,0.4 -0.09,0.12 -0.19,0.23 -0.31,0.33 -0.12,0.09 -0.26,0.17 -0.4,0.22 -0.15,0.06 -0.29,0.08 -0.44,0.08 -0.15,0 -0.29,-0.02 -0.41,-0.08 -0.12,-0.05 -0.22,-0.13 -0.29,-0.22 -0.07,-0.1 -0.12,-0.21 -0.15,-0.33 -0.03,-0.12 -0.03,-0.26 0.01,-0.4l0.38 -1.66 -7.77 0 -0.38 1.66c-0.04,0.14 -0.1,0.28 -0.18,0.4 -0.09,0.12 -0.19,0.23 -0.3,0.33 -0.12,0.09 -0.25,0.17 -0.39,0.22 -0.15,0.06 -0.29,0.08 -0.44,0.08 -0.15,0 -0.29,-0.02 -0.41,-0.08 -0.12,-0.05 -0.22,-0.13 -0.3,-0.22 -0.07,-0.1 -0.13,-0.21 -0.15,-0.33 -0.03,-0.12 -0.03,-0.26 0,-0.4l0.64 -2.73c0.04,-0.19 0.13,-0.36 0.26,-0.51 0.13,-0.15 0.28,-0.27 0.46,-0.36 0.21,-0.1 0.42,-0.15 0.63,-0.15l0.06 0c0.14,0 0.29,-0.05 0.42,-0.14 0.14,-0.09 0.27,-0.21 0.38,-0.35 0.12,-0.14 0.22,-0.29 0.3,-0.45 0.08,-0.17 0.14,-0.33 0.17,-0.48l1.77 -7.63c0.06,-0.26 0.2,-0.48 0.41,-0.68 0.21,-0.19 0.45,-0.31 0.72,-0.36 0,0 0.01,0 0.01,0 0.01,-0.01 0.01,-0.01 0.02,-0.01 0.03,0 0.06,-0.01 0.09,-0.01 0.02,0 0.05,-0.01 0.07,-0.01l6.52 0c0.14,0 0.28,0.03 0.4,0.08 0.12,0.06 0.22,0.13 0.29,0.23 0.08,0.09 0.13,0.2 0.16,0.33 0.03,0.12 0.03,0.26 -0.01,0.4l-2.1 9.1c0.03,-0.01 0.07,-0.01 0.1,-0.02 0.04,0 0.08,0 0.12,0 0.15,0 0.28,0.03 0.4,0.08 0.12,0.05 0.22,0.13 0.3,0.22 0.07,0.1 0.13,0.21 0.15,0.34 0.03,0.12 0.03,0.26 -0.01,0.4l-0.62 2.71z"/>
   <path class="fil0" d="M257.51 108.94c-0.6,0 -1.19,0.11 -1.76,0.32 -0.58,0.22 -1.1,0.51 -1.58,0.89 -0.47,0.37 -0.88,0.81 -1.22,1.31 -0.35,0.51 -0.58,1.04 -0.71,1.61 -0.14,0.58 -0.15,1.12 -0.04,1.63 0.11,0.5 0.31,0.93 0.62,1.31 0.3,0.37 0.69,0.66 1.16,0.87 0.48,0.22 1.02,0.32 1.61,0.32 0.6,0 1.19,-0.1 1.76,-0.32 0.57,-0.21 1.1,-0.5 1.58,-0.87 0.48,-0.38 0.89,-0.81 1.23,-1.31 0.34,-0.51 0.58,-1.05 0.71,-1.63 0.14,-0.57 0.15,-1.1 0.04,-1.61 -0.11,-0.5 -0.32,-0.94 -0.63,-1.31 -0.3,-0.38 -0.69,-0.67 -1.16,-0.89 -0.48,-0.21 -1.02,-0.32 -1.61,-0.32zm0.47 -2.07c0.59,0 1.15,0.07 1.67,0.22 0.51,0.15 0.98,0.36 1.4,0.63 0.42,0.26 0.78,0.59 1.09,0.96 0.31,0.38 0.55,0.8 0.73,1.26 0.17,0.46 0.28,0.96 0.31,1.49 0.04,0.52 -0.01,1.07 -0.15,1.64 -0.2,0.86 -0.55,1.67 -1.07,2.42 -0.51,0.75 -1.13,1.4 -1.85,1.97 -0.72,0.56 -1.51,1 -2.37,1.32 -0.86,0.33 -1.74,0.49 -2.64,0.49 -0.59,0 -1.15,-0.07 -1.67,-0.22 -0.52,-0.14 -0.99,-0.35 -1.41,-0.62 -0.41,-0.27 -0.77,-0.6 -1.08,-0.97 -0.3,-0.38 -0.54,-0.8 -0.71,-1.26 -0.18,-0.46 -0.28,-0.95 -0.31,-1.48 -0.03,-0.52 0.02,-1.07 0.15,-1.65 0.14,-0.57 0.34,-1.12 0.62,-1.64 0.27,-0.53 0.6,-1.03 0.99,-1.49 0.38,-0.46 0.81,-0.88 1.29,-1.26 0.48,-0.37 0.99,-0.7 1.53,-0.96 0.54,-0.27 1.11,-0.48 1.7,-0.63 0.58,-0.15 1.18,-0.22 1.78,-0.22z"/>
   <path class="fil0" d="M276.9 108.7c0.16,0.2 0.21,0.44 0.15,0.72 -0.07,0.28 -0.22,0.52 -0.48,0.72 -0.13,0.1 -0.26,0.18 -0.41,0.23 -0.14,0.05 -0.29,0.07 -0.42,0.07 -0.14,0 -0.27,-0.02 -0.4,-0.07 -0.12,-0.05 -0.22,-0.12 -0.3,-0.21 -0.34,-0.42 -0.75,-0.72 -1.23,-0.92 -0.48,-0.2 -1.01,-0.3 -1.57,-0.3 -0.59,0 -1.16,0.1 -1.73,0.32 -0.57,0.21 -1.09,0.5 -1.57,0.87 -0.47,0.38 -0.89,0.81 -1.23,1.31 -0.35,0.51 -0.59,1.05 -0.72,1.63 -0.13,0.55 -0.14,1.07 -0.04,1.57 0.1,0.5 0.3,0.94 0.59,1.32 0.29,0.38 0.67,0.68 1.14,0.9 0.47,0.23 1,0.35 1.61,0.35 0.57,0.01 1.14,-0.09 1.7,-0.28 0.56,-0.19 1.11,-0.5 1.67,-0.93 0.12,-0.09 0.26,-0.17 0.4,-0.21 0.14,-0.05 0.29,-0.08 0.42,-0.08 0.14,0 0.28,0.03 0.4,0.07 0.12,0.05 0.22,0.12 0.3,0.21 0.08,0.1 0.13,0.22 0.16,0.35 0.02,0.12 0.02,0.25 -0.01,0.39 -0.03,0.13 -0.09,0.26 -0.17,0.39 -0.08,0.12 -0.18,0.24 -0.3,0.33 -0.79,0.62 -1.62,1.08 -2.48,1.38 -0.87,0.3 -1.72,0.45 -2.58,0.45 -0.58,0 -1.13,-0.07 -1.64,-0.22 -0.52,-0.15 -0.98,-0.36 -1.39,-0.63 -0.41,-0.26 -0.77,-0.59 -1.08,-0.96 -0.3,-0.38 -0.54,-0.8 -0.71,-1.26 -0.17,-0.47 -0.28,-0.96 -0.31,-1.48 -0.03,-0.53 0.02,-1.07 0.15,-1.65 0.13,-0.54 0.33,-1.07 0.59,-1.59 0.27,-0.52 0.59,-1.01 0.96,-1.47 0.38,-0.45 0.8,-0.88 1.28,-1.26 0.47,-0.39 0.98,-0.72 1.53,-1 0.54,-0.29 1.11,-0.5 1.71,-0.66 0.6,-0.15 1.21,-0.23 1.84,-0.23 0.83,0 1.61,0.15 2.34,0.46 0.72,0.3 1.33,0.76 1.83,1.37z"/>
   <path class="fil0" d="M284.54 109.02l-2.11 9.12c-0.03,0.14 -0.09,0.28 -0.18,0.4 -0.08,0.13 -0.19,0.23 -0.31,0.32 -0.12,0.09 -0.25,0.16 -0.39,0.22 -0.15,0.05 -0.3,0.08 -0.44,0.08 -0.15,0 -0.29,-0.03 -0.41,-0.08 -0.11,-0.06 -0.21,-0.13 -0.28,-0.22 -0.08,-0.09 -0.13,-0.19 -0.16,-0.32 -0.03,-0.12 -0.02,-0.26 0.01,-0.4l2.11 -9.12 -2.98 0c-0.15,0 -0.29,-0.02 -0.41,-0.08 -0.11,-0.05 -0.21,-0.13 -0.28,-0.22 -0.08,-0.1 -0.13,-0.21 -0.15,-0.33 -0.03,-0.13 -0.03,-0.26 0,-0.41 0.04,-0.14 0.1,-0.27 0.18,-0.4 0.09,-0.12 0.19,-0.23 0.31,-0.33 0.11,-0.09 0.24,-0.16 0.39,-0.21 0.14,-0.06 0.29,-0.09 0.44,-0.09l8.12 0c0.14,0 0.28,0.03 0.4,0.09 0.12,0.05 0.22,0.12 0.29,0.22 0.08,0.09 0.13,0.21 0.16,0.33 0.03,0.13 0.02,0.26 -0.01,0.4 -0.03,0.15 -0.09,0.28 -0.18,0.41 -0.08,0.12 -0.18,0.23 -0.31,0.32 -0.12,0.09 -0.25,0.17 -0.4,0.22 -0.14,0.06 -0.28,0.08 -0.43,0.08l-2.98 0z"/>
   <path class="fil0" d="M290.38 114.75l3.92 0 -0.91 -4.49 -3.01 4.49zm4.34 2.07l-5.7 0 -1.14 1.72c-0.09,0.13 -0.2,0.24 -0.33,0.34 -0.13,0.1 -0.27,0.17 -0.4,0.21 -0.14,0.04 -0.29,0.07 -0.44,0.06 -0.15,0 -0.28,-0.03 -0.41,-0.09 -0.13,-0.05 -0.23,-0.13 -0.3,-0.23 -0.07,-0.1 -0.12,-0.21 -0.13,-0.33 -0.02,-0.12 0,-0.25 0.04,-0.39 0.04,-0.14 0.11,-0.28 0.2,-0.41l6.9 -10.12c0.14,-0.2 0.31,-0.36 0.5,-0.46 0.2,-0.11 0.41,-0.17 0.63,-0.17 0.22,0 0.4,0.06 0.54,0.17 0.15,0.1 0.25,0.26 0.3,0.45l2.23 10.13c0.06,0.27 0.02,0.53 -0.12,0.79 -0.15,0.26 -0.37,0.45 -0.67,0.57 -0.15,0.06 -0.3,0.09 -0.45,0.09 -0.15,0.01 -0.28,-0.02 -0.4,-0.06 -0.12,-0.05 -0.23,-0.12 -0.31,-0.21 -0.09,-0.1 -0.15,-0.21 -0.18,-0.34l-0.36 -1.72z"/>
   <path class="fil0" d="M303.44 109.02l-0.65 2.79 3.41 0c0.2,-0.01 0.4,-0.05 0.59,-0.13 0.19,-0.08 0.36,-0.18 0.52,-0.31 0.16,-0.13 0.3,-0.28 0.41,-0.44 0.12,-0.17 0.19,-0.34 0.24,-0.53 0.04,-0.19 0.04,-0.36 0,-0.53 -0.04,-0.16 -0.11,-0.31 -0.22,-0.44 -0.11,-0.12 -0.24,-0.22 -0.4,-0.3 -0.17,-0.07 -0.35,-0.11 -0.55,-0.11l-3.35 0zm-1.13 4.85l-0.74 3.22 3.55 0c0.24,0 0.47,-0.05 0.71,-0.14 0.24,-0.09 0.46,-0.22 0.65,-0.38 0.21,-0.16 0.38,-0.34 0.52,-0.54 0.14,-0.2 0.24,-0.42 0.29,-0.64 0.05,-0.23 0.05,-0.44 0,-0.62 -0.05,-0.19 -0.14,-0.35 -0.28,-0.48 -0.13,-0.13 -0.3,-0.23 -0.5,-0.3 -0.2,-0.08 -0.42,-0.12 -0.66,-0.12l-3.54 0zm-2.3 5.29c-0.16,0 -0.29,-0.03 -0.41,-0.08 -0.12,-0.06 -0.21,-0.13 -0.29,-0.22 -0.07,-0.09 -0.13,-0.19 -0.15,-0.32 -0.03,-0.12 -0.03,-0.26 0.01,-0.4l2.35 -10.17c0.03,-0.14 0.09,-0.28 0.18,-0.4 0.08,-0.12 0.18,-0.23 0.3,-0.33 0.12,-0.09 0.25,-0.16 0.39,-0.21 0.14,-0.05 0.29,-0.08 0.44,-0.08l4.57 0c0.49,0 0.93,0.09 1.32,0.27 0.39,0.18 0.7,0.42 0.95,0.73 0.25,0.3 0.42,0.66 0.51,1.07 0.08,0.42 0.07,0.85 -0.04,1.32 -0.1,0.44 -0.28,0.86 -0.53,1.26 -0.26,0.4 -0.56,0.76 -0.92,1.08 0.34,0.35 0.58,0.77 0.72,1.27 0.14,0.49 0.14,1.02 0.01,1.59 -0.12,0.51 -0.33,0.99 -0.64,1.42 -0.3,0.44 -0.66,0.82 -1.09,1.15 -0.42,0.32 -0.89,0.58 -1.4,0.77 -0.52,0.18 -1.05,0.28 -1.58,0.28l-4.7 0z"/>
   <path class="fil0" d="M321.73 110.75l-8.83 8.01c-0.14,0.12 -0.27,0.22 -0.4,0.29 -0.13,0.06 -0.28,0.1 -0.43,0.11l-0.02 0c-0.28,0 -0.49,-0.07 -0.65,-0.22 -0.1,-0.09 -0.18,-0.21 -0.21,-0.35 -0.04,-0.14 -0.04,-0.29 0,-0.45l2.35 -10.17c0.03,-0.14 0.09,-0.27 0.17,-0.4 0.09,-0.12 0.18,-0.23 0.3,-0.32 0.12,-0.09 0.25,-0.16 0.39,-0.22 0.14,-0.05 0.29,-0.08 0.44,-0.08 0.15,0 0.28,0.03 0.4,0.08 0.12,0.06 0.22,0.13 0.3,0.22 0.08,0.09 0.14,0.2 0.17,0.32 0.02,0.13 0.02,0.26 -0.01,0.4l-1.69 7.3 8.73 -7.93c0.14,-0.12 0.3,-0.22 0.46,-0.29 0.17,-0.06 0.33,-0.1 0.49,-0.1 0.18,0 0.32,0.04 0.44,0.1 0.11,0.06 0.2,0.15 0.26,0.26 0.08,0.09 0.12,0.19 0.15,0.31 0.02,0.12 0.02,0.25 -0.01,0.38l-2.34 10.14c-0.04,0.14 -0.1,0.28 -0.18,0.4 -0.09,0.13 -0.19,0.23 -0.31,0.32 -0.12,0.09 -0.26,0.16 -0.4,0.22 -0.14,0.05 -0.29,0.08 -0.44,0.08 -0.15,0 -0.28,-0.03 -0.4,-0.08 -0.12,-0.06 -0.21,-0.13 -0.29,-0.22 -0.08,-0.09 -0.13,-0.19 -0.16,-0.32 -0.02,-0.12 -0.02,-0.26 0.01,-0.4l1.71 -7.39z"/>
   <path class="fil0" d="M337.63 118.14c-0.03,0.14 -0.09,0.28 -0.17,0.4 -0.09,0.13 -0.19,0.23 -0.31,0.32 -0.12,0.09 -0.26,0.16 -0.4,0.22 -0.15,0.05 -0.29,0.08 -0.44,0.08 -0.14,0 -0.28,-0.03 -0.39,-0.08 -0.12,-0.06 -0.22,-0.13 -0.3,-0.22 -0.07,-0.09 -0.13,-0.19 -0.16,-0.32 -0.02,-0.12 -0.02,-0.26 0.01,-0.4l1.67 -7.2 -4 3.91c-0.08,0.09 -0.16,0.17 -0.25,0.24 -0.15,0.12 -0.31,0.2 -0.47,0.25 -0.39,0.13 -0.7,0.05 -0.93,-0.24 -0.08,-0.09 -0.13,-0.18 -0.15,-0.27l-2.2 -3.89 -1.67 7.2c-0.03,0.14 -0.09,0.28 -0.17,0.4 -0.09,0.13 -0.19,0.23 -0.31,0.32 -0.12,0.09 -0.26,0.16 -0.4,0.22 -0.15,0.05 -0.29,0.08 -0.44,0.08 -0.15,0 -0.29,-0.03 -0.4,-0.08 -0.12,-0.06 -0.22,-0.13 -0.29,-0.22 -0.08,-0.09 -0.13,-0.19 -0.16,-0.32 -0.02,-0.12 -0.02,-0.26 0.01,-0.4l2.35 -10.17c0.07,-0.26 0.21,-0.49 0.43,-0.68 0.22,-0.19 0.46,-0.29 0.75,-0.33 0.18,-0.03 0.35,-0.02 0.52,0.04 0.16,0.05 0.28,0.15 0.36,0.29l3.03 5.4 5.49 -5.37c0.1,-0.11 0.22,-0.19 0.36,-0.25 0.13,-0.06 0.27,-0.09 0.41,-0.11 0.02,0 0.04,0 0.06,0 0.03,0 0.05,-0.01 0.07,-0.01 0.15,0 0.29,0.03 0.41,0.09 0.12,0.05 0.22,0.12 0.29,0.21 0.08,0.09 0.13,0.2 0.15,0.32 0.03,0.13 0.03,0.26 0,0.4l-2.36 10.17z"/>
   <path class="fil0" d="M353.74 109.02l-0.65 2.79 3.41 0c0.2,-0.01 0.4,-0.05 0.59,-0.13 0.19,-0.08 0.36,-0.18 0.52,-0.31 0.16,-0.13 0.3,-0.28 0.41,-0.44 0.12,-0.17 0.2,-0.34 0.24,-0.53 0.04,-0.19 0.04,-0.36 0,-0.53 -0.04,-0.16 -0.11,-0.31 -0.22,-0.44 -0.11,-0.12 -0.24,-0.22 -0.4,-0.3 -0.17,-0.07 -0.34,-0.11 -0.54,-0.11l-3.36 0zm-1.13 4.85l-0.74 3.22 3.55 0c0.24,0 0.47,-0.05 0.71,-0.14 0.24,-0.09 0.46,-0.22 0.66,-0.38 0.2,-0.16 0.37,-0.34 0.51,-0.54 0.14,-0.2 0.24,-0.42 0.29,-0.64 0.06,-0.23 0.06,-0.44 0,-0.62 -0.05,-0.19 -0.14,-0.35 -0.28,-0.48 -0.13,-0.13 -0.29,-0.23 -0.5,-0.3 -0.2,-0.08 -0.42,-0.12 -0.66,-0.12l-3.54 0zm-2.3 5.29c-0.16,0 -0.29,-0.03 -0.41,-0.08 -0.11,-0.06 -0.21,-0.13 -0.29,-0.22 -0.07,-0.09 -0.12,-0.19 -0.15,-0.32 -0.03,-0.12 -0.03,-0.26 0.01,-0.4l2.35 -10.17c0.03,-0.14 0.09,-0.28 0.18,-0.4 0.08,-0.12 0.18,-0.23 0.3,-0.33 0.12,-0.09 0.25,-0.16 0.39,-0.21 0.14,-0.05 0.29,-0.08 0.44,-0.08l4.57 0c0.49,0 0.93,0.09 1.32,0.27 0.39,0.18 0.71,0.42 0.95,0.73 0.25,0.3 0.42,0.66 0.51,1.07 0.08,0.42 0.07,0.85 -0.03,1.32 -0.11,0.44 -0.28,0.86 -0.54,1.26 -0.25,0.4 -0.56,0.76 -0.92,1.08 0.34,0.35 0.58,0.77 0.72,1.27 0.14,0.49 0.14,1.02 0.01,1.59 -0.12,0.51 -0.33,0.99 -0.63,1.42 -0.31,0.44 -0.67,0.82 -1.09,1.15 -0.43,0.32 -0.9,0.58 -1.41,0.77 -0.52,0.18 -1.04,0.28 -1.58,0.28l-4.7 0z"/>
   <path class="fil0" d="M365.17 111.6l0.7 0 4.77 -4.36c0.15,-0.11 0.31,-0.18 0.46,-0.23 0.11,-0.04 0.24,-0.06 0.38,-0.06l1.06 0c0.15,0 0.29,0.03 0.41,0.09 0.12,0.05 0.22,0.12 0.3,0.21 0.08,0.1 0.13,0.21 0.16,0.33 0.03,0.13 0.02,0.27 -0.01,0.41 -0.07,0.3 -0.23,0.55 -0.49,0.74 -0.26,0.2 -0.54,0.29 -0.85,0.29l-0.64 0 -4.31 3.94 3.38 4.4c0.09,0.11 0.14,0.23 0.16,0.36 0.03,0.13 0.03,0.27 -0.01,0.4 -0.03,0.14 -0.09,0.27 -0.18,0.4 -0.09,0.13 -0.2,0.25 -0.33,0.35 -0.26,0.2 -0.53,0.3 -0.79,0.27 -0.26,-0.02 -0.48,-0.13 -0.64,-0.34l-3.96 -5.13 -0.05 0 -1.03 4.42c-0.07,0.3 -0.22,0.55 -0.47,0.76 -0.24,0.2 -0.52,0.31 -0.83,0.31 -0.15,0 -0.29,-0.03 -0.41,-0.08 -0.12,-0.06 -0.22,-0.13 -0.3,-0.23 -0.07,-0.09 -0.13,-0.21 -0.16,-0.33 -0.03,-0.13 -0.03,-0.27 0.01,-0.41l2.34 -10.11c0.03,-0.14 0.09,-0.28 0.18,-0.41 0.09,-0.12 0.2,-0.24 0.32,-0.33 0.12,-0.1 0.25,-0.17 0.4,-0.22 0.14,-0.06 0.29,-0.09 0.44,-0.09 0.32,0 0.55,0.1 0.7,0.3 0.15,0.2 0.19,0.44 0.12,0.74l-0.83 3.61z"/>
   <path class="fil0" d="M378.96 112.92l3.69 -5.33c0.09,-0.13 0.2,-0.24 0.33,-0.34 0.13,-0.1 0.26,-0.17 0.4,-0.22 0.14,-0.05 0.28,-0.08 0.43,-0.08 0.14,0 0.28,0.02 0.4,0.08 0.13,0.06 0.23,0.14 0.3,0.24 0.07,0.1 0.12,0.21 0.15,0.34 0.02,0.12 0.02,0.25 -0.01,0.39 -0.03,0.14 -0.09,0.27 -0.18,0.4l-4.86 6.84 -0.36 0.52c-0.44,0.63 -0.85,1.16 -1.22,1.6 -0.38,0.43 -0.75,0.8 -1.13,1.08 -0.37,0.29 -0.76,0.5 -1.17,0.64 -0.41,0.13 -0.86,0.21 -1.37,0.22 -0.01,0 -0.03,0 -0.05,0 -0.02,0.01 -0.04,0.01 -0.05,0.01 -0.3,0 -0.54,-0.08 -0.72,-0.25 -0.17,-0.16 -0.23,-0.39 -0.16,-0.68 0.03,-0.15 0.09,-0.29 0.18,-0.42 0.09,-0.13 0.19,-0.24 0.31,-0.34 0.12,-0.09 0.26,-0.17 0.4,-0.22 0.15,-0.06 0.3,-0.08 0.45,-0.08 0.3,0 0.56,-0.02 0.78,-0.09 0.21,-0.06 0.4,-0.16 0.58,-0.3 0.17,-0.14 0.34,-0.31 0.5,-0.51 0.16,-0.21 0.34,-0.45 0.55,-0.73l0.14 -0.24 -1.73 -7.05c-0.03,-0.13 -0.03,-0.26 0.01,-0.4 0.03,-0.14 0.09,-0.27 0.17,-0.39 0.08,-0.13 0.19,-0.24 0.31,-0.34 0.13,-0.1 0.27,-0.18 0.42,-0.24 0.16,-0.06 0.3,-0.08 0.44,-0.08 0.14,0 0.27,0.03 0.38,0.08 0.12,0.05 0.22,0.12 0.3,0.22 0.08,0.1 0.14,0.21 0.17,0.34l1.22 5.33z"/>
   <path class="fil0" d="M396.91 108.7c0.17,0.2 0.22,0.44 0.16,0.72 -0.07,0.28 -0.23,0.52 -0.48,0.72 -0.13,0.1 -0.27,0.18 -0.41,0.23 -0.15,0.05 -0.29,0.07 -0.43,0.07 -0.14,0 -0.27,-0.02 -0.39,-0.07 -0.12,-0.05 -0.22,-0.12 -0.3,-0.21 -0.34,-0.42 -0.75,-0.72 -1.24,-0.92 -0.48,-0.2 -1,-0.3 -1.56,-0.3 -0.59,0 -1.16,0.1 -1.73,0.32 -0.57,0.21 -1.09,0.5 -1.57,0.87 -0.48,0.38 -0.89,0.81 -1.23,1.31 -0.35,0.51 -0.59,1.05 -0.72,1.63 -0.13,0.55 -0.14,1.07 -0.04,1.57 0.1,0.5 0.29,0.94 0.59,1.32 0.29,0.38 0.67,0.68 1.14,0.9 0.46,0.23 1,0.35 1.61,0.35 0.57,0.01 1.14,-0.09 1.69,-0.28 0.56,-0.19 1.12,-0.5 1.68,-0.93 0.12,-0.09 0.25,-0.17 0.4,-0.21 0.14,-0.05 0.28,-0.08 0.42,-0.08 0.14,0 0.27,0.03 0.4,0.07 0.12,0.05 0.22,0.12 0.3,0.21 0.08,0.1 0.13,0.22 0.15,0.35 0.03,0.12 0.03,0.25 -0.01,0.39 -0.03,0.13 -0.08,0.26 -0.16,0.39 -0.08,0.12 -0.18,0.24 -0.3,0.33 -0.8,0.62 -1.62,1.08 -2.49,1.38 -0.86,0.3 -1.72,0.45 -2.57,0.45 -0.58,0 -1.13,-0.07 -1.64,-0.22 -0.52,-0.15 -0.98,-0.36 -1.39,-0.63 -0.42,-0.26 -0.77,-0.59 -1.08,-0.96 -0.3,-0.38 -0.54,-0.8 -0.71,-1.26 -0.18,-0.47 -0.28,-0.96 -0.31,-1.48 -0.03,-0.53 0.02,-1.07 0.15,-1.65 0.13,-0.54 0.32,-1.07 0.59,-1.59 0.27,-0.52 0.59,-1.01 0.96,-1.47 0.38,-0.45 0.8,-0.88 1.28,-1.26 0.47,-0.39 0.98,-0.72 1.52,-1 0.55,-0.29 1.12,-0.5 1.72,-0.66 0.6,-0.15 1.21,-0.23 1.84,-0.23 0.83,0 1.61,0.15 2.33,0.46 0.73,0.3 1.34,0.76 1.83,1.37z"/>
   <path class="fil0" d="M401.13 112.04l6.75 0 0.94 -4.07c0.03,-0.14 0.09,-0.27 0.17,-0.4 0.09,-0.12 0.19,-0.23 0.31,-0.32 0.12,-0.09 0.25,-0.16 0.4,-0.22 0.15,-0.05 0.29,-0.08 0.45,-0.08 0.14,0 0.28,0.03 0.4,0.08 0.12,0.06 0.21,0.13 0.29,0.22 0.07,0.09 0.12,0.2 0.14,0.32 0.03,0.13 0.03,0.26 0,0.4l-2.36 10.17c-0.03,0.14 -0.09,0.28 -0.17,0.4 -0.09,0.13 -0.19,0.23 -0.31,0.32 -0.12,0.09 -0.26,0.16 -0.4,0.22 -0.14,0.05 -0.29,0.08 -0.44,0.08 -0.15,0 -0.28,-0.03 -0.4,-0.08 -0.12,-0.06 -0.21,-0.13 -0.29,-0.22 -0.08,-0.09 -0.13,-0.19 -0.16,-0.32 -0.02,-0.12 -0.02,-0.26 0.01,-0.4l0.93 -4.03 -6.74 0 -0.93 4.03c-0.03,0.14 -0.09,0.28 -0.18,0.4 -0.08,0.13 -0.19,0.23 -0.31,0.32 -0.12,0.09 -0.25,0.16 -0.4,0.22 -0.14,0.05 -0.29,0.08 -0.43,0.08 -0.16,0 -0.29,-0.03 -0.41,-0.08 -0.11,-0.06 -0.21,-0.13 -0.29,-0.22 -0.07,-0.09 -0.12,-0.19 -0.15,-0.32 -0.03,-0.12 -0.03,-0.26 0.01,-0.4l2.35 -10.17c0.03,-0.14 0.09,-0.27 0.18,-0.4 0.08,-0.12 0.18,-0.23 0.3,-0.32 0.12,-0.09 0.25,-0.16 0.39,-0.22 0.14,-0.05 0.29,-0.08 0.44,-0.08 0.15,0 0.28,0.03 0.4,0.08 0.12,0.06 0.22,0.13 0.3,0.22 0.08,0.09 0.13,0.2 0.16,0.32 0.03,0.13 0.02,0.26 -0.01,0.4l-0.94 4.07z"/>
   <path class="fil0" d="M416.49 112.92l3.68 -5.33c0.09,-0.13 0.2,-0.24 0.33,-0.34 0.13,-0.1 0.26,-0.17 0.4,-0.22 0.14,-0.05 0.29,-0.08 0.43,-0.08 0.14,0 0.28,0.02 0.4,0.08 0.13,0.06 0.23,0.14 0.3,0.24 0.08,0.1 0.12,0.21 0.15,0.34 0.02,0.12 0.02,0.25 -0.01,0.39 -0.03,0.14 -0.09,0.27 -0.18,0.4l-4.86 6.84 -0.36 0.52c-0.44,0.63 -0.85,1.16 -1.22,1.6 -0.38,0.43 -0.75,0.8 -1.13,1.08 -0.37,0.29 -0.76,0.5 -1.17,0.64 -0.4,0.13 -0.86,0.21 -1.37,0.22 -0.01,0 -0.03,0 -0.05,0 -0.02,0.01 -0.04,0.01 -0.05,0.01 -0.3,0 -0.54,-0.08 -0.72,-0.25 -0.17,-0.16 -0.23,-0.39 -0.16,-0.68 0.03,-0.15 0.09,-0.29 0.18,-0.42 0.09,-0.13 0.19,-0.24 0.31,-0.34 0.12,-0.09 0.26,-0.17 0.4,-0.22 0.15,-0.06 0.3,-0.08 0.45,-0.08 0.3,0 0.56,-0.02 0.78,-0.09 0.21,-0.06 0.41,-0.16 0.58,-0.3 0.17,-0.14 0.34,-0.31 0.5,-0.51 0.16,-0.21 0.35,-0.45 0.55,-0.73l0.14 -0.24 -1.73 -7.05c-0.03,-0.13 -0.03,-0.26 0.01,-0.4 0.03,-0.14 0.09,-0.27 0.17,-0.39 0.09,-0.13 0.19,-0.24 0.32,-0.34 0.12,-0.1 0.26,-0.18 0.41,-0.24 0.16,-0.06 0.3,-0.08 0.44,-0.08 0.14,0 0.27,0.03 0.39,0.08 0.11,0.05 0.21,0.12 0.29,0.22 0.08,0.1 0.14,0.21 0.17,0.34l1.23 5.33z"/>
   <path class="fil0" d="M434.11 108.94c-0.59,0 -1.17,0.11 -1.74,0.33 -0.57,0.22 -1.1,0.51 -1.58,0.89 -0.48,0.38 -0.89,0.82 -1.24,1.32 -0.34,0.5 -0.58,1.04 -0.71,1.59 -0.13,0.57 -0.14,1.1 -0.03,1.61 0.12,0.5 0.33,0.94 0.63,1.31 0.31,0.38 0.69,0.67 1.17,0.89 0.47,0.21 1,0.32 1.59,0.32 0.59,0 1.17,-0.11 1.74,-0.32 0.57,-0.22 1.1,-0.51 1.57,-0.89 0.48,-0.37 0.89,-0.81 1.23,-1.31 0.34,-0.51 0.58,-1.04 0.71,-1.61 0.13,-0.55 0.14,-1.09 0.03,-1.59 -0.11,-0.5 -0.32,-0.94 -0.62,-1.32 -0.3,-0.38 -0.68,-0.67 -1.16,-0.89 -0.47,-0.22 -1,-0.33 -1.59,-0.33zm0.48 -2.07c0.6,0 1.16,0.07 1.67,0.22 0.52,0.15 0.99,0.36 1.4,0.63 0.42,0.26 0.78,0.59 1.08,0.96 0.31,0.38 0.55,0.8 0.72,1.26 0.17,0.46 0.27,0.96 0.3,1.49 0.03,0.52 -0.02,1.07 -0.15,1.64 -0.2,0.86 -0.56,1.67 -1.07,2.42 -0.51,0.75 -1.12,1.4 -1.83,1.97 -0.71,0.56 -1.5,1 -2.36,1.32 -0.86,0.33 -1.73,0.49 -2.63,0.49 -0.81,0 -1.54,-0.13 -2.2,-0.39 -0.66,-0.26 -1.21,-0.62 -1.67,-1.08 -0.45,-0.46 -0.8,-1.01 -1.03,-1.64 -0.24,-0.63 -0.34,-1.31 -0.29,-2.04l-1.53 0 -0.92 3.99c-0.03,0.14 -0.09,0.28 -0.17,0.41 -0.09,0.13 -0.19,0.25 -0.3,0.34 -0.12,0.1 -0.25,0.17 -0.39,0.23 -0.13,0.06 -0.28,0.09 -0.43,0.09 -0.16,0 -0.29,-0.03 -0.42,-0.09 -0.12,-0.06 -0.22,-0.13 -0.3,-0.23 -0.07,-0.09 -0.13,-0.21 -0.16,-0.34 -0.03,-0.13 -0.03,-0.27 0.01,-0.41l2.33 -10.07c0.03,-0.15 0.09,-0.28 0.18,-0.41 0.09,-0.13 0.2,-0.25 0.32,-0.34 0.12,-0.1 0.26,-0.17 0.41,-0.23 0.15,-0.06 0.3,-0.09 0.45,-0.09 0.15,0 0.29,0.03 0.4,0.09 0.11,0.06 0.2,0.13 0.28,0.23 0.07,0.09 0.11,0.21 0.14,0.34 0.02,0.13 0.01,0.26 -0.02,0.41l-0.93 4.01 1.53 0c0.29,-0.73 0.7,-1.41 1.22,-2.04 0.52,-0.63 1.12,-1.18 1.79,-1.65 0.67,-0.47 1.4,-0.83 2.18,-1.1 0.78,-0.26 1.58,-0.39 2.39,-0.39z"/>
   <path class="fil0" d="M450.6 119.16c-0.28,-0.03 -0.49,-0.14 -0.64,-0.32 -0.14,-0.19 -0.18,-0.43 -0.12,-0.71l2.35 -10.14c0.03,-0.14 0.09,-0.28 0.18,-0.41 0.09,-0.12 0.19,-0.23 0.3,-0.33 0.12,-0.09 0.25,-0.16 0.4,-0.22 0.14,-0.05 0.29,-0.08 0.45,-0.08l6.97 0c0.14,0 0.28,0.03 0.4,0.08 0.12,0.06 0.21,0.13 0.29,0.22 0.07,0.1 0.12,0.21 0.14,0.33 0.03,0.13 0.03,0.27 -0.01,0.41 -0.03,0.15 -0.09,0.28 -0.17,0.41 -0.09,0.12 -0.19,0.23 -0.3,0.32 -0.12,0.09 -0.25,0.17 -0.39,0.22 -0.15,0.06 -0.29,0.08 -0.44,0.08l-5.9 0 -0.65 2.84 4.61 0c0.15,0 0.29,0.02 0.41,0.08 0.12,0.06 0.21,0.13 0.29,0.23 0.07,0.09 0.12,0.21 0.15,0.34 0.03,0.13 0.02,0.26 -0.01,0.4 -0.03,0.15 -0.09,0.28 -0.18,0.4 -0.08,0.12 -0.18,0.23 -0.3,0.32 -0.12,0.09 -0.25,0.17 -0.39,0.22 -0.15,0.05 -0.3,0.07 -0.45,0.07l-4.61 0 -0.73 3.17 5.89 0c0.15,0 0.28,0.03 0.4,0.08 0.12,0.06 0.22,0.14 0.29,0.23 0.07,0.1 0.12,0.21 0.14,0.34 0.03,0.12 0.03,0.26 0,0.4 -0.04,0.14 -0.1,0.28 -0.18,0.4 -0.09,0.13 -0.19,0.23 -0.3,0.33 -0.12,0.09 -0.25,0.16 -0.39,0.22 -0.15,0.05 -0.29,0.07 -0.44,0.07l-7.06 0z"/>
   <path class="fil0" d="M465.14 115.67c-0.13,0.54 -0.29,1.01 -0.49,1.42l4.5 0 1.87 -8.07 -4.35 0 -1.53 6.65zm6.62 5.15c-0.03,0.14 -0.09,0.28 -0.17,0.4 -0.09,0.12 -0.19,0.23 -0.32,0.33 -0.12,0.09 -0.25,0.17 -0.4,0.22 -0.14,0.06 -0.29,0.08 -0.43,0.08 -0.16,0 -0.29,-0.02 -0.41,-0.08 -0.12,-0.05 -0.22,-0.13 -0.29,-0.22 -0.08,-0.1 -0.13,-0.21 -0.16,-0.33 -0.03,-0.12 -0.02,-0.26 0.01,-0.4l0.39 -1.66 -7.77 0 -0.39 1.66c-0.03,0.14 -0.09,0.28 -0.18,0.4 -0.08,0.12 -0.18,0.23 -0.3,0.33 -0.11,0.09 -0.24,0.17 -0.39,0.22 -0.14,0.06 -0.29,0.08 -0.43,0.08 -0.16,0 -0.29,-0.02 -0.41,-0.08 -0.12,-0.05 -0.22,-0.13 -0.3,-0.22 -0.08,-0.1 -0.13,-0.21 -0.16,-0.33 -0.03,-0.12 -0.02,-0.26 0.01,-0.4l0.63 -2.73c0.05,-0.19 0.13,-0.36 0.27,-0.51 0.13,-0.15 0.28,-0.27 0.46,-0.36 0.2,-0.1 0.41,-0.15 0.62,-0.15l0.06 0c0.15,0 0.29,-0.05 0.43,-0.14 0.14,-0.09 0.26,-0.21 0.38,-0.35 0.11,-0.14 0.21,-0.29 0.29,-0.45 0.08,-0.17 0.14,-0.33 0.18,-0.48l1.76 -7.63c0.06,-0.26 0.2,-0.48 0.42,-0.68 0.21,-0.19 0.45,-0.31 0.71,-0.36 0.01,0 0.01,0 0.02,0 0,-0.01 0.01,-0.01 0.01,-0.01 0.04,0 0.07,-0.01 0.09,-0.01 0.02,0 0.05,-0.01 0.08,-0.01l6.51 0c0.15,0 0.28,0.03 0.4,0.08 0.12,0.06 0.22,0.13 0.3,0.23 0.08,0.09 0.13,0.2 0.16,0.33 0.02,0.12 0.02,0.26 -0.01,0.4l-2.11 9.1c0.04,-0.01 0.07,-0.01 0.11,-0.02 0.04,0 0.08,0 0.12,0 0.14,0 0.27,0.03 0.39,0.08 0.13,0.05 0.22,0.13 0.3,0.22 0.08,0.1 0.13,0.21 0.16,0.34 0.03,0.12 0.02,0.26 -0.01,0.4l-0.63 2.71z"/>
   <path class="fil0" d="M479.5 112.92l3.68 -5.33c0.09,-0.13 0.2,-0.24 0.33,-0.34 0.13,-0.1 0.26,-0.17 0.4,-0.22 0.15,-0.05 0.29,-0.08 0.43,-0.08 0.15,0 0.28,0.02 0.41,0.08 0.12,0.06 0.22,0.14 0.29,0.24 0.08,0.1 0.13,0.21 0.15,0.34 0.03,0.12 0.02,0.25 0,0.39 -0.03,0.14 -0.09,0.27 -0.18,0.4l-4.86 6.84 -0.36 0.52c-0.45,0.63 -0.86,1.16 -1.23,1.6 -0.37,0.43 -0.75,0.8 -1.12,1.08 -0.38,0.29 -0.77,0.5 -1.17,0.64 -0.41,0.13 -0.87,0.21 -1.38,0.22 -0.01,0 -0.03,0 -0.05,0 -0.02,0.01 -0.03,0.01 -0.05,0.01 -0.3,0 -0.53,-0.08 -0.71,-0.25 -0.18,-0.16 -0.24,-0.39 -0.17,-0.68 0.04,-0.15 0.1,-0.29 0.18,-0.42 0.09,-0.13 0.19,-0.24 0.32,-0.34 0.12,-0.09 0.25,-0.17 0.4,-0.22 0.14,-0.06 0.29,-0.08 0.44,-0.08 0.31,0 0.57,-0.02 0.78,-0.09 0.21,-0.06 0.41,-0.16 0.58,-0.3 0.18,-0.14 0.34,-0.31 0.51,-0.51 0.16,-0.21 0.34,-0.45 0.54,-0.73l0.15 -0.24 -1.74 -7.05c-0.03,-0.13 -0.02,-0.26 0.01,-0.4 0.03,-0.14 0.09,-0.27 0.17,-0.39 0.09,-0.13 0.19,-0.24 0.32,-0.34 0.12,-0.1 0.26,-0.18 0.42,-0.24 0.15,-0.06 0.3,-0.08 0.43,-0.08 0.14,0 0.27,0.03 0.39,0.08 0.12,0.05 0.22,0.12 0.3,0.22 0.08,0.1 0.13,0.21 0.16,0.34l1.23 5.33z"/>
   <path class="fil0" d="M392.04 35.16l-17.33 0c-1.62,0 -2.93,0.9 -3.17,2.19l-10.46 55.75c-0.35,1.85 1.57,3.65 3.89,3.65l17.31 0c1.63,0 2.94,-0.92 3.17,-2.22l0.63 -3.54c0.33,-1.84 -1.59,-3.63 -3.9,-3.63l-2.37 0c-2.32,0 -4.25,-1.81 -3.89,-3.66l2 -10.38c0.25,-1.29 1.55,-2.18 3.16,-2.18l6.04 0c1.63,0 2.94,-0.92 3.17,-2.22l0.63 -3.54c0.33,-1.84 -1.59,-3.63 -3.9,-3.63l-2.37 0c-2.32,0 -4.25,-1.8 -3.89,-3.65l2.18 -11.37c0.25,-1.29 1.55,-2.18 3.16,-2.18l6.04 0c1.63,0 2.94,-0.92 3.17,-2.22l0.63 -3.54c0.33,-1.84 -1.59,-3.63 -3.9,-3.63zm36.39 7.17l0.64 -3.54c0.33,-1.84 -1.59,-3.63 -3.9,-3.63l-24.09 0c-1.63,0 -2.94,0.92 -3.17,2.21l-0.63 3.55c-0.33,1.84 1.59,3.63 3.9,3.63 2.32,0 4.24,1.8 3.89,3.65l-8.48 44.89c-0.35,1.85 1.57,3.66 3.9,3.66l5.78 0c1.61,0 2.91,-0.9 3.16,-2.19l9.03 -47.82c0.25,-1.29 1.55,-2.19 3.17,-2.19l3.64 0c1.63,0 2.93,-0.92 3.16,-2.22zm67.46 -7.17l-24.09 0c-1.63,0 -2.93,0.92 -3.16,2.21l-0.64 3.55c-0.32,1.84 1.59,3.63 3.9,3.63 2.33,0 4.25,1.8 3.9,3.65l-8.48 44.89c-0.35,1.85 1.57,3.66 3.89,3.66l5.78 0c1.62,0 2.92,-0.9 3.16,-2.19l9.04 -47.82c0.24,-1.29 1.54,-2.19 3.16,-2.19l3.64 0c1.63,0 2.94,-0.92 3.17,-2.22l0.63 -3.54c0.33,-1.84 -1.59,-3.63 -3.9,-3.63zm-35.12 0l-5 0c-1.79,0 -3.23,1 -3.5,2.43l-2.42 13.24 -6.72 10.99c-0.51,0.83 -2.13,0.29 -1.95,-0.65l4.1 -21.97c0.39,-2.04 -1.74,-4.04 -4.31,-4.04l-5 0c-1.79,0 -3.23,1 -3.49,2.43l-10.35 55.12c-0.39,2.04 1.74,4.04 4.31,4.04l4.99 0c1.8,0 3.24,-1.01 3.5,-2.44l1.24 -6.84 6.56 -10.2c0.52,-0.81 2.12,-0.27 1.94,0.66l-2.75 14.78c-0.38,2.05 1.74,4.04 4.31,4.04l5 0c1.79,0 3.23,-1 3.5,-2.43l10.35 -55.12c0.39,-2.05 -1.74,-4.04 -4.31,-4.04zm-140.97 0l-26.86 0c-1.62,0 -2.93,0.9 -3.17,2.19l-10.46 55.75c-0.35,1.85 1.57,3.65 3.89,3.65l5.78 0c1.62,0 2.92,-0.9 3.17,-2.19l9.03 -47.83c0.24,-1.28 1.55,-2.18 3.16,-2.18l0.64 0c2.33,0 4.25,1.8 3.9,3.65l-8.48 44.89c-0.35,1.85 1.57,3.66 3.89,3.66l5.78 0c1.62,0 2.92,-0.91 3.17,-2.2l10.46 -55.74c0.35,-1.85 -1.57,-3.65 -3.9,-3.65zm-51.07 11.62l-3.1 16.3c-0.24,1.29 -1.54,2.19 -3.16,2.19l-0.04 0c-2.32,0 -4.25,-1.8 -3.9,-3.65l2.69 -14.16c0.27,-1.64 1.26,-2.34 3.3,-2.34l2.59 0c0.85,0 1.3,0.14 1.45,0.27 0.16,0.16 0.3,0.61 0.17,1.39zm10.96 -8.77c-1.99,-1.89 -5.14,-2.85 -9.36,-2.85l-7.16 0c-8.4,0 -13.41,3.74 -14.9,11.13l-8.75 46.81c-0.35,1.85 1.57,3.65 3.89,3.65l5.78 0c1.62,0 2.92,-0.9 3.17,-2.19l3.23 -17.14c0.25,-1.29 1.55,-2.19 3.17,-2.19l0.04 0c2.32,0 4.24,1.8 3.9,3.65l-2.69 14.21c-0.35,1.85 1.58,3.66 3.9,3.66l5.77 0c1.62,0 2.93,-0.91 3.17,-2.2l8.89 -47.54c0.8,-3.94 0.11,-6.97 -2.05,-9zm81 -2.85l-26.87 0c-1.62,0 -2.92,0.9 -3.16,2.19l-10.47 55.75c-0.35,1.85 1.58,3.65 3.9,3.65l5.78 0c1.62,0 2.92,-0.9 3.16,-2.19l9.04 -47.83c0.24,-1.28 1.54,-2.18 3.16,-2.18l0.64 0c2.32,0 4.24,1.8 3.89,3.65l-8.48 44.89c-0.35,1.85 1.58,3.66 3.9,3.66l5.78 0c1.62,0 2.92,-0.91 3.16,-2.2l10.47 -55.74c0.34,-1.85 -1.58,-3.65 -3.9,-3.65z"/>
   <path class="fil0" d="M124.36 124.07l-33.27 1.01 64.04 11c-1.72,-2.78 -30.25,-8.87 -30.77,-12.01z"/>
   <path class="fil0" d="M102.97 100.69l-53.14 1.61 59.16 6.87c-1.71,-2.78 -5.49,-5.35 -6.02,-8.48z"/>
   <path class="fil0" d="M92.45 68.15l-92.62 3.37 94.88 9.32c-2.69,-3.77 -1.44,-8.44 -2.26,-12.69z"/>
   <path class="fil0" d="M128.63 12.28l-53.15 -1.61 64.04 -6.87c-1.72,2.78 -10.37,5.35 -10.89,8.48z"/>
   <path class="fil0" d="M97.71 44.79l-68.56 -1.83 73.81 -6.18c-2.51,2.78 -4.48,4.87 -5.25,8.01z"/>
  </g>
 </g>
</svg>
